<?xml version="1.0" standalone="no"?>
<!DOCTYPE svg PUBLIC "-//W3C//DTD SVG 20010904//EN"
 "http://www.w3.org/TR/2001/REC-SVG-20010904/DTD/svg10.dtd">
<svg version="1.0" xmlns="http://www.w3.org/2000/svg"
 width="700.000000pt" height="700.000000pt" viewBox="0 0 700.000000 700.000000"
 preserveAspectRatio="xMidYMid meet">
<metadata>
Created by potrace 1.14, written by Peter Selinger 2001-2017
</metadata>
<g transform="translate(0.000000,700.000000) scale(0.100000,-0.100000)"
fill="#000000" stroke="none">
<path d="M4379 6965 c-2 -1 -20 -6 -41 -9 -109 -17 -252 -96 -368 -203 l-34
-32 24 -9 c14 -6 99 -44 190 -86 133 -61 159 -70 134 -48 -46 43 -64 73 -64
110 0 89 93 158 163 120 12 -6 28 -17 35 -25 19 -19 46 -108 68 -225 10 -54
20 -96 22 -93 2 2 6 28 8 57 12 183 32 246 84 273 79 41 161 -7 162 -96 0 -48
-23 -85 -122 -191 -39 -43 -69 -78 -67 -78 3 0 38 19 79 43 171 100 235 115
285 64 24 -23 28 -36 28 -82 0 -48 -4 -58 -33 -87 -28 -28 -39 -33 -82 -33
-27 0 -46 -3 -42 -6 4 -4 52 -27 107 -52 55 -25 126 -57 157 -71 31 -14 62
-26 67 -26 14 0 14 124 0 210 -24 151 -84 272 -188 376 -132 133 -271 193
-462 199 -59 2 -108 2 -110 0z"/>
<path d="M2332 6938 c-202 -41 -386 -194 -469 -393 -44 -103 -76 -311 -50
-320 6 -3 98 27 202 65 135 50 176 68 143 64 -95 -11 -168 40 -168 117 0 105
82 151 175 99 22 -12 80 -49 128 -82 49 -33 91 -58 93 -56 2 3 -19 31 -47 64
-27 32 -66 83 -86 112 -31 48 -35 59 -30 100 12 107 142 138 201 47 22 -33 28
-76 28 -202 0 -57 3 -103 7 -103 4 0 16 35 26 78 49 210 99 272 195 243 67
-20 103 -110 69 -173 -6 -11 -23 -31 -38 -44 -21 -18 9 -10 144 40 94 34 176
65 184 68 10 3 -7 26 -54 72 -189 188 -402 255 -653 204z"/>
<path d="M3260 6841 c-101 -33 -157 -106 -163 -211 -2 -44 -2 -44 -47 -52
-112 -19 -185 -108 -184 -223 0 -48 6 -71 27 -107 33 -57 68 -79 187 -118 132
-43 235 -101 296 -167 47 -50 114 -164 114 -195 0 -7 18 23 39 67 55 112 119
173 246 235 55 26 133 58 173 70 46 13 86 33 109 53 135 118 77 342 -99 381
l-52 12 -11 65 c-17 102 -57 153 -147 185 -76 27 -156 13 -214 -38 -35 -31
-35 -31 -57 -11 -60 52 -152 76 -217 54z m256 -296 c3 -66 6 -160 6 -210 l0
-90 30 75 c52 125 111 205 189 257 51 34 62 22 18 -19 -47 -46 -81 -93 -116
-163 -48 -95 -122 -324 -81 -250 16 29 71 80 118 110 51 32 144 54 211 50 81
-6 83 -19 4 -29 -151 -18 -264 -95 -341 -232 -18 -33 -37 -75 -40 -92 -6 -30
-24 -45 -24 -21 0 29 -74 161 -116 208 -72 80 -159 123 -279 137 -27 4 -52 8
-54 10 -13 12 18 18 87 17 112 -1 180 -30 258 -107 l61 -61 -24 80 c-36 123
-104 251 -168 323 -58 63 -58 79 -2 40 86 -59 162 -171 206 -303 8 -26 10 -19
11 45 2 101 10 248 14 285 2 17 4 41 5 55 1 15 5 20 10 15 5 -6 13 -64 17
-130z"/>
<path d="M2490 6220 l-60 -120 122 -60 123 -60 58 121 c32 66 57 122 55 124
-6 5 -228 115 -233 115 -3 0 -32 -54 -65 -120z"/>
<path d="M4338 6276 l-116 -60 61 -122 60 -121 119 59 c65 32 118 63 118 68 0
14 -109 228 -118 233 -4 2 -59 -24 -124 -57z"/>
<path d="M1490 6176 c-168 -36 -280 -174 -284 -351 -1 -39 -2 -40 -36 -41 -97
-2 -200 -43 -259 -104 -21 -22 -53 -70 -72 -107 -30 -60 -34 -77 -34 -148 0
-69 5 -89 32 -147 17 -37 50 -87 73 -111 l41 -45 -40 -53 c-141 -186 -61 -468
157 -549 121 -46 235 -29 357 50 75 49 159 84 279 115 125 33 136 35 256 41
124 7 202 -8 317 -61 41 -19 73 -29 70 -22 -35 78 -70 179 -82 234 -14 67 -14
216 -1 278 18 83 82 261 123 341 25 49 54 107 65 128 129 254 -75 550 -359
522 -64 -6 -166 -51 -202 -89 l-22 -25 -46 45 c-94 91 -209 125 -333 99z m244
-372 c3 -54 9 -123 15 -153 25 -126 129 -376 214 -516 41 -66 42 -65 23 15
-16 70 -13 192 9 267 26 92 82 181 162 261 95 93 118 94 49 1 -121 -160 -169
-312 -154 -487 10 -126 66 -312 105 -351 24 -24 10 -20 -63 15 -114 55 -211
77 -344 77 -179 1 -284 -34 -431 -145 -44 -33 -83 -58 -86 -54 -18 18 170 191
237 218 117 47 129 50 231 54 74 3 121 -1 155 -11 26 -8 50 -13 51 -11 4 4
-62 42 -183 107 -89 48 -228 104 -308 125 -118 31 -148 35 -246 36 -103 1
-118 7 -59 25 65 20 195 26 269 13 124 -21 374 -116 394 -149 4 -6 12 -11 19
-11 6 0 -43 55 -109 123 -152 156 -213 222 -302 327 -102 121 -96 131 20 30
115 -100 192 -171 328 -304 74 -72 127 -120 117 -106 -51 76 -119 245 -142
355 -18 87 -21 232 -6 283 5 17 8 32 5 32 -3 0 0 9 6 21 7 11 13 19 16 17 2
-3 6 -49 8 -104z"/>
<path d="M5364 6179 c-65 -12 -135 -50 -185 -100 l-47 -46 -33 30 c-64 56
-133 80 -234 81 -76 0 -99 -4 -146 -26 -75 -34 -143 -103 -180 -181 -55 -119
-45 -229 36 -367 24 -41 55 -100 69 -131 25 -58 80 -236 91 -300 26 -144 -2
-316 -75 -459 -11 -22 -20 -41 -20 -43 0 -3 26 8 58 24 166 81 345 88 593 24
101 -26 188 -62 282 -116 105 -61 171 -80 248 -74 118 10 209 63 270 158 50
78 69 141 65 221 -4 69 -35 150 -81 211 l-27 35 50 55 c204 223 68 577 -232
604 l-70 6 -2 35 c-9 120 -41 196 -112 262 -93 87 -198 119 -318 97z m-73
-311 c7 -24 14 -87 15 -141 3 -141 -24 -251 -102 -416 -24 -52 -42 -96 -40
-99 3 -2 40 31 83 73 196 194 429 400 437 387 6 -10 -196 -241 -355 -405 -68
-70 -123 -127 -121 -127 2 0 35 18 75 39 84 46 227 96 312 110 107 17 345 -3
320 -27 -3 -3 -43 -7 -88 -8 -119 -3 -174 -13 -307 -57 -98 -32 -400 -178
-421 -203 -10 -12 -6 -12 22 -1 20 7 83 12 154 12 100 0 131 -4 184 -23 110
-40 223 -125 289 -219 23 -32 16 -45 -10 -20 -40 40 -134 101 -202 132 -139
65 -268 79 -427 49 -86 -16 -220 -65 -252 -92 -29 -25 -28 -8 2 49 75 137 108
353 77 498 -24 112 -86 234 -168 329 -15 18 -28 37 -28 43 0 18 40 -11 109
-81 76 -77 136 -180 156 -268 17 -73 17 -209 -1 -275 -7 -28 -14 -54 -14 -57
0 -12 88 146 136 245 54 111 106 258 119 331 14 83 21 155 20 208 -2 67 10 72
26 14z"/>
<path d="M5140 5189 c0 -5 5 -7 10 -4 6 3 10 8 10 11 0 2 -4 4 -10 4 -5 0 -10
-5 -10 -11z"/>
<path d="M2911 5935 c-143 -32 -210 -86 -303 -246 -73 -125 -86 -158 -67 -170
25 -16 34 -9 82 66 27 42 77 104 112 139 115 115 198 148 435 172 36 3 67 8
69 10 14 13 6 33 -16 37 -55 10 -251 5 -312 -8z"/>
<path d="M3757 5942 c-21 -2 -27 -8 -23 -19 3 -8 6 -18 6 -21 0 -4 21 -7 48
-7 26 0 67 -3 92 -7 25 -4 62 -10 83 -13 146 -21 278 -117 390 -287 52 -78 60
-85 85 -69 18 11 -6 70 -75 186 -85 142 -157 198 -299 231 -61 14 -223 17
-307 6z"/>
<path d="M3117 5800 c-112 -19 -225 -96 -280 -190 -31 -55 -59 -159 -57 -214
3 -61 2 -61 -27 -64 -47 -4 -141 -31 -184 -52 -61 -32 -127 -103 -159 -173
-30 -64 -51 -163 -44 -207 11 -73 16 -93 30 -125 l14 -35 63 49 c189 147 410
258 607 306 41 9 79 21 84 26 12 10 -29 64 -118 157 -38 39 -64 72 -57 72 35
0 163 -103 234 -189 16 -20 33 -31 42 -27 8 3 56 8 107 12 51 3 94 7 94 8 1 0
5 53 8 116 7 120 15 202 22 209 10 11 12 2 30 -249 3 -41 7 -76 7 -77 1 0 44
-4 96 -8 52 -3 98 -8 102 -11 5 -2 23 12 41 32 86 96 218 197 235 181 2 -3
-24 -35 -60 -72 -35 -36 -78 -86 -95 -109 l-31 -43 99 -26 c152 -40 388 -141
465 -200 5 -4 42 -30 80 -57 39 -27 82 -59 97 -70 l27 -21 16 38 c70 168 -6
394 -165 485 -53 31 -140 58 -187 58 -18 0 -33 3 -33 8 -1 4 -3 37 -5 74 -12
203 -126 338 -322 384 -135 31 -265 -8 -368 -112 l-25 -25 -50 44 c-55 49
-100 73 -175 93 -55 15 -86 16 -158 4z"/>
<path d="M6165 5189 c-3 -5 35 -91 84 -191 50 -101 89 -174 86 -163 -21 90 -8
148 38 178 81 52 187 6 187 -81 0 -35 -62 -174 -115 -259 -14 -24 -23 -43 -19
-43 3 0 44 38 91 84 95 95 138 121 189 111 53 -10 85 -43 91 -96 5 -41 2 -50
-26 -82 -24 -26 -44 -38 -82 -46 -63 -14 -143 -24 -191 -25 -21 -1 -38 -4 -38
-8 0 -5 1 -8 3 -8 26 0 238 -44 267 -56 63 -26 89 -82 64 -144 -16 -39 -72
-78 -109 -75 -11 1 -29 2 -41 3 -11 1 -35 17 -54 35 l-33 32 25 -50 c13 -27
51 -105 83 -172 32 -68 63 -123 67 -123 22 0 117 127 163 218 103 206 90 468
-31 652 -99 151 -257 262 -429 301 -62 14 -263 20 -270 8z"/>
<path d="M665 5153 c-70 -8 -184 -37 -240 -63 -158 -73 -312 -241 -358 -390
-58 -194 -42 -383 49 -547 63 -114 174 -238 174 -194 0 5 15 42 34 83 46 100
70 153 100 223 l27 60 -38 -42 c-63 -71 -133 -79 -192 -22 -54 51 -50 127 9
171 21 15 222 66 283 71 33 3 17 17 -20 18 -51 0 -117 8 -183 21 -40 8 -63 19
-88 44 -32 32 -34 38 -29 80 6 56 36 90 87 99 60 10 97 -12 228 -137 29 -28
55 -49 57 -46 2 2 -12 31 -32 63 -49 81 -103 199 -103 225 0 39 28 77 69 93
83 34 171 -25 171 -115 0 -43 9 -30 56 77 21 50 53 119 70 155 18 36 31 66 30
67 -4 5 -131 9 -161 6z"/>
<path d="M1941 4604 c-104 -35 -164 -79 -210 -154 -39 -64 -66 -149 -70 -226
-1 -7 -24 -11 -59 -12 -249 -2 -427 -195 -410 -444 6 -81 49 -177 103 -229 39
-38 43 -52 17 -71 -29 -21 -81 -100 -101 -153 -39 -103 -18 -261 49 -365 70
-109 209 -176 358 -172 33 0 42 -3 43 -16 3 -67 39 -178 72 -227 69 -100 178
-160 313 -172 47 -4 80 0 134 16 77 24 76 21 24 86 -145 180 -288 484 -317
673 -2 12 -6 24 -10 28 -8 8 -82 -50 -164 -130 -34 -33 -65 -58 -68 -55 -15
15 109 175 177 230 26 20 45 39 43 41 -3 2 -8 49 -11 104 -4 54 -8 100 -9 102
-1 1 -31 4 -66 7 -142 11 -222 18 -263 24 -16 2 4 15 27 17 12 1 74 5 137 9
63 4 126 8 140 9 24 2 25 5 32 87 3 47 8 94 9 104 3 14 -20 43 -72 95 -76 74
-139 160 -139 188 0 8 21 -8 48 -35 26 -28 77 -74 114 -102 l66 -52 12 58 c19
90 68 228 120 338 46 98 161 280 214 340 14 17 26 33 26 36 0 13 -117 43 -175
45 -43 2 -81 -4 -134 -22z"/>
<path d="M4875 4624 c-47 -12 -115 -36 -115 -41 0 -3 22 -33 48 -67 140 -177
260 -424 312 -644 l12 -53 47 37 c25 21 74 64 109 98 37 36 62 54 62 45 0 -35
-135 -202 -185 -229 -13 -7 -23 -16 -20 -19 2 -4 7 -50 10 -101 8 -120 11
-128 38 -127 22 1 209 -11 260 -17 27 -3 50 -15 31 -17 -5 0 -17 -2 -27 -4
-16 -3 -235 -18 -278 -19 -13 0 -17 -12 -18 -56 -1 -30 -5 -79 -9 -109 l-7
-55 75 -75 c75 -76 146 -176 131 -185 -4 -3 -32 20 -62 50 -55 56 -147 130
-154 123 -2 -2 -15 -47 -30 -99 -50 -179 -108 -310 -202 -458 -42 -66 -122
-174 -137 -184 -18 -12 6 -28 65 -43 176 -47 375 38 454 194 23 47 51 146 54
197 1 6 28 11 69 12 110 2 228 52 295 126 60 65 107 193 107 288 0 90 -52 210
-118 272 l-31 29 45 50 c70 78 95 141 100 249 4 105 -39 226 -106 296 -72 75
-188 123 -297 123 -34 0 -63 3 -64 7 -25 213 -107 328 -274 386 -52 18 -155
29 -190 20z"/>
<path d="M778 4519 c-65 -32 -118 -61 -118 -64 0 -6 110 -228 116 -234 4 -4
244 110 244 116 0 6 -120 243 -123 242 -1 0 -55 -27 -119 -60z"/>
<path d="M6046 4444 c-31 -63 -56 -119 -56 -122 0 -8 230 -125 236 -120 7 7
114 229 114 236 0 6 -222 122 -234 122 -2 0 -29 -52 -60 -116z"/>
<path d="M5531 4441 c-12 -22 -6 -28 84 -86 84 -54 188 -162 224 -232 36 -72
69 -222 74 -342 2 -24 7 -35 20 -37 9 -1 17 3 18 9 0 7 3 21 5 32 3 11 6 70 6
130 1 169 -38 289 -119 367 -43 41 -196 136 -260 161 -40 16 -43 16 -52 -2z"/>
<path d="M1440 4433 c-85 -30 -262 -143 -305 -195 -65 -77 -98 -196 -95 -351
2 -146 4 -162 23 -165 21 -4 24 5 31 90 17 195 59 307 153 404 55 57 163 144
180 144 22 1 51 39 46 59 -6 22 -8 23 -33 14z"/>
<path d="M578 4115 c-92 -23 -145 -78 -167 -172 -11 -45 -16 -53 -37 -53 -132
0 -233 -94 -236 -219 -1 -50 25 -120 61 -160 l21 -25 -24 -25 c-32 -34 -57
-94 -58 -140 -1 -130 92 -229 221 -234 22 -1 41 -4 42 -7 0 -3 3 -18 5 -35 17
-101 96 -177 202 -192 49 -7 138 25 176 63 36 36 42 49 77 164 57 186 158 314
302 380 l58 26 -73 37 c-41 20 -95 58 -124 86 -58 57 -127 181 -167 303 -14
42 -33 90 -41 107 -38 73 -150 119 -238 96z m127 -197 c25 -218 128 -343 350
-423 19 -7 19 -8 -5 -17 -154 -63 -239 -129 -287 -223 -30 -58 -53 -136 -53
-182 0 -36 -15 -52 -23 -24 -2 10 -3 49 -2 87 2 53 10 84 33 134 33 70 47 89
102 134 l35 29 -35 -8 c-138 -30 -283 -102 -372 -184 -64 -59 -74 -53 -27 15
53 77 142 138 270 184 30 11 52 19 49 20 -3 0 -77 3 -165 6 -88 3 -176 7 -195
8 -19 2 -44 4 -55 5 -12 1 -15 4 -10 10 11 10 161 21 318 23 85 2 95 4 75 15
-13 7 -30 12 -38 13 -27 0 -164 87 -210 132 -48 47 -78 94 -67 105 4 3 16 -6
27 -20 51 -64 195 -146 338 -191 46 -14 86 -26 89 -26 3 0 -15 18 -41 41 -98
86 -136 201 -118 358 3 20 14 6 17 -21z"/>
<path d="M6332 4118 c-93 -16 -151 -75 -182 -184 -55 -196 -170 -351 -302
-409 -37 -17 -67 -32 -68 -35 0 -3 32 -20 70 -38 98 -46 167 -116 223 -228 24
-49 54 -119 65 -156 36 -116 66 -159 135 -195 51 -26 142 -23 202 7 57 29 109
103 113 160 1 19 5 36 8 39 3 3 28 6 55 7 96 3 192 91 205 186 9 66 -2 109
-42 169 l-35 52 25 26 c97 101 61 284 -67 344 -38 19 -67 25 -113 26 -30 1
-32 3 -38 51 -15 116 -134 200 -254 178z m-21 -203 c1 -14 2 -40 3 -57 5 -90
-41 -198 -116 -270 -28 -26 -48 -48 -46 -48 18 0 219 74 260 97 59 31 131 84
166 122 28 31 40 20 17 -16 -52 -82 -175 -171 -286 -208 -27 -9 -49 -18 -49
-19 0 -2 55 -4 123 -5 156 -2 278 -11 297 -22 13 -7 13 -9 0 -10 -8 0 -31 -2
-50 -4 -28 -3 -241 -12 -355 -15 -11 0 5 -10 35 -20 75 -27 96 -38 165 -86 61
-43 73 -55 113 -111 39 -55 24 -57 -34 -4 -84 77 -203 138 -349 181 l-60 17
61 -61 c77 -77 105 -146 107 -258 2 -67 -5 -100 -17 -87 -2 2 -6 27 -9 54 -10
101 -64 211 -134 277 -39 37 -140 97 -185 109 -40 10 -52 29 -19 29 10 0 49
16 87 34 133 67 225 191 247 335 11 70 26 94 28 46z"/>
<path d="M5929 3252 c-12 -2 -17 -14 -16 -40 0 -32 -7 -87 -28 -207 -16 -91
-74 -193 -153 -269 -52 -51 -163 -132 -192 -141 -20 -6 -16 -55 5 -55 20 0
164 75 235 122 135 91 187 218 182 448 -2 112 -10 147 -33 142z"/>
<path d="M1049 3223 c-7 -37 -9 -71 -10 -148 -3 -225 52 -351 192 -441 86 -54
201 -114 222 -114 12 0 27 19 27 35 0 2 -33 25 -72 51 -142 91 -257 232 -284
344 -4 19 -8 37 -9 40 -1 3 -5 32 -10 65 -4 33 -9 67 -11 75 -1 8 -3 34 -3 58
-1 35 -4 42 -21 42 -11 0 -21 -3 -21 -7z"/>
<path d="M6651 2918 c-36 -79 -75 -165 -88 -192 -13 -28 -23 -52 -23 -54 0 -3
18 18 41 46 43 55 80 70 137 57 52 -11 102 -79 95 -129 -10 -68 -65 -97 -248
-132 -99 -18 -130 -33 -69 -32 69 0 168 -13 218 -30 57 -20 84 -51 90 -105 4
-33 0 -44 -28 -74 -28 -31 -39 -36 -78 -36 -55 -1 -91 21 -196 123 -76 74 -89
76 -45 7 37 -59 101 -191 107 -219 10 -60 -46 -118 -116 -118 -69 0 -134 72
-122 136 3 18 2 25 -4 19 -8 -8 -124 -260 -150 -324 -4 -12 15 -13 119 -9 137
6 243 34 332 87 149 88 274 244 311 386 67 264 11 484 -175 688 l-44 48 -64
-143z"/>
<path d="M271 2993 c-155 -155 -224 -312 -222 -507 2 -165 32 -259 127 -393
87 -122 230 -220 379 -258 70 -19 241 -32 233 -19 -3 5 -36 95 -73 199 -37
105 -69 191 -70 193 -2 2 -1 -25 2 -60 4 -55 2 -68 -19 -98 -28 -41 -89 -67
-133 -56 -15 4 -41 21 -57 38 -50 54 -36 106 75 266 30 42 57 84 62 92 10 18
2 12 -85 -60 -141 -118 -209 -133 -275 -60 -24 26 -25 88 -2 124 32 48 70 59
209 60 70 1 128 4 128 8 0 4 -26 15 -57 23 -215 60 -247 76 -264 134 -10 34
-9 44 8 77 40 78 135 94 195 33 38 -37 41 -37 23 4 -8 17 -28 73 -45 122 -41
118 -71 195 -77 195 -2 0 -30 -26 -62 -57z"/>
<path d="M710 2669 l-60 -120 123 -59 122 -58 58 116 c31 63 57 118 57 121 0
6 -224 121 -235 121 -3 0 -32 -54 -65 -121z"/>
<path d="M6100 2715 c-58 -30 -109 -56 -115 -58 -9 -3 83 -203 107 -234 15
-19 250 101 241 123 -15 39 -112 219 -120 221 -4 1 -55 -22 -113 -52z"/>
<path d="M1130 2475 c-118 -24 -199 -88 -253 -199 -63 -127 -44 -275 48 -385
l27 -31 -47 -52 c-25 -28 -53 -65 -61 -81 -85 -163 -31 -376 119 -471 63 -40
104 -54 182 -60 33 -3 60 -5 60 -5 1 -1 1 -18 1 -38 3 -130 56 -231 156 -297
145 -94 321 -81 451 35 l57 51 37 -32 c64 -57 116 -74 223 -75 88 0 101 3 162
33 155 76 237 261 188 420 -7 20 -34 75 -60 122 -60 106 -102 209 -136 335
-50 185 -31 383 52 547 13 27 23 48 21 48 -3 0 -34 -14 -71 -30 -160 -73 -296
-80 -527 -30 -125 28 -221 65 -331 126 -133 76 -196 90 -298 69z m187 -284
c167 -125 337 -173 522 -148 85 11 239 61 284 91 37 26 57 24 33 -3 -17 -19
-50 -101 -78 -191 -27 -88 -33 -271 -12 -360 20 -85 71 -188 139 -279 31 -40
54 -76 51 -78 -9 -9 -63 36 -124 102 -65 71 -122 178 -142 264 -17 71 -15 192
3 259 8 28 13 52 11 52 -6 0 -84 -139 -128 -227 -89 -179 -137 -352 -141 -506
-1 -53 -5 -100 -8 -103 -11 -12 -29 73 -34 167 -9 160 44 353 143 519 15 25
25 43 21 40 -3 -3 -52 -50 -109 -105 -57 -55 -135 -129 -173 -164 -39 -35 -86
-77 -105 -95 -61 -55 -147 -126 -154 -126 -14 0 -4 17 32 57 20 22 59 67 87
100 59 69 212 230 309 325 l69 67 -66 -35 c-127 -67 -253 -111 -372 -129 -95
-14 -249 -1 -293 25 -20 11 -25 10 98 14 52 2 113 7 135 10 62 11 221 64 316
107 141 63 317 164 254 145 -218 -65 -461 14 -613 200 -68 83 -60 84 45 5z"/>
<path d="M5708 2473 c-29 -8 -85 -34 -124 -58 -40 -25 -96 -56 -126 -70 -58
-26 -219 -72 -283 -80 -22 -3 -66 -9 -98 -14 -122 -17 -261 10 -389 75 l-49
25 20 -40 c29 -56 69 -177 77 -236 9 -61 9 -177 0 -225 -21 -111 -95 -323
-139 -400 -11 -19 -31 -54 -44 -77 -29 -51 -52 -155 -47 -215 11 -129 100
-250 224 -304 34 -14 67 -19 140 -19 83 1 102 4 146 27 28 15 65 39 83 54 l32
26 50 -47 c77 -72 146 -100 249 -100 75 0 93 4 154 33 121 57 192 159 204 293
l7 72 58 4 c101 6 202 56 258 127 37 47 78 150 82 206 8 99 -36 212 -110 286
-18 18 -33 35 -33 38 0 2 17 30 39 62 53 82 70 139 66 223 -4 83 -46 181 -105
240 -84 87 -222 124 -342 94z m51 -245 c-21 -40 -144 -154 -199 -185 -119 -67
-278 -92 -404 -63 -48 11 -75 7 -41 -6 10 -4 43 -23 74 -41 138 -84 344 -166
486 -194 33 -6 98 -12 145 -13 47 -2 86 -7 88 -12 5 -14 -94 -32 -183 -33
-137 -1 -290 41 -455 126 l-84 44 126 -128 c133 -135 147 -149 243 -258 33
-37 65 -73 70 -79 26 -27 67 -86 60 -86 -20 0 -211 169 -413 365 -68 66 -126
122 -130 125 -3 3 4 -11 16 -30 96 -160 150 -341 150 -496 0 -70 -19 -188 -32
-201 -7 -7 -7 -6 -11 110 -3 97 -24 201 -61 310 -27 78 -163 357 -193 397 -19
24 -19 24 -4 -30 13 -50 14 -222 1 -270 -33 -122 -112 -243 -209 -320 -29 -22
-54 -39 -56 -36 -3 2 19 35 48 73 157 205 198 438 119 674 -17 52 -42 114 -56
138 -13 24 -24 45 -24 48 0 2 19 -7 43 -21 88 -51 241 -92 358 -95 176 -5 341
55 483 176 46 38 62 42 45 11z"/>
<path d="M2395 2206 c-37 -88 -39 -172 -6 -274 49 -151 166 -246 334 -270 l52
-7 7 -76 c19 -213 125 -338 325 -385 131 -30 249 4 354 103 l36 34 39 -36
c114 -105 252 -135 401 -89 104 32 183 96 227 184 20 40 28 60 43 120 2 8 6
42 8 75 2 33 4 63 4 66 1 3 7 6 14 6 32 1 101 15 140 29 203 71 312 312 231
514 l-16 39 -61 -50 c-171 -139 -435 -266 -641 -309 -31 -6 -56 -14 -56 -17 0
-13 73 -102 124 -153 54 -53 65 -70 48 -70 -22 0 -138 89 -192 147 l-60 64
-71 -7 c-38 -3 -85 -7 -104 -8 -18 0 -36 -3 -39 -6 -5 -6 -11 -63 -22 -220 -3
-52 -8 -97 -10 -99 -13 -14 -19 29 -30 204 -4 61 -8 112 -10 114 -1 1 -20 5
-41 6 -21 2 -68 6 -105 10 l-67 6 -68 -69 c-71 -71 -178 -150 -190 -138 -4 3
16 28 44 55 52 50 139 159 132 165 -2 2 -42 13 -89 26 -222 58 -433 166 -606
306 -30 24 -56 44 -59 44 -3 0 -12 -15 -20 -34z"/>
<path d="M2554 1449 c-8 -14 63 -155 123 -243 91 -133 203 -181 418 -179 136
2 158 4 163 16 8 24 0 34 -24 31 -28 -3 -213 27 -281 45 -97 26 -217 129 -306
264 -49 73 -76 93 -93 66z"/>
<path d="M4373 1383 c-80 -118 -160 -197 -248 -241 -60 -30 -241 -66 -332 -66
-22 0 -33 -6 -36 -18 -7 -24 12 -28 137 -32 183 -6 331 38 407 121 60 66 169
262 169 304 0 5 -10 9 -23 9 -17 0 -35 -19 -74 -77z"/>
<path d="M3481 1173 c-34 -94 -110 -183 -201 -237 -63 -37 -201 -96 -225 -96
-30 0 -113 -50 -143 -86 -115 -140 -15 -355 169 -363 13 -1 17 -12 17 -46 1
-51 28 -118 61 -152 80 -84 236 -88 313 -8 l21 22 43 -32 c85 -65 195 -65 281
0 43 34 83 115 83 171 0 40 1 42 38 49 47 8 110 40 136 68 77 87 75 228 -6
309 -29 29 -56 43 -125 64 -203 61 -339 161 -409 300 -20 41 -38 74 -38 74 -1
0 -8 -17 -15 -37z m29 -133 c0 -39 72 -163 124 -216 29 -28 76 -64 104 -78 56
-28 187 -60 204 -50 6 4 9 1 6 -7 -4 -11 -26 -14 -89 -14 -69 1 -94 5 -139 26
-63 29 -125 80 -152 124 -25 42 -23 21 11 -83 47 -144 99 -238 175 -319 22
-24 37 -45 35 -48 -3 -3 -27 9 -54 27 -71 47 -132 135 -188 271 -9 20 -18 37
-21 37 -2 0 -4 -28 -4 -62 1 -82 -12 -341 -18 -347 -2 -2 -6 -2 -8 0 -10 10
-23 189 -26 359 l-1 65 -23 -61 c-43 -117 -125 -228 -202 -273 -44 -26 -43
-10 1 36 45 46 99 128 126 190 27 61 69 183 69 199 0 7 -23 -10 -50 -36 -76
-73 -142 -102 -249 -108 -59 -3 -91 -1 -95 7 -4 6 -1 12 6 12 114 10 224 53
294 115 55 50 122 159 139 227 8 32 25 36 25 7z"/>
<path d="M2533 957 l-121 -61 59 -118 c33 -65 63 -118 69 -118 19 0 230 114
229 124 0 6 -26 61 -57 123 l-57 112 -122 -62z"/>
<path d="M4261 890 l-61 -120 121 -61 c67 -33 122 -59 124 -57 14 14 113 233
109 240 -5 8 -219 118 -229 118 -2 0 -31 -54 -64 -120z"/>
<path d="M5170 839 c-8 -5 -93 -45 -187 -90 -95 -46 -172 -84 -170 -85 1 -2
23 2 47 7 119 27 202 -65 156 -175 -16 -39 -62 -61 -110 -53 -37 6 -128 48
-226 103 l-65 38 93 -98 c98 -103 112 -126 112 -183 0 -50 -54 -103 -104 -103
-45 0 -82 23 -103 63 -18 36 -42 163 -43 230 0 59 -16 62 -25 5 -28 -184 -51
-258 -87 -282 -90 -59 -189 16 -179 136 0 10 15 33 32 53 l31 35 -98 -48 c-55
-27 -132 -64 -172 -82 -40 -19 -71 -39 -69 -44 8 -25 139 -119 222 -160 172
-85 345 -93 541 -26 127 44 281 185 348 319 52 102 66 162 73 306 6 129 4 146
-17 134z"/>
<path d="M1848 818 c-3 -7 -4 -53 -3 -103 7 -252 121 -452 336 -587 61 -39 73
-44 147 -64 98 -26 216 -33 303 -19 119 20 285 108 383 202 l39 38 -84 39
c-46 22 -133 61 -194 88 l-110 49 43 -36 c23 -21 49 -49 56 -64 43 -85 -46
-195 -138 -170 -63 18 -81 58 -121 270 -11 59 -15 72 -20 77 -3 3 -5 -6 -6
-19 -1 -52 -8 -117 -19 -184 -9 -56 -17 -76 -42 -102 -93 -96 -231 8 -173 131
9 18 52 71 96 119 44 48 78 87 74 87 -4 0 -37 -18 -74 -40 -109 -63 -192 -98
-220 -94 -39 7 -74 37 -90 78 -12 32 -12 41 4 81 20 55 68 84 130 80 l40 -3
-40 19 c-33 15 -265 119 -301 135 -6 3 -14 -1 -16 -8z"/>
</g>
</svg>
