<?xml version="1.0" encoding="UTF-8"?>
<svg fill="none" viewBox="0 0 1197 559" xmlns="http://www.w3.org/2000/svg">
<g clip-path="url(#a)">
<path d="m1173 527.11c-335.25-143.91-635.95-136.26-829.18-104.51-209.39 34.414-341.18 103.76-342.49 104.46l-1.3363-2.511c1.3099-0.698 133.43-70.235 343.25-104.74 123.3-20.264 248.68-24.662 373.09-13.087 155.43 14.473 309.46 54.096 457.79 117.77l-1.12 2.613z" fill="#F2F2F2"/>
<path d="m399.14 262.78-79.382-62.904c-3.355-2.675-5.525-6.563-6.041-10.825s0.664-8.556 3.283-11.955c1.356-1.759 3.055-3.222 4.994-4.303 1.939-1.08 4.078-1.753 6.285-1.979 2.208-0.226 4.439 0 6.556 0.665 2.118 0.665 4.078 1.754 5.761 3.202l80.456 67.872 50.625 39.179c2.552-1.438 5.485-2.055 8.399-1.767 2.915 0.288 5.67 1.467 7.891 3.377 2.222 1.909 3.802 4.457 4.527 7.297 0.724 2.839 0.557 5.833-0.478 8.574-1.035 2.742-2.889 5.098-5.309 6.749-2.42 1.65-5.289 2.515-8.217 2.477-2.929-0.038-5.774-0.977-8.151-2.69-2.376-1.712-4.168-4.115-5.132-6.883l-66.067-36.086z" fill="#FFB6B6"/>
<path d="m330.15 219.99c-1.046 0.143-2.11-0.061-3.028-0.58-0.919-0.52-1.642-1.328-2.057-2.299-0.536-1.188-1.429-2.179-2.554-2.834-0.219-0.124-0.446-0.234-0.68-0.329-1.42-0.535-2.691-1.405-3.703-2.537-1.013-1.132-1.737-2.491-2.112-3.963-1.164-4.862-4.899-9.579-8.651-13.216-4.106-3.98-8.489-7.798-11.524-12.646-4.377-6.994-5.605-16.809 2.84-22.644 3.631-2.426 7.986-3.526 12.332-3.113 9.098 0.741 16.622 6.296 23.77 11.68l-1.79-3.515c7.704 6.017 16.543 10.414 25.987 12.929-1.634 1.486-0.218 4.459 1.879 5.151 2.098 0.691 4.359-0.037 6.519-0.496 2.722-0.578 6.089-0.529 7.163 2.724 0.235 0.785 0.305 1.611 0.206 2.425s-0.365 1.598-0.781 2.304c-7.587 13.509-17.883 25.301-30.242 34.636-2.747 2.072-5.935 4.111-9.35 3.705-3.415-0.405-6.32-4.653-4.224-7.382z" fill="#9AB522"/>
<path d="m267.22 307.8-7.41-35.742 77.88-24.549-10.487 82.275-59.983-21.984z" fill="#FFB6B6"/>
<path d="m335.54 275.85-75.056 32.391s-9.648-0.424-9.648-6.257 5.393-7.054-1.675-11.547c-7.068-4.494-9.982-1.577-8.525-8.868s2.914-9.702 2.914-11.413-1.457-9.002-1.457-16.293c0-3.535 11.348-9.953 8.525-30.667-3.44-25.237-2.233-63.859 22.077-71.408l17.486-30.623h33.332l10.384 30.623 12.309 16.141s24.279 30.724 16.993 46.764c-7.286 16.041-27.659 61.157-27.659 61.157z" fill="#123B14"/>
<path d="m483.84 324.41c-0.132-26.032-4.441-51.874-12.765-76.537-2.39-7.077-5.105-14.029-8.147-20.858-1.116-2.509-4.948-0.639-3.832 1.871 10.339 23.276 16.883 48.061 19.382 73.41 0.714 7.245 1.084 14.51 1.111 21.794 0.014 2.727 4.265 3.07 4.251 0.32z" fill="#3F3D56"/>
<path d="m462.49 223.71 2.41 7.152c-20.469-2.043-22.925-27.832-36.403-43.375-13.489-15.526-37.848-20.65-37.005-41.211 0.127-2.974 0.595-6.303 2.928-8.16 2.918-2.296 7.181-1.165 10.608 0.259 3.617 1.514 7.127 3.274 10.505 5.268 1.068 2.844 2.133 5.689 3.195 8.534 0.359 0.976 0.986 1.831 1.81 2.465s1.81 1.023 2.844 1.12c1.035 0.098 2.076-0.099 3.004-0.568 0.927-0.469 1.703-1.191 2.238-2.082l0.053-0.091c40.771-0.061 45.445 33.449 33.813 70.689z" fill="#9AB522"/>
<path d="m463.57 231.81c-10.016 3.967-18.472-4.483-28.475-8.472-10.016-4.004-21.482-3.498-26.033-13.279-0.408-0.669-0.672-1.415-0.773-2.192-0.101-0.776-0.038-1.565 0.185-2.316 0.803-1.779 3.063-2.265 4.999-2.433 2.697-0.214 5.409-0.187 8.101 0.082 0.653 1.175 1.291 2.364 1.942 3.554 1.103 2.008 2.192 4.015 3.295 6.022 1.995-2.236 3.632-4.768 4.853-7.506 18.448-7.715 26.489 6 29.063 23.788l2.843 2.752z" fill="#9AB522"/>
<path d="m460.8 231.6c9.311 5.42 18.934-1.67 29.42-4.118 10.501-2.462 21.763-0.246 27.724-9.237 0.504-0.6 0.875-1.299 1.091-2.051 0.216-0.753 0.272-1.542 0.164-2.318-0.529-1.879-2.69-2.697-4.58-3.153-2.635-0.616-5.32-0.994-8.023-1.131-0.821 1.065-1.628 2.145-2.45 3.223-1.391 1.821-2.767 3.642-4.158 5.463-1.638-2.51-2.879-5.258-3.677-8.148-17.089-10.388-27.087 1.971-32.289 19.174l-3.222 2.296z" fill="#9AB522"/>
<path d="m460.98 231.97c10.088-3.777 10.7-15.72 15.449-25.391 4.747-9.691 13.593-17.008 10.416-27.319-0.145-0.77-0.45-1.5-0.895-2.144s-1.02-1.187-1.689-1.594c-1.788-0.781-3.79 0.374-5.339 1.549-2.145 1.65-4.138 3.49-5.956 5.496 0.304 1.31 0.627 2.62 0.941 3.94 0.527 2.229 1.064 4.449 1.59 6.679-2.978-0.321-5.889-1.101-8.629-2.313-18.856 6.654-15.632 22.224-5.623 37.149l-0.265 3.948z" fill="#9AB522"/>
<path d="m292.92 90.298c24.5 18.65 51.785 33.493 56.928 54.018 0 0-3.081-32.249 11.289-26.136 24.146 10.27 15.977-45.584 9.205-54.718-11.285-15.222-49.339-23.872-49.339-23.872l-26.995 14.83-1.088 35.878z" fill="#2F2E41"/>
<path d="m335.58 112.93c23.369 0 42.313-18.957 42.313-42.342s-18.944-42.342-42.313-42.342-42.313 18.957-42.313 42.342 18.944 42.342 42.313 42.342z" fill="#FFB6B6"/>
<path d="m320.34 54.387-1.628 7.1565 28.463 6.4842c0.025-1.4474 0.349-2.8739 0.952-4.19 0.602-1.3162 1.47-2.4936 2.548-3.4583-0.614 2.8062-0.544 5.719 0.205 8.4923 15.35 8.6196 14.468 11.673 26.874 9.4752 1.681 0.3829 3.445 0.082 4.904-0.8366 1.459-0.9185 2.494-2.3795 2.876-4.0615 4.992-21.942 6.632-44.367-15.187-49.814-5.303-1.327-10.818-1.581-16.221-0.7472-5.403 0.8337-10.585 2.7386-15.243 5.6028-4.657 2.8642-8.697 6.6301-11.881 11.077s-5.449 9.485-6.662 14.819z" fill="#2F2E41"/>
<path d="m327.3 82.94c1.393-6.1123 4.125-11.839 7.998-16.766 3.874-4.9276 8.791-8.9336 14.399-11.729s11.766-4.3103 18.029-4.4355c6.264-0.1253 12.478 1.1423 18.192 3.7112-1.979-5.8465-5.986-10.79-11.293-13.936l-32.039-13.919c-15.803-3.6002-40.82-13.818-52.234-4.0331-10.517 8.9892-5.398 26.585-15.083 36.44-10.613 10.8-11.514 23.57-8.505 30.915 3.483 8.4973 10.449 20.09 19.142 22.599 0.452-2.99 1.943-5.725 4.21-7.725-0.626 2.85-0.681 5.796-0.16 8.667l52.63 42.005c-4.915-4.279-9.103-15.302-11.987-27.718-1.708-7.349-11.894-9.929-3.633-22.402 8.262-12.473-0.788-16.742 0.334-21.672z" fill="#2F2E41"/>
<path d="m285.15 36.088 0.148 0.2955c0.181 0.394 0.361 0.788 0.509 1.1984l0.016 0.0164c0.804 0.2955 1.706-0.1805 2.592-0.9357-0.138 1.7753-0.237 3.4932-0.31 5.1768l28.019-10.972c-4.873 0.8417-5.594-16.507-9.089-13.183-0.197 0.1806-0.377 0.3612-0.558 0.5418 0.436-1.0461 0.733-2.1442 0.886-3.2669 0.15-1.4092 0.039-2.8338-0.328-4.2026-6e-3 -0.0065-0.011-0.0143-0.013-0.0228-3e-3 -0.0086-4e-3 -0.0176-3e-3 -0.0265-0.349-1.2378-0.892-2.4125-1.608-3.4804-1.032-1.5531-2.339-2.9049-3.855-3.9892-1.935-1.4795-4.191-2.4824-6.585-2.9273-2.394-0.44492-4.859-0.31944-7.196 0.3663-5.352 2.0261-9.776 5.9452-12.435 11.015-2.215 3.9894-3.904 8.471-3.56 13.018 0.1 1.2053 0.36 2.3922 0.771 3.5295 0.512 1.5973 1.385 3.0549 2.552 4.2594 1.166 1.2045 2.595 2.1233 4.174 2.6849 0.394 0.1313 0.853 0.2791 1.346 0.4596 0.262-2.1361 0.279-4.2954 0.049-6.4353 1.824 2.059 3.333 4.3771 4.478 6.8786z" fill="#2F2E41"/>
<path d="m312.28 29.752c-0.036 0.9157-0.146 1.827-0.328 2.7251-0.014 0.1163-0.036 0.2316-0.066 0.3448-1.148 5.1056-7.366-5.5159-12.172-1.9535-3.708 2.7415-5.759 3.3161-9.843 4.9249-0.148-0.4104-1.461 0.394-1.641 0-0.049-0.0985 0.049-1.5432 0-1.6416 3.986-1.5926 4.643-2.2984 8.203-4.925 4.511-3.3326 3.871-0.2134 4.921-4.925 1.214-5.4339 8.367-3.1028 4.692-5.6802l0.427-0.591c2.609 1.8033 4.534 4.4352 5.463 7.4696-1e-3 0.0089 0 0.0179 2e-3 0.0265 3e-3 0.0085 8e-3 0.0163 0.014 0.0228 0.275 1.383 0.385 2.7937 0.328 4.2026z" fill="#9AB522"/>
<path d="m941.38 525.6h-30.617l-13.925-72.206c-0.212-1.098-0.179-2.228 0.097-3.312 0.276-1.083 0.788-2.091 1.499-2.953 0.712-0.863 1.604-1.557 2.615-2.033 1.01-0.477 2.114-0.724 3.231-0.724h43.583c1.117 0 2.22 0.247 3.231 0.724 1.01 0.476 1.903 1.17 2.614 2.033 0.711 0.862 1.223 1.87 1.499 2.953 0.276 1.084 0.31 2.214 0.098 3.312l-13.925 72.206z" fill="#F2F2F2"/>
<path d="m756.61 526.08c-0.2 0.09-30.817 0.09-30.617 0.178-11.002-18.236-15.267-33.649-16.678-44.929-0.31-2.583-0.07-5.203 0.704-7.686 0.775-2.484 2.065-4.775 3.787-6.724 1.723-1.949 3.837-3.511 6.206-4.584 2.368-1.072 4.937-1.631 7.537-1.639l27.713-0.162c2.424-0.017 4.827 0.445 7.073 1.358 2.245 0.913 4.289 2.26 6.014 3.963 1.726 1.704 3.098 3.731 4.04 5.966s1.435 4.634 1.45 7.059c0.062 13.709-3.002 32.503-17.229 47.2z" fill="#F2F2F2"/>
<path d="m740.79 462.87c1.499-12.173 0.894-24.514-1.787-36.483-0.448-2.009-3.531-1.159-3.083 0.85 2.596 11.694 3.162 23.748 1.673 35.633-0.253 2.038 2.946 2.02 3.197 0z" fill="#F2F2F2"/>
<path d="m745.07 463.66c0.72-10.151 3.257-20.091 7.489-29.344 0.851-1.859-1.904-3.486-2.761-1.615-4.48 9.759-7.164 20.246-7.925 30.959-0.146 2.054 3.052 2.045 3.197 0z" fill="#F2F2F2"/>
<path d="m736.13 463.34c-0.928-11.366-4.18-22.42-9.555-32.476-0.971-1.816-3.732-0.202-2.761 1.615 5.116 9.555 8.22 20.059 9.119 30.861 0.169 2.038 3.367 2.056 3.197 0z" fill="#F2F2F2"/>
<path d="m725.43 429.8c-1.823-0.666-2.029-3.45-2.454-5.05-0.291-1.228-0.76-2.407-1.393-3.499-0.726-1.089-1.555-2.105-2.474-3.035-0.754-0.691-1.365-1.521-1.801-2.446-0.134-0.354-0.171-0.737-0.107-1.111 0.06-0.161 0.105-0.327 0.133-0.496l0.024-0.055c0.1-0.195-0.051-0.166-0.455 0.086 0 0.024 0.773 0.452 0.854 0.514 2.208 1.728 3.896 4.033 4.88 6.66 0.983 2.627 1.223 5.475 0.694 8.23-0.414 2.009 2.667 2.869 3.083 0.85 0.696-3.435 0.403-6.997-0.843-10.272-1.247-3.276-3.397-6.13-6.2-8.231-0.725-0.599-1.637-0.925-2.576-0.919-0.563 0.061-1.096 0.287-1.531 0.648-0.436 0.362-0.756 0.844-0.92 1.386-0.273 0.733-0.388 1.516-0.339 2.297 0.05 0.781 0.263 1.543 0.626 2.236 1.329 2.649 4.079 4.169 4.998 7.085 1.021 3.236 1.299 6.873 4.952 8.206 0.408 0.109 0.843 0.053 1.211-0.156s0.639-0.554 0.755-0.961c0.104-0.409 0.046-0.842-0.163-1.209-0.208-0.366-0.55-0.638-0.954-0.758z" fill="#F2F2F2"/>
<path d="m738.25 425.52c-1.896-0.688-2.079-3.26-2.59-4.917-0.943-2.473-2.349-4.743-4.144-6.687-0.724-0.782-1.239-1.734-1.5-2.768-0.029-0.199-0.034-0.4-0.015-0.6 0.02-0.192 0.18-0.489 0.153-0.664l0.024-0.055c0.1-0.195-0.052-0.167-0.456 0.086 0.093 0.034 0.184 0.075 0.272 0.121 0.241 0.206 0.546 0.36 0.798 0.561 2.028 1.633 3.595 3.768 4.545 6.193 1.088 2.705 1.37 5.667 0.813 8.529-0.413 2.009 2.668 2.869 3.083 0.85 0.681-3.355 0.418-6.834-0.758-10.049-1.177-3.215-3.22-6.041-5.905-8.164-0.648-0.57-1.426-0.971-2.266-1.167-0.56-0.098-1.137-0.019-1.651 0.227-0.513 0.245-0.937 0.645-1.212 1.144-0.38 0.721-0.598 1.516-0.64 2.33-0.041 0.814 0.094 1.627 0.398 2.383 1.13 2.905 3.928 4.75 5.057 7.638 0.598 1.53 0.846 3.167 1.497 4.679 0.329 0.797 0.825 1.514 1.454 2.103s1.377 1.037 2.193 1.312c1.938 0.704 2.772-2.387 0.85-3.085z" fill="#F2F2F2"/>
<path d="m752.47 432.78c-1.233-2.283 0.492-4.992 1.209-7.181 0.771-2.358 0.655-4.822 1.206-7.213 0.151-0.974 0.644-1.863 1.39-2.507 0.202-0.154 0.846-0.328 0.339-0.4-0.371-0.053-0.191 0.01-0.091 0.367 0.147 0.544 0.247 1.101 0.3 1.662 0.243 2.469-0.107 4.96-1.019 7.267-0.974 2.512-2.617 4.709-4.749 6.354-0.357 0.223-0.614 0.573-0.721 0.98-0.106 0.407-0.054 0.839 0.147 1.208 0.216 0.364 0.567 0.629 0.976 0.736 0.409 0.108 0.844 0.049 1.211-0.162 2.587-1.943 4.62-4.53 5.898-7.503s1.756-6.23 1.387-9.445c-0.206-1.609-0.502-3.759-2.267-4.39-1.727-0.618-3.481 0.635-4.505 1.956-1.912 2.465-1.557 5.678-2.139 8.572-0.78 3.88-3.47 7.358-1.332 11.314 0.979 1.812 3.74 0.198 2.76-1.615z" fill="#F2F2F2"/>
<path d="m738.94 414.26c-1.325-2.432-0.019-5.16 0.641-7.599 0.404-2.418 0.944-4.811 1.619-7.167 0.317-0.886 0.894-1.655 1.655-2.208 0.152-0.097 0.311-0.183 0.475-0.257-0.017-0.108-0.485-0.068-0.469-0.104 0.045 0.225 0.109 0.446 0.194 0.66 0.128 0.555 0.216 1.119 0.263 1.686 0.188 2.377-0.17 4.766-1.045 6.983-0.974 2.512-2.616 4.709-4.749 6.354-0.356 0.223-0.614 0.574-0.72 0.98-0.107 0.407-0.054 0.839 0.147 1.208 0.216 0.365 0.566 0.629 0.975 0.736 0.41 0.108 0.845 0.05 1.212-0.162 2.568-1.927 4.592-4.49 5.872-7.437 1.281-2.946 1.773-6.175 1.43-9.37-0.186-1.526-0.412-3.523-1.902-4.37-1.634-0.927-3.51 0.233-4.636 1.44-2.165 2.321-2.42 5.553-3.013 8.516-0.798 3.981-2.854 7.792-0.71 11.725 0.986 1.808 3.748 0.196 2.761-1.614z" fill="#F2F2F2"/>
<path d="m748.5 444.82c1.148-1.87 3.478-2.058 5.451-2.41 1.235-0.2 2.449-0.512 3.628-0.932 1.279-0.478 2.51-1.08 3.802-1.526 1.078-0.482 2.287-0.589 3.433-0.303 0.065 0.022 0.787 0.42 0.815 0.405 0.103-0.055-0.175-0.421-0.151-0.421-0.015 0-0.127 0.165-0.151 0.182-0.488 0.336-0.894 0.823-1.381 1.175-1.997 1.434-4.306 2.37-6.737 2.732-2.692 0.42-5.448 0.09-7.965-0.956-0.369-0.2-0.801-0.252-1.207-0.146-0.406 0.107-0.757 0.364-0.98 0.72-0.211 0.367-0.269 0.803-0.162 1.212 0.107 0.41 0.372 0.761 0.735 0.977 3.05 1.315 6.396 1.787 9.691 1.368 3.294-0.419 6.415-1.714 9.039-3.751 1.303-1.026 2.747-2.395 2.2-4.223-0.508-1.694-2.623-2.443-4.201-2.611-3.442-0.367-6.471 1.966-9.711 2.708-3.382 0.775-6.896 0.909-8.909 4.185-1.08 1.759 1.684 3.368 2.761 1.615z" fill="#F2F2F2"/>
<path d="m740.1 425.36c-1.244-2.897-1.384-6.149-0.393-9.142s3.044-5.519 5.77-7.099c0.124-0.071 0.248-0.14 0.375-0.207 0.234-0.04 0.27-0.094 0.107-0.163 0.26-0.881-0.102-0.19-0.198 0.034-0.29 0.677-0.585 1.352-0.883 2.025-0.666 1.504-1.351 3-2.052 4.487-1.447 3.068-2.959 6.107-4.614 9.067-1.006 1.799 1.754 3.414 2.76 1.615 1.603-2.867 3.071-5.807 4.476-8.775 0.688-1.452 1.358-2.912 2.013-4.379 0.287-0.645 0.57-1.291 0.851-1.938 0.392-0.692 0.659-1.448 0.787-2.233 0-0.427-0.091-0.85-0.265-1.24-0.175-0.391-0.429-0.74-0.748-1.025-0.318-0.286-0.693-0.501-1.1-0.632-0.406-0.131-0.836-0.175-1.261-0.129-1.573 0.409-3.013 1.221-4.177 2.356-2.353 1.967-4.092 4.569-5.008 7.497-1.138 3.802-0.854 7.888 0.8 11.496 0.216 0.364 0.566 0.628 0.976 0.736 0.409 0.107 0.844 0.049 1.211-0.163 0.358-0.221 0.617-0.571 0.724-0.979 0.107-0.407 0.053-0.84-0.151-1.209z" fill="#F2F2F2"/>
<path d="m728.67 441.04c-2.295 1.03-5.096-0.936-7.153-1.78-2.299-0.944-4.758-1.036-7.101-1.788-0.882-0.239-1.653-0.778-2.182-1.523-0.072-0.151-0.156-0.297-0.251-0.435 0.081 0.02-0.344 0.283-0.161 0.246 0.164-0.034 0.327-0.074 0.492-0.103 0.593-0.096 1.193-0.144 1.793-0.146 2.565-0.036 5.097 0.574 7.364 1.774 2.267 1.201 4.195 2.952 5.609 5.094 1.109 1.726 3.877 0.124 2.76-1.615-1.764-2.719-4.21-4.928-7.093-6.407-2.883-1.478-6.104-2.174-9.34-2.018-1.602 0.103-3.563 0.281-4.386 1.883-0.84 1.637 0.385 3.639 1.605 4.729 2.342 2.091 5.576 1.979 8.428 2.815 1.902 0.558 3.615 1.595 5.487 2.238 1.865 0.695 3.93 0.622 5.743-0.202 0.364-0.216 0.628-0.567 0.735-0.977 0.107-0.409 0.049-0.845-0.162-1.212-0.221-0.358-0.571-0.618-0.978-0.725-0.408-0.107-0.841-0.052-1.209 0.152z" fill="#F2F2F2"/>
<path d="m1121.5 525.43c-0.2 0.09-30.81 0.09-30.61 0.179-11.01-18.236-15.27-33.65-16.68-44.93-0.31-2.583-0.07-5.202 0.7-7.686 0.78-2.484 2.07-4.775 3.79-6.724s3.84-3.511 6.2-4.583c2.37-1.073 4.94-1.632 7.54-1.64l27.71-0.162c2.43-0.017 4.83 0.445 7.08 1.358 2.24 0.913 4.29 2.26 6.01 3.964 1.73 1.703 3.1 3.731 4.04 5.966 0.94 2.234 1.44 4.633 1.45 7.059 0.06 13.709-3 32.502-17.23 47.199z" fill="#F2F2F2"/>
<path d="m1105.7 462.22c1.5-12.174 0.9-24.515-1.79-36.484-0.44-2.008-3.53-1.158-3.08 0.851 2.6 11.694 3.16 23.747 1.67 35.633-0.25 2.038 2.95 2.019 3.2 0z" fill="#F2F2F2"/>
<path d="m1109.9 463.02c0.72-10.151 3.26-20.09 7.49-29.344 0.85-1.858-1.9-3.486-2.76-1.615-4.48 9.759-7.16 20.247-7.92 30.959-0.15 2.054 3.05 2.045 3.19 0z" fill="#F2F2F2"/>
<path d="m1101 462.69c-0.93-11.367-4.18-22.421-9.56-32.477-0.97-1.816-3.73-0.202-2.76 1.615 5.12 9.555 8.22 20.059 9.12 30.862 0.17 2.037 3.37 2.055 3.2 0z" fill="#F2F2F2"/>
<path d="m1090.3 429.15c-1.82-0.666-2.03-3.449-2.45-5.049-0.3-1.229-0.76-2.408-1.4-3.5-0.72-1.089-1.55-2.105-2.47-3.035-0.76-0.69-1.37-1.521-1.8-2.445-0.14-0.355-0.17-0.738-0.11-1.111 0.06-0.161 0.1-0.327 0.13-0.497l0.03-0.055c0.1-0.195-0.05-0.166-0.46 0.086 0 0.024 0.77 0.453 0.86 0.514 2.2 1.729 3.89 4.033 4.88 6.661 0.98 2.627 1.22 5.474 0.69 8.229-0.41 2.01 2.67 2.869 3.08 0.851 0.7-3.435 0.41-6.998-0.84-10.273s-3.4-6.129-6.2-8.231c-0.72-0.599-1.64-0.924-2.58-0.918-0.56 0.061-1.09 0.286-1.53 0.648-0.43 0.361-0.75 0.843-0.92 1.385-0.27 0.734-0.39 1.516-0.34 2.297s0.27 1.543 0.63 2.236c1.33 2.649 4.08 4.169 5 7.085 1.02 3.236 1.3 6.874 4.95 8.207 0.41 0.109 0.84 0.053 1.21-0.156s0.64-0.555 0.76-0.962c0.1-0.408 0.04-0.842-0.17-1.208-0.2-0.367-0.55-0.639-0.95-0.759z" fill="#F2F2F2"/>
<path d="m1103.1 424.88c-1.9-0.688-2.08-3.261-2.59-4.917-0.95-2.473-2.35-4.743-4.15-6.687-0.72-0.783-1.24-1.735-1.5-2.769-0.03-0.198-0.03-0.4-0.01-0.6 0.02-0.192 0.18-0.489 0.15-0.664l0.02-0.055c0.1-0.195-0.05-0.166-0.45 0.086 0.09 0.034 0.18 0.075 0.27 0.121 0.24 0.206 0.55 0.36 0.8 0.561 2.03 1.633 3.59 3.768 4.54 6.193 1.09 2.705 1.37 5.667 0.82 8.529-0.42 2.009 2.66 2.869 3.08 0.851 0.68-3.356 0.42-6.835-0.76-10.05s-3.22-6.041-5.9-8.164c-0.65-0.57-1.43-0.971-2.27-1.167-0.56-0.098-1.14-0.019-1.65 0.227s-0.94 0.645-1.21 1.144c-0.38 0.721-0.6 1.516-0.64 2.33s0.09 1.627 0.39 2.383c1.14 2.905 3.93 4.75 5.06 7.639 0.6 1.529 0.85 3.167 1.5 4.679 0.33 0.796 0.82 1.513 1.45 2.103 0.63 0.589 1.38 1.036 2.2 1.312 1.93 0.703 2.77-2.388 0.85-3.085z" fill="#F2F2F2"/>
<path d="m1117.3 432.14c-1.23-2.283 0.49-4.992 1.21-7.182 0.77-2.357 0.65-4.822 1.21-7.213 0.15-0.974 0.64-1.863 1.38-2.507 0.21-0.154 0.85-0.328 0.34-0.4-0.37-0.053-0.19 0.011-0.09 0.367 0.15 0.545 0.25 1.101 0.3 1.663 0.25 2.469-0.1 4.96-1.02 7.266-0.97 2.512-2.61 4.709-4.75 6.354-0.35 0.223-0.61 0.574-0.72 0.98-0.1 0.407-0.05 0.839 0.15 1.208 0.22 0.365 0.57 0.629 0.98 0.736 0.41 0.108 0.84 0.05 1.21-0.162 2.58-1.943 4.62-4.53 5.9-7.503 1.27-2.973 1.75-6.229 1.38-9.445-0.2-1.609-0.5-3.759-2.26-4.39-1.73-0.617-3.48 0.635-4.51 1.956-1.91 2.465-1.56 5.678-2.14 8.572-0.78 3.88-3.47 7.358-1.33 11.314 0.98 1.812 3.74 0.199 2.76-1.614z" fill="#F2F2F2"/>
<path d="m1103.8 413.61c-1.32-2.432-0.02-5.16 0.64-7.599 0.41-2.418 0.95-4.81 1.62-7.167 0.32-0.885 0.9-1.655 1.66-2.208 0.15-0.096 0.31-0.182 0.47-0.257-0.01-0.108-0.48-0.068-0.47-0.104 0.05 0.226 0.11 0.447 0.2 0.66 0.13 0.555 0.21 1.119 0.26 1.687 0.19 2.376-0.17 4.765-1.04 6.982-0.98 2.512-2.62 4.709-4.75 6.354-0.36 0.223-0.62 0.574-0.72 0.981-0.11 0.406-0.06 0.838 0.14 1.208 0.22 0.364 0.57 0.628 0.98 0.736 0.41 0.107 0.84 0.049 1.21-0.162 2.57-1.928 4.59-4.491 5.87-7.437 1.28-2.947 1.78-6.176 1.43-9.37-0.18-1.526-0.41-3.524-1.9-4.37-1.63-0.928-3.51 0.232-4.64 1.44-2.16 2.321-2.42 5.552-3.01 8.515-0.8 3.981-2.85 7.792-0.71 11.726 0.99 1.808 3.75 0.195 2.76-1.615z" fill="#F2F2F2"/>
<path d="m1113.4 444.17c1.15-1.87 3.48-2.058 5.45-2.41 1.23-0.2 2.45-0.512 3.63-0.932 1.28-0.478 2.51-1.08 3.8-1.525 1.08-0.483 2.29-0.59 3.43-0.304 0.07 0.023 0.79 0.42 0.82 0.405 0.1-0.055-0.18-0.421-0.15-0.421-0.02 0-0.13 0.165-0.16 0.182-0.48 0.336-0.89 0.823-1.38 1.176-1.99 1.433-4.3 2.369-6.73 2.731-2.7 0.421-5.45 0.09-7.97-0.956-0.37-0.2-0.8-0.252-1.21-0.146-0.4 0.107-0.75 0.364-0.98 0.72-0.21 0.367-0.27 0.803-0.16 1.212 0.11 0.41 0.37 0.761 0.74 0.977 3.05 1.315 6.39 1.787 9.69 1.368 3.29-0.419 6.41-1.714 9.04-3.751 1.3-1.026 2.74-2.395 2.2-4.223-0.51-1.694-2.63-2.442-4.2-2.611-3.45-0.367-6.47 1.966-9.71 2.708-3.39 0.775-6.9 0.909-8.91 4.185-1.08 1.759 1.68 3.368 2.76 1.615z" fill="#F2F2F2"/>
<path d="m1105 424.71c-1.24-2.896-1.38-6.149-0.39-9.142s3.04-5.518 5.77-7.098c0.12-0.072 0.25-0.141 0.37-0.207 0.24-0.04 0.27-0.095 0.11-0.164 0.26-0.88-0.1-0.19-0.2 0.034-0.29 0.677-0.58 1.352-0.88 2.025-0.67 1.504-1.35 3-2.05 4.488-1.45 3.067-2.96 6.106-4.62 9.066-1 1.799 1.76 3.414 2.76 1.615 1.61-2.867 3.08-5.807 4.48-8.775 0.69-1.452 1.36-2.912 2.01-4.379 0.29-0.644 0.57-1.29 0.85-1.938 0.4-0.692 0.66-1.447 0.79-2.232 0-0.428-0.09-0.851-0.26-1.241-0.18-0.391-0.43-0.74-0.75-1.025-0.32-0.286-0.69-0.501-1.1-0.632s-0.84-0.174-1.26-0.128c-1.58 0.408-3.02 1.22-4.18 2.356-2.35 1.966-4.09 4.569-5.01 7.497-1.14 3.801-0.85 7.888 0.8 11.495 0.22 0.364 0.57 0.628 0.98 0.736 0.41 0.107 0.84 0.049 1.21-0.162 0.36-0.221 0.62-0.572 0.72-0.98 0.11-0.407 0.06-0.84-0.15-1.209z" fill="#F2F2F2"/>
<path d="m1093.5 440.4c-2.3 1.031-5.1-0.936-7.15-1.78-2.3-0.944-4.76-1.036-7.11-1.787-0.88-0.24-1.65-0.779-2.18-1.524-0.07-0.151-0.15-0.296-0.25-0.434 0.08 0.019-0.34 0.283-0.16 0.245 0.16-0.034 0.33-0.074 0.49-0.103 0.6-0.095 1.19-0.144 1.8-0.146 2.56-0.036 5.09 0.575 7.36 1.775s4.19 2.951 5.61 5.093c1.11 1.726 3.88 0.124 2.76-1.615-1.77-2.719-4.21-4.928-7.09-6.406-2.89-1.478-6.11-2.174-9.34-2.018-1.61 0.102-3.57 0.28-4.39 1.882-0.84 1.637 0.38 3.64 1.6 4.729 2.35 2.091 5.58 1.979 8.43 2.816 1.9 0.558 3.62 1.594 5.49 2.237 1.86 0.695 3.93 0.622 5.74-0.202 0.37-0.216 0.63-0.567 0.74-0.976 0.1-0.41 0.05-0.845-0.16-1.212-0.23-0.359-0.58-0.619-0.98-0.726-0.41-0.107-0.84-0.052-1.21 0.152z" fill="#F2F2F2"/>
<path d="m924.54 449.38c8.533-28.294 6.202-58.757-6.535-85.422-0.884-1.857-3.641-0.236-2.76 1.615 9.46 20.057 12.999 42.4 10.201 64.401-0.811 6.286-2.145 12.492-3.989 18.556-0.096 0.403-0.031 0.828 0.18 1.185s0.552 0.618 0.952 0.728c0.399 0.11 0.826 0.061 1.19-0.137s0.637-0.53 0.761-0.926z" fill="#F2F2F2"/>
<path d="m929.55 413.6 22.929-30.297-2.978-0.807c0.411 10.31-1.14 20.605-4.569 30.335-2.966 8.382-8.086 19.315-18.392 19.652-2.052 0.067-2.061 3.267 0 3.199 10.966-0.358 17.004-10.437 20.564-19.556 4.148-10.708 6.052-22.155 5.594-33.63-0.012-0.346-0.134-0.678-0.348-0.949-0.214-0.272-0.51-0.467-0.843-0.557-0.334-0.09-0.688-0.071-1.009 0.054-0.322 0.126-0.595 0.352-0.779 0.645l-22.93 30.296c-1.242 1.641 1.533 3.237 2.761 1.615z" fill="#F2F2F2"/>
<path d="m928.37 400.58-13.584-19.898c-0.166-0.262-0.403-0.472-0.683-0.604-0.281-0.131-0.593-0.18-0.9-0.14-0.308 0.04-0.597 0.168-0.834 0.367-0.237 0.2-0.413 0.463-0.505 0.759-2.853 7.482-2.957 15.735-0.294 23.286 2.663 7.552 7.921 13.911 14.835 17.944 0.365 0.197 0.792 0.244 1.191 0.132 0.4-0.112 0.74-0.375 0.949-0.733 0.209-0.359 0.272-0.784 0.173-1.188-0.098-0.403-0.349-0.752-0.7-0.974-6.305-3.678-11.089-9.491-13.486-16.39-2.397-6.898-2.25-14.427 0.415-21.226l-2.922 0.382 13.584 19.898c1.154 1.69 3.926 0.091 2.761-1.615z" fill="#F2F2F2"/>
<path d="m916.4 362.86c-3.143-0.155-6.412-0.348-9.043-2.274-0.994-0.735-1.841-1.651-2.497-2.7-0.323-0.503-0.598-1.034-0.823-1.587-0.235-0.529-0.377-1.095-0.42-1.673 0 0.154 0.153-0.123 6e-3 -2e-3l-0.229 0.183c-0.083 0.111-0.203 0.188-0.339 0.215-0.135 0.028-0.277 5e-3 -0.396-0.064-0.25 0.031-0.077-0.387-0.123 0.357-0.138 0.798-0.141 1.613-9e-3 2.412 0.091 0.388 0.262 0.752 0.501 1.07 0.24 0.318 0.543 0.582 0.891 0.776s0.732 0.313 1.128 0.35 0.796-9e-3 1.173-0.136c0.535-0.2 1.053-0.444 1.548-0.729l0.144-0.073c0.176-0.084 0.191-0.09 0.044-0.02 0.122-0.206 0.191 0.199-0.012-0.033l0.135-2e-3 -0.163-0.01c-0.089-0.017-0.172-0.054-0.245-0.108-0.072-0.054-0.132-0.123-0.174-0.204-0.051-0.159-0.059-0.182-0.025-0.07 0.051 0.071 0.053 0.389 0.027 0.08 9e-3 0.103 9e-3 0.208 0.01 0.312 2e-3 0.267-0.016 0.534-0.016 0.8-0.033 0.664 0.112 1.325 0.42 1.914 0.242 0.398 0.589 0.722 1.001 0.938 0.413 0.216 0.876 0.315 1.341 0.288 1.044-0.048 1.635-0.777 2.516-1.174 0.195-0.099 0.417-0.131 0.632-0.089 0.214 0.041 0.409 0.153 0.554 0.317 0.114 0.146 0.186 0.32 0.209 0.504 0.022 0.184-6e-3 0.371-0.082 0.54-0.204 0.369-0.258 0.802-0.151 1.209s0.366 0.758 0.724 0.98c0.367 0.21 0.802 0.267 1.211 0.16s0.759-0.371 0.976-0.734c0.357-0.638 0.539-1.359 0.529-2.09-0.011-0.731-0.214-1.446-0.589-2.073s-0.909-1.144-1.548-1.499c-0.639-0.354-1.359-0.534-2.09-0.521-0.487 7e-3 -0.969 0.101-1.423 0.278-0.56 0.182-1.074 0.481-1.509 0.878-0.566 0.704-0.175-0.017-0.151 0.128-3e-3 -0.016 0.568 0.317 0.61 0.346l0.056 0.145c-0.041-0.179-0.048-0.174-0.022 0.013-2e-3 -0.152-0.017-0.304-0.017-0.458 0.054-0.707 2e-3 -1.418-0.155-2.109-0.132-0.442-0.376-0.842-0.709-1.161s-0.743-0.545-1.19-0.658c-0.859-0.138-1.74 0.037-2.481 0.493-0.283 0.166-0.575 0.317-0.875 0.452 0.263-0.1-0.087 0.032-0.128 0.017-0.196-0.076 0.187-6e-3 0.207 3e-3 0.11 0.049 0.287 0.284 0.304 0.287-0.07-0.014-0.066-0.262-0.069-0.307-0.037-0.561 0.151-1.119 0.151-1.68 0.02-0.531-0.09-1.059-0.319-1.539-0.229-0.479-0.572-0.895-0.997-1.213-0.457-0.336-1.014-0.505-1.58-0.479-0.565 0.026-1.105 0.246-1.528 0.622-1.449 1.333-0.857 3.512-0.209 5.081 0.721 1.785 1.829 3.389 3.243 4.695 1.415 1.306 3.101 2.281 4.938 2.857 2.317 0.628 4.706 0.953 7.107 0.968 0.424 0 0.83-0.168 1.13-0.468s0.468-0.707 0.468-1.131c0-0.425-0.168-0.832-0.468-1.132s-0.706-0.468-1.13-0.468z" fill="#F2F2F2"/>
<path d="m917.76 364.43c0.296-2.992 0.638-6.177 2.538-8.633 0.828-1.058 1.858-1.942 3.031-2.599 0.535-0.306 1.1-0.558 1.686-0.75 0.328-0.107 0.66-0.18 0.992-0.271 0.588-0.162-0.111-0.018 0.189-0.041 0.085-8e-3 0.171-0.011 0.257-9e-3 0.201 0.012 0.227 0.011 0.076-3e-3 0.233-0.135 0.159 0.144 0.056 3e-3l-0.095-0.07c-0.118-0.111-0.197-0.256-0.228-0.415-0.03-0.159-0.01-0.323 0.057-0.47-0.018-0.204 0.338-0.046-0.18-0.127-0.838-0.2-1.704-0.25-2.56-0.146-0.396 0.07-0.773 0.223-1.106 0.448-0.333 0.226-0.615 0.52-0.827 0.862s-0.349 0.725-0.403 1.124-0.023 0.805 0.091 1.191c0.2 0.574 0.438 1.134 0.711 1.677-0.104-0.255 6e-3 0.042 0.026 0.108 0.058 0.196-0.043 0.272 0.022 0.044 0.015-0.106 0.046-0.21 0.092-0.307 0.05-0.079 0.118-0.146 0.198-0.195 0.186-0.068 0.19-0.076 0.012-0.023 0.024-0.04 0.376 5e-3 4e-3 -0.01-0.151-6e-3 -0.302-1e-3 -0.453-0.01-0.231-0.012-0.462-0.037-0.694-0.049-0.671-0.063-1.347 0.066-1.947 0.373-0.454 0.27-0.812 0.674-1.028 1.156-0.215 0.483-0.276 1.019-0.175 1.538 0.273 0.759 0.62 1.49 1.035 2.182 0.062 0.19 0.064 0.394 6e-3 0.586-0.058 0.191-0.173 0.36-0.33 0.484-0.156 0.124-0.347 0.197-0.547 0.209-0.199 0.013-0.397-0.036-0.568-0.14-1.798-1.006-3.412 1.756-1.614 2.762 0.646 0.389 1.385 0.594 2.138 0.594 0.754 0 1.493-0.205 2.138-0.594 0.646-0.388 1.174-0.945 1.527-1.611 0.354-0.665 0.519-1.415 0.479-2.168-0.14-0.976-0.5-1.908-1.051-2.726 0 0-0.171-0.272-0.104-0.25 0.415 0.133-0.208 0.653-0.293 0.741l-0.151 0.066c0.178-0.039 0.168-0.041-0.029-7e-3 0.147-7e-3 0.292-6e-3 0.439 0 0.731 0.099 1.475 0.073 2.198-0.076 0.436-0.126 0.833-0.362 1.153-0.685 0.32-0.322 0.553-0.721 0.676-1.159 0.159-0.891-6e-3 -1.81-0.464-2.591-0.05-0.108-0.306-0.697-0.229-0.482-9e-3 -0.027-0.133-0.429-0.128-0.429 0.16-2e-3 -0.168 0.55 0.024 0.16 0.224-0.453-0.218 0.474-0.249 0.351-0.013-0.05 0.298-0.033 0.312-0.032 0.559 0.013 1.107 0.212 1.669 0.233 0.546 0.039 1.092-0.061 1.588-0.291s0.925-0.583 1.247-1.024c0.332-0.468 0.49-1.036 0.449-1.607-0.04-0.572-0.278-1.111-0.673-1.527-1.304-1.333-3.429-0.864-4.974-0.297-1.747 0.634-3.346 1.621-4.695 2.901-1.481 1.432-2.606 3.192-3.284 5.139-0.691 2.238-1.105 4.553-1.234 6.892 3e-3 0.423 0.173 0.828 0.472 1.128 0.299 0.299 0.704 0.468 1.127 0.471 0.421-9e-3 0.823-0.18 1.12-0.478 0.298-0.298 0.47-0.7 0.478-1.121z" fill="#F2F2F2"/>
<path d="m917.62 361.08c-1.356-2.555-2.979-4.959-4.841-7.172-0.436-0.521-0.886-1.03-1.35-1.527-0.429-0.397-0.825-0.828-1.183-1.289-0.068-0.114-0.053-0.175-0.091-0.2-0.029-0.111-0.03-0.119-5e-3 -0.022 0.025 0.063 0.026 0.134 4e-3 0.199 0.02 0.127-0.127 0.101 0.014-0.021-0.253 0.218-0.45 0.423-0.849 0.301-0.149-0.046-0.248-0.208-0.363-0.269-0.112-0.059 0.031-0.05 0 0.039-0.061 0.184-0.226 0.601-0.326 0.845l3.083 0.85c0.041-0.197 0.187-0.395-3e-3 -0.166 0.07-0.084 0.147-0.161 0.23-0.233-0.103 0.086-0.075 0.076 0.084-0.031-0.222 0.082 0.236-0.07 0.242-0.071-0.309 0.065 0.423 0.064 0.155 8e-3 0.289 0.077 0.555 0.223 0.775 0.425s0.387 0.454 0.489 0.736c0.327 0.869 0.469 1.797 0.416 2.725 6e-3 1.06-0.103 2.118-0.325 3.155-0.103 0.408-0.044 0.841 0.164 1.208 0.208 0.366 0.549 0.638 0.952 0.759 0.409 0.109 0.844 0.053 1.211-0.156 0.368-0.209 0.639-0.554 0.756-0.961 0.639-2.983 0.944-6.846-1.104-9.369-0.441-0.566-1.013-1.016-1.666-1.313-0.653-0.296-1.368-0.43-2.084-0.39-0.788 0.056-1.538 0.359-2.143 0.866-0.606 0.507-1.037 1.192-1.232 1.958-0.113 0.409-0.058 0.846 0.151 1.215s0.557 0.64 0.966 0.752c0.408 0.113 0.845 0.059 1.214-0.151 0.369-0.209 0.639-0.557 0.752-0.966 0.268-0.517 0.408-1.091 0.408-1.674 1e-3 -0.583-0.138-1.157-0.405-1.675-0.277-0.479-0.703-0.854-1.213-1.07-0.509-0.215-1.075-0.258-1.611-0.123-0.535 0.178-1.003 0.513-1.344 0.963-0.34 0.449-0.537 0.991-0.564 1.554-4e-3 0.513 0.096 1.021 0.292 1.495 0.196 0.473 0.486 0.903 0.851 1.262 1.212 1.385 2.503 2.668 3.601 4.154 1.168 1.584 2.215 3.254 3.132 4.995 0.106 0.181 0.246 0.34 0.413 0.467 0.168 0.127 0.358 0.22 0.561 0.273s0.415 0.066 0.623 0.037c0.208-0.028 0.408-0.097 0.59-0.203 0.181-0.106 0.34-0.247 0.466-0.415 0.127-0.167 0.22-0.358 0.273-0.561 0.054-0.203 0.066-0.415 0.038-0.623-0.029-0.208-0.098-0.408-0.204-0.59z" fill="#F2F2F2"/>
<path d="m1197 524.27h-690.56v2.843h690.56v-2.843z" fill="#F2F2F2"/>
<path d="m636.09 400.27c0-2.786-3.244-5.045-7.246-5.045s-7.246 2.259-7.246 5.045c0 2.785 3.244 5.044 7.246 5.044s7.246-2.259 7.246-5.044z" fill="#F2F2F2"/>
<path d="m582.84 416.66c4.002 0 7.246-2.258 7.246-5.044s-3.244-5.044-7.246-5.044-7.246 2.258-7.246 5.044 3.244 5.044 7.246 5.044z" fill="#F2F2F2"/>
<path d="m647.12 441.25c4.002 0 7.246-2.258 7.246-5.044s-3.244-5.045-7.246-5.045-7.246 2.259-7.246 5.045 3.244 5.044 7.246 5.044z" fill="#F2F2F2"/>
<path d="m666.18 452.85c-0.354 0.035-0.712 3e-3 -1.054-0.094-0.773-0.363-1.435-0.926-1.915-1.633-0.481-0.706-0.762-1.529-0.816-2.381-0.209-0.891-0.143-1.823 0.19-2.675s0.917-1.582 1.675-2.093c0.206-0.106 0.429-0.176 0.659-0.207 1.751-0.245 3.446 1.602 3.785 4.108s-0.791 4.73-2.524 4.975z" fill="#F2F2F2"/>
<path d="m615.15 428.63c-1.744 0.24-2.877 2.467-2.531 4.974 0.345 2.508 2.038 4.345 3.781 4.105s2.876-2.467 2.53-4.975c-0.345-2.507-2.038-4.345-3.78-4.104z" fill="#F2F2F2"/>
<path d="m639.84 418.19c-0.346-2.507-2.038-4.345-3.781-4.105s-2.876 2.468-2.531 4.975 2.038 4.345 3.781 4.105c1.743-0.241 2.876-2.468 2.531-4.975z" fill="#F2F2F2"/>
<path d="m602.89 406.91c1.743-0.241 2.876-2.468 2.531-4.975s-2.038-4.345-3.781-4.105c-1.743 0.241-2.876 2.468-2.531 4.975 0.346 2.507 2.038 4.345 3.781 4.105z" fill="#F2F2F2"/>
<path d="m609.07 444.77c-0.014-1.911-2.252-3.444-4.997-3.422-2.745 0.021-4.959 1.587-4.944 3.498s2.252 3.443 4.997 3.422c2.746-0.021 4.959-1.587 4.944-3.498z" fill="#F2F2F2"/>
<path d="m572.63 456.3c2.746-0.021 4.959-1.587 4.944-3.498-0.014-1.911-2.252-3.443-4.997-3.422s-4.959 1.587-4.944 3.498 2.252 3.444 4.997 3.422z" fill="#F2F2F2"/>
<path d="m616.85 472.83c2.745-0.021 4.959-1.587 4.944-3.498-0.014-1.911-2.252-3.443-4.997-3.422s-4.959 1.587-4.944 3.498c0.014 1.911 2.252 3.444 4.997 3.422z" fill="#F2F2F2"/>
<path d="m629.99 480.69c-0.243 0.026-0.488 6e-3 -0.724-0.059-0.532-0.244-0.989-0.628-1.322-1.11-0.333-0.481-0.531-1.044-0.572-1.629-0.149-0.61-0.108-1.25 0.116-1.836s0.621-1.09 1.138-1.444c0.141-0.074 0.293-0.123 0.451-0.146 1.2-0.177 2.372 1.081 2.618 2.798 0.246 1.718-0.517 3.249-1.705 3.426z" fill="#F2F2F2"/>
<path d="m594.86 464.34c-1.194 0.174-1.96 1.708-1.71 3.426s1.421 2.97 2.615 2.796c1.195-0.174 1.96-1.708 1.71-3.426-0.25-1.719-1.421-2.97-2.615-2.796z" fill="#F2F2F2"/>
<path d="m611.74 457.05c-0.25-1.718-1.421-2.97-2.615-2.796-1.195 0.174-1.961 1.708-1.71 3.426 0.25 1.718 1.421 2.97 2.615 2.796s1.96-1.708 1.71-3.426z" fill="#F2F2F2"/>
<path d="m586.34 449.5c1.194-0.174 1.96-1.708 1.71-3.426s-1.421-2.97-2.616-2.796c-1.194 0.174-1.96 1.708-1.71 3.426s1.421 2.97 2.616 2.796z" fill="#F2F2F2"/>
<path d="m539.86 437.85c-0.021-2.785-3.283-5.019-7.285-4.988s-7.228 2.314-7.207 5.1c0.022 2.786 3.283 5.019 7.285 4.988 4.001-0.031 7.228-2.314 7.207-5.1z" fill="#F2F2F2"/>
<path d="m486.75 454.66c4.002-0.031 7.229-2.314 7.207-5.1-0.021-2.785-3.282-5.019-7.284-4.988s-7.229 2.314-7.207 5.1c0.021 2.786 3.282 5.019 7.284 4.988z" fill="#F2F2F2"/>
<path d="m551.2 478.75c4.002-0.031 7.229-2.314 7.207-5.1-0.021-2.786-3.283-5.019-7.284-4.988-4.002 0.031-7.229 2.314-7.207 5.1 0.021 2.785 3.282 5.019 7.284 4.988z" fill="#F2F2F2"/>
<path d="m570.36 490.2c-0.354 0.038-0.712 8e-3 -1.056-0.086-0.776-0.357-1.441-0.915-1.927-1.618-0.486-0.702-0.774-1.523-0.834-2.375-0.216-0.889-0.157-1.822 0.169-2.676 0.327-0.854 0.905-1.589 1.659-2.106 0.206-0.107 0.428-0.179 0.657-0.212 1.75-0.259 3.459 1.575 3.817 4.079 0.358 2.503-0.755 4.736-2.485 4.994z" fill="#F2F2F2"/>
<path d="m519.14 466.38c-1.741 0.253-2.857 2.489-2.493 4.994 0.365 2.505 2.071 4.329 3.812 4.075 1.742-0.253 2.858-2.489 2.493-4.994-0.364-2.504-2.071-4.329-3.812-4.075z" fill="#F2F2F2"/>
<path d="m543.75 455.74c-0.365-2.504-2.071-4.329-3.812-4.075-1.742 0.254-2.858 2.49-2.493 4.994 0.364 2.505 2.071 4.329 3.812 4.076 1.741-0.254 2.857-2.49 2.493-4.995z" fill="#F2F2F2"/>
<path d="m506.72 444.75c1.742-0.254 2.857-2.49 2.493-4.994-0.364-2.505-2.071-4.33-3.812-4.076-1.742 0.254-2.857 2.49-2.493 4.994 0.364 2.505 2.071 4.33 3.812 4.076z" fill="#F2F2F2"/>
<path d="m584.66 426.29c0 20.295-47.989-15.953-88.971 12.575-50.009 34.812-91.819 9.972-91.813-12.575 6e-3 -20.295 41.891-60.919 91.813-60.919s88.971 40.624 88.971 60.919z" fill="#F2F2F2"/>
<path d="m540.89 403.11c0 10.148-20.235 9.843-45.196 9.843s-45.196 0.305-45.196-9.843c0-10.147 20.235-26.904 45.196-26.904s45.196 16.757 45.196 26.904z" fill="#E6E6E6"/>
<path d="m184.63 471.02-0.064 14.242 56.089 7.03 0.095-21.02-56.12-0.252z" fill="#FFB6B6"/>
<path d="m192.28 486.22-0.838-15.186-0.199-3.711-35.949-3.156-0.056 10.678 10.074 1.948-10.103 4.834-0.128 28.31c-7e-3 1.358 0.42 2.683 1.219 3.781s1.928 1.911 3.221 2.321c1.294 0.41 2.685 0.395 3.97-0.043s2.396-1.276 3.171-2.391l4.674-6.697 11.027-15.839 10.187 0.042-0.27-4.891z" fill="#2F2E41"/>
<path d="m433.21 447.82c-9.378 24.528-17.306 43.51-20.56 46.752-3.609 3.611-28.049 5.118-58.258 5.531-31.885 0.426-70.192-0.356-97.261-1.095h-0.014c-20.447-0.569-34.485-1.123-34.485-1.123l0.028-7.849 0.071-18.854 0.015-3.768s0.682-0.185 1.932-0.569c2.316-0.669 6.607-1.92 12.234-3.583 17.676-5.233 48.424-14.432 71.628-21.94 7.602-2.474 14.408-4.749 19.665-6.654 6.025-2.162 10.032-3.84 10.927-4.735 5.3-5.176 7.644 0 10.998 5.161 3.353 5.176 4.39 0 8.781-3.796 4.391-3.797 14.294 1.422 14.294 1.422s0.086-3.441 0.228-8.916c0.213-8.09 0.525-20.688 0.824-33.286-0.014-0.014-0.014-0.014 0-0.014 0.014-0.555 0.028-1.123 0.042-1.678 6.821 5.929 14.11 11.361 21.371 18.157 4.731 4.423 11.95 11.745 17.093 16.978 1.038 1.066 2.373 2.474 3.425 3.583 6.202 6.297 11.894 13.077 17.022 20.276z" fill="#2F2E41"/>
<path d="m201.93 511.92 1.085 14.2 56.474 2.473-1.604-20.959-55.955 4.286z" fill="#FFB6B6"/>
<path d="m210.78 526.46-2.046-15.057-0.511-3.697-36.091-0.242 0.81 10.65 10.188 1.123-9.662 5.645 2.159 28.239c0.104 1.353 0.638 2.637 1.523 3.665 0.885 1.029 2.075 1.747 3.397 2.05s2.706 0.176 3.95-0.364c1.244-0.539 2.284-1.463 2.966-2.635l13.84-23.746 10.145-0.768-0.668-4.863z" fill="#2F2E41"/>
<path d="m445.23 506.73c-11.396 17.83-151.77 35.262-204.47 25.366 0.099-1.422 0.256-2.858 0.44-4.294 0.782-6.313 2.245-12.754 3.467-19.153 0.512-2.687 0.995-5.375 1.364-8.048 1.776-0.284-0.17-0.099 2.16-0.469 2.954-0.525 5.932-0.9 8.923-1.123h0.015c0.909-0.071 1.932-0.142 3.14-0.228 26.841-1.834 61.014 5.901 84.998-7.251 6.778-3.726 7.204-4.778 8.199-5.958 5.769-6.91 6.323-1.194 11.296 1.28s4.064-1.863 5.457-5.645c1.392-3.782 7.545-3.285 11.111-3.839-3.311-3.071-1.137-3.612-6.607-6.242-8.071-3.896-21.442-9.641-30.905-13.465-0.03-0.021-0.064-0.035-0.099-0.043-3.993-1.536-9.62-3.967-13.215-5.489-2.785-1.18-7.644-3.398-9.179-3.981-3.382-1.294-9.222 10.934-12.788 8.816-1.265-0.768-2.231-1.365-2.714-1.65-6.01-3.597-1.293-1.72-1.918-6.085-0.085-0.541 0.156-1.934 0.085-2.403-0.156-1.109 0.213-2.958-0.327-3.626-0.554-0.654-2.387 2.645-3.538 3.128-0.511 0.227-2.529 1.806-4.177 1.635-7.105-0.782-11.936-7.721-14.394-14.674-20.688-8.972-34.358-29.93-37.611-49.495-2.757-16.523 2.145-29.718 6.479-40.595 3.893-9.754 5.101-8.404 9.421-15.371-0.128-1.251-0.128-0.924-0.128-0.839 0-0.128-0.029-0.64-0.114-2.317-0.227-4.494-0.767-17.76-1.023-23.945 1.783-1.98 3.791-3.746 5.982-5.261 6.721-5.005 16.781-7.877 24.127-9.285 8.369-1.607 19.211-0.455 25.264 0.427 9.435 1.365 12.56 3.199 20.432 5.047 0.015 15.001 3.141 10.821 1.606 30.272-1.549 19.452 52.417 78.261 59.678 85.057 4.732 4.423 11.95 11.745 17.093 16.978 1.038 1.066 2.373 2.474 3.425 3.583 6.025 6.356 18.259 22.11 18.841 23.049 0.739 1.18 1.052 2.104 1.648 3.242 0.014 0.028 19.936 35.063 8.554 52.894z" fill="#2F2E41"/>
<path d="m630.39 346.91-2.907 51.043c-2e-3 1.295 0.252 2.578 0.747 3.775 0.495 1.198 1.221 2.285 2.136 3.201 0.916 0.916 2.003 1.643 3.199 2.138s2.479 0.749 3.773 0.748c27.938 14.245 36.659 14.644 61.691 0 1.295 1e-3 2.577-0.253 3.773-0.748 1.197-0.495 2.284-1.222 3.199-2.138 0.916-0.916 1.641-2.003 2.136-3.201 0.495-1.197 0.749-2.48 0.748-3.775l-2.907-52.279 2.907-13.819c1e-3 -1.295-0.253-2.578-0.748-3.775-0.495-1.198-1.221-2.285-2.136-3.201-0.915-0.917-2.002-1.643-3.199-2.138-1.196-0.495-2.478-0.749-3.773-0.748h-61.691c-1.295-1e-3 -2.577 0.253-3.773 0.748s-2.283 1.222-3.199 2.138c-0.915 0.916-1.641 2.003-2.136 3.201-0.495 1.197-0.749 2.48-0.747 3.775l2.907 15.055z" fill="#E6E6E6"/>
<path d="m582.42 317.63-3.238 6.481 55.568 32.794-4.361 29.092-54.752-54.79-3.392 6.788-1.074-2.15c-0.959-1.919-1.412-4.051-1.315-6.194 0.096-2.144 0.738-4.227 1.865-6.052s2.702-3.331 4.574-4.376c1.873-1.044 3.981-1.593 6.125-1.593z" fill="#E6E6E6"/>
<path d="m646.38 322.72c0 8.437 10.408 15.274 23.258 15.274s23.257-6.837 23.257-15.274c0-0.247-0.014-0.48-0.029-0.727h-46.457c-0.014 0.247-0.029 0.48-0.029 0.727z" fill="#F2F2F2"/>
<path d="m676.17 298.55c-2e-3 -1.691-0.674-3.313-1.869-4.509s-2.816-1.868-4.506-1.87h-0.332c-1.69 2e-3 -3.311 0.674-4.506 1.87s-1.867 2.818-1.869 4.509v44.532h13.082v-44.532z" fill="#E6E6E6"/>
<path d="m417.94 376.62c-0.819-0.945-1.823-1.71-2.951-2.247s-2.355-0.836-3.603-0.876c0 0-45.128-5.428-51.794-10.013-2.257-0.071-4.459 0.702-6.175 2.17s-2.823 3.524-3.104 5.766l-43.022 8.113c-2.033 0.389-3.829 1.568-4.994 3.28-1.165 1.711-1.604 3.815-1.22 5.85 0.383 2.035 1.557 3.835 3.265 5.005 1.707 1.17 3.809 1.614 5.843 1.236l42.802-8.072c0.811 1.898 2.245 3.462 4.065 4.434 1.819 0.973 3.916 1.295 5.943 0.913l48.197-9.089c6.874-1.296 11.33-1.182 6.748-6.47z" fill="#E6E6E6"/>
<path d="m291.61 305.32-10.4-100.79c-0.428-4.272 0.839-8.54 3.528-11.885 2.69-3.345 6.585-5.497 10.847-5.993 2.204-0.256 4.438-0.061 6.564 0.575 2.127 0.635 4.101 1.698 5.804 3.122s3.098 3.18 4.101 5.162c1.002 1.981 1.591 4.146 1.73 6.363l7.595 105.03 7.304 63.624c2.81 0.825 5.299 2.496 7.127 4.785s2.908 5.087 3.092 8.011c0.185 2.925-0.535 5.836-2.062 8.337-1.526 2.501-3.785 4.472-6.469 5.643-2.684 1.172-5.664 1.489-8.534 0.907-2.871-0.582-5.492-2.034-7.509-4.159-2.017-2.124-3.332-4.819-3.765-7.717-0.433-2.899 0.035-5.86 1.343-8.483l-20.296-72.53z" fill="#FFB6B6"/>
<path d="m274.07 226.03c-0.832-0.649-1.429-1.553-1.698-2.575-0.269-1.021-0.196-2.102 0.209-3.078 0.476-1.213 0.562-2.544 0.245-3.808-0.064-0.244-0.144-0.483-0.239-0.717-0.609-1.391-0.873-2.909-0.77-4.424 0.104-1.516 0.571-2.984 1.362-4.28 2.666-4.228 3.435-10.196 3.418-15.424-0.018-5.721-0.346-11.526 1.005-17.085 1.949-8.019 8.115-15.75 18.186-13.772 4.27 0.908 8.097 3.262 10.836 6.664 5.82 7.036 7.097 16.305 8.234 25.185l1.266-3.736c1.072 9.72 4.096 19.123 8.888 27.646-2.204-0.134-3.343 2.957-2.373 4.942 0.969 1.986 3.069 3.097 4.905 4.325 2.314 1.547 4.629 3.993 3.05 7.034-0.397 0.717-0.939 1.343-1.591 1.84-0.651 0.498-1.398 0.854-2.194 1.049-14.962 3.993-30.587 4.847-45.895 2.508-3.399-0.522-7.083-1.383-9.177-4.113s-1.082-7.778 2.333-8.181z" fill="#9AB522"/>
</g>
<defs>
<clipPath id="a">
<rect width="1197" height="559" fill="#fff"/>
</clipPath>
</defs>
</svg>
