<?xml version="1.0" encoding="UTF-8"?>
<svg fill="none" viewBox="0 0 1068 785" xmlns="http://www.w3.org/2000/svg">
<g clip-path="url(#a)">
<path d="m301.15 690.21c3.887-31.192 23.254-61.925 53.058-72.075-11.754 32.105-11.751 67.325 7e-3 99.428 4.58 12.364 10.964 25.641 6.656 38.102-2.681 7.754-9.237 13.687-16.567 17.396-7.329 3.709-15.464 5.477-23.497 7.21l-1.581 1.305c-12.751-28.74-21.962-60.174-18.076-91.366z" fill="#F0F0F0"/>
<path d="m354.51 618.72c-17.356 19.411-28.144 43.786-30.83 69.665-0.678 5.56-0.473 11.193 0.607 16.69 1.226 5.321 3.856 10.217 7.618 14.18 3.434 3.766 7.383 7.221 9.84 11.754 1.223 2.338 1.937 4.909 2.095 7.543 0.158 2.633-0.244 5.271-1.179 7.739-2.169 6.209-6.444 11.271-10.797 16.075-4.833 5.335-9.938 10.799-11.993 17.872-0.249 0.857-1.566 0.421-1.318-0.435 3.575-12.304 15.542-19.293 21.249-30.376 2.663-5.171 3.781-11.175 1.284-16.634-2.183-4.773-6.252-8.339-9.762-12.122-3.727-3.812-6.462-8.478-7.967-13.588-1.356-5.425-1.779-11.04-1.248-16.606 0.995-12.549 3.96-24.864 8.788-36.494 5.435-13.304 13.111-25.581 22.695-36.301 0.593-0.664 1.507 0.379 0.918 1.038z" fill="#fff"/>
<path d="m324.05 680c-4.289-1.039-8.068-3.566-10.663-7.13-2.594-3.564-3.835-7.932-3.5-12.324 0.015-0.179 0.099-0.345 0.235-0.463 0.135-0.119 0.311-0.18 0.491-0.171s0.349 0.088 0.472 0.219 0.191 0.304 0.188 0.484c-0.319 4.09 0.837 8.158 3.26 11.472 2.423 3.313 5.952 5.653 9.952 6.598 0.869 0.206 0.429 1.52-0.435 1.315z" fill="#fff"/>
<path d="m329.91 717.58c7.746-4.617 13.465-11.977 16.015-20.615 0.252-0.856 1.57-0.421 1.318 0.434-2.671 8.984-8.637 16.632-16.708 21.418-0.77 0.456-1.39-0.784-0.625-1.237z" fill="#fff"/>
<path d="m337.62 641.99c1.575 0.748 3.312 1.093 5.054 1.004 1.742-0.088 3.435-0.607 4.927-1.509 0.763-0.466 1.382 0.775 0.624 1.237-1.653 0.99-3.523 1.56-5.447 1.662-1.925 0.102-3.845-0.268-5.593-1.078-0.171-0.063-0.312-0.188-0.394-0.35-0.082-0.163-0.099-0.351-0.048-0.525 0.059-0.174 0.184-0.318 0.348-0.4 0.164-0.083 0.354-0.097 0.529-0.041z" fill="#fff"/>
<path d="m445.06 673.84c-0.468 0.304-0.937 0.608-1.406 0.924-6.276 4.119-12.207 8.741-17.734 13.819-0.434 0.386-0.867 0.784-1.289 1.181-13.185 12.377-23.953 27.089-31.756 43.389-3.1 6.489-5.7 13.204-7.779 20.086-2.87 9.506-5.224 20.04-10.906 27.815-0.583 0.818-1.217 1.599-1.897 2.339h-51.343c-0.117-0.059-0.234-0.105-0.351-0.164l-2.05 0.094c0.082-0.363 0.175-0.737 0.258-1.099 0.047-0.211 0.105-0.421 0.152-0.632 0.035-0.14 0.07-0.28 0.094-0.409 0.011-0.047 0.023-0.093 0.035-0.129 0.023-0.128 0.059-0.245 0.082-0.362 0.515-2.093 1.046-4.186 1.593-6.279 0-0.011 0-0.011 0.012-0.023 4.012-15.987 9.91-31.443 17.571-46.043 0.234-0.432 0.468-0.877 0.726-1.309 3.547-6.463 7.618-12.626 12.171-18.427 2.503-3.168 5.166-6.208 7.977-9.108 7.279-7.478 15.691-13.767 24.927-18.637 18.415-9.704 39.734-13.422 59.414-7.494 0.503 0.152 0.996 0.304 1.499 0.468z" fill="#F0F0F0"/>
<path d="m444.94 674.5c-25.567 5.068-48.883 18.048-66.638 37.096-3.895 4.033-7.129 8.654-9.583 13.692-2.231 4.985-3.084 10.475-2.471 15.9 0.47 5.07 1.54 10.201 0.767 15.297-0.434 2.603-1.415 5.084-2.878 7.282-1.462 2.198-3.374 4.062-5.609 5.471-5.477 3.654-11.944 5.126-18.318 6.347-7.077 1.355-14.449 2.65-20.356 7.062-0.715 0.535-1.505-0.605-0.79-1.139 10.276-7.676 24.047-6.065 35.289-11.484 5.246-2.529 9.76-6.651 11.059-12.51 1.136-5.123 0.038-10.416-0.482-15.545-0.676-5.284-0.046-10.652 1.835-15.637 2.189-5.146 5.239-9.884 9.02-14.009 8.364-9.422 18.161-17.473 29.03-23.858 12.365-7.356 25.9-12.546 40.018-15.346 0.874-0.173 0.975 1.209 0.107 1.381z" fill="#fff"/>
<path d="m383.66 705.12c-2.797-3.407-4.29-7.696-4.212-12.1s1.722-8.638 4.639-11.944c0.592-0.667 1.658 0.221 1.065 0.889-2.722 3.073-4.253 7.017-4.317 11.118-0.064 4.102 1.342 8.091 3.966 11.248 0.57 0.687-0.575 1.472-1.141 0.789z" fill="#fff"/>
<path d="m365.67 738.64c8.97 0.969 17.976-1.472 25.222-6.837 0.718-0.532 1.507 0.608 0.791 1.139-7.552 5.568-16.929 8.09-26.261 7.061-0.889-0.099-0.636-1.461 0.248-1.363z" fill="#fff"/>
<path d="m417.42 682.93c0.807 1.543 1.986 2.863 3.43 3.839s3.109 1.58 4.844 1.755c0.89 0.087 0.637 1.45-0.248 1.363-1.916-0.203-3.754-0.871-5.352-1.946-1.598-1.076-2.908-2.525-3.815-4.222-0.099-0.153-0.136-0.338-0.103-0.517 0.032-0.179 0.132-0.339 0.278-0.447 0.152-0.104 0.338-0.143 0.519-0.111 0.181 0.033 0.342 0.136 0.447 0.286z" fill="#fff"/>
<path d="m346.17 242.18h-169.86c-5.25-6e-3 -10.282-2.09-13.994-5.794-3.711-3.705-5.799-8.728-5.805-13.968v-92.342c6e-3 -5.239 2.094-10.262 5.805-13.967 3.712-3.704 8.745-5.788 13.994-5.794h169.86c5.249 6e-3 10.282 2.09 13.994 5.794 3.711 3.705 5.799 8.728 5.805 13.967v92.342c-6e-3 5.24-2.093 10.263-5.805 13.968-3.712 3.704-8.744 5.788-13.994 5.794z" fill="#E6E6E6"/>
<path d="m605.51 242.18h-169.86c-5.25-6e-3 -10.282-2.09-13.994-5.794-3.712-3.705-5.799-8.728-5.805-13.968v-92.342c6e-3 -5.239 2.094-10.262 5.805-13.967 3.712-3.704 8.745-5.788 13.994-5.794h169.86c5.249 6e-3 10.282 2.09 13.994 5.794 3.711 3.705 5.799 8.728 5.805 13.967v92.342c-6e-3 5.24-2.094 10.263-5.805 13.968-3.712 3.704-8.744 5.788-13.994 5.794z" fill="#9AB522"/>
<path d="m864.84 242.18h-169.87c-5.249-6e-3 -10.282-2.09-13.993-5.794-3.712-3.705-5.8-8.728-5.806-13.968v-92.342c6e-3 -5.239 2.094-10.262 5.806-13.967 3.711-3.704 8.744-5.788 13.993-5.794h169.87c5.249 6e-3 10.281 2.09 13.993 5.794 3.712 3.705 5.8 8.728 5.806 13.967v92.342c-6e-3 5.24-2.094 10.263-5.806 13.968-3.712 3.704-8.744 5.788-13.993 5.794z" fill="#E6E6E6"/>
<path d="m346.17 447.93h-169.86c-5.25-6e-3 -10.282-2.09-13.994-5.795-3.711-3.705-5.799-8.728-5.805-13.967v-92.343c6e-3 -5.239 2.094-10.262 5.805-13.966 3.712-3.705 8.745-5.789 13.994-5.795h169.86c5.249 6e-3 10.282 2.09 13.994 5.795 3.711 3.704 5.799 8.727 5.805 13.966v92.343c-6e-3 5.239-2.093 10.262-5.805 13.967s-8.744 5.789-13.994 5.795z" fill="#F2F2F2"/>
<path d="m605.51 447.93h-169.86c-5.25-6e-3 -10.282-2.09-13.994-5.795s-5.799-8.728-5.805-13.967v-92.343c6e-3 -5.239 2.094-10.262 5.805-13.966 3.712-3.705 8.745-5.789 13.994-5.795h169.86c5.249 6e-3 10.282 2.09 13.994 5.795 3.711 3.704 5.799 8.727 5.805 13.966v92.343c-6e-3 5.239-2.094 10.262-5.805 13.967-3.712 3.705-8.744 5.789-13.994 5.795z" fill="#E6E6E6"/>
<path d="m617.5 464.92c16.755 0 30.338-13.558 30.338-30.282 0-16.723-13.583-30.281-30.338-30.281-16.756 0-30.339 13.558-30.339 30.281 0 16.724 13.583 30.282 30.339 30.282z" fill="#9AB522"/>
<path d="m630.1 432.1h-10.315v-10.296c0-0.318-0.063-0.633-0.185-0.927s-0.301-0.561-0.526-0.786c-0.226-0.225-0.493-0.404-0.788-0.525-0.294-0.122-0.61-0.185-0.928-0.185-0.319 0-0.635 0.063-0.929 0.185-0.295 0.121-0.562 0.3-0.788 0.525-0.225 0.225-0.404 0.492-0.526 0.786s-0.185 0.609-0.185 0.927v10.296h-10.315c-0.319 0-0.634 0.062-0.929 0.184-0.294 0.122-0.562 0.3-0.787 0.525s-0.404 0.492-0.526 0.786-0.185 0.609-0.185 0.927 0.063 0.633 0.185 0.927 0.301 0.561 0.526 0.786 0.493 0.404 0.787 0.526c0.295 0.121 0.61 0.184 0.929 0.184h10.315v10.296c0 0.318 0.063 0.633 0.185 0.927s0.301 0.561 0.526 0.786c0.226 0.225 0.493 0.403 0.788 0.525 0.294 0.122 0.61 0.184 0.929 0.184 0.643 0 1.261-0.255 1.716-0.709 0.455-0.455 0.711-1.071 0.711-1.713v-10.296h10.315c0.318 0 0.634-0.063 0.929-0.185 0.294-0.121 0.562-0.3 0.787-0.525s0.404-0.492 0.526-0.786 0.185-0.609 0.185-0.927-0.063-0.633-0.185-0.927-0.301-0.561-0.526-0.786-0.493-0.403-0.787-0.525c-0.295-0.122-0.61-0.184-0.929-0.184z" fill="#fff"/>
<path d="m880.82 264.48c16.756 0 30.339-13.557 30.339-30.281s-13.583-30.281-30.339-30.281c-16.755 0-30.338 13.557-30.338 30.281s13.583 30.281 30.338 30.281z" fill="#9AB522"/>
<path d="m893.42 231.66h-10.315v-10.296c0-0.318-0.062-0.633-0.184-0.927s-0.301-0.561-0.527-0.786c-0.225-0.225-0.492-0.403-0.787-0.525-0.294-0.122-0.61-0.184-0.929-0.184s-0.634 0.062-0.929 0.184c-0.294 0.122-0.562 0.3-0.787 0.525-0.226 0.225-0.404 0.492-0.526 0.786s-0.185 0.609-0.185 0.927v10.296h-10.315c-0.319 0-0.635 0.063-0.929 0.184-0.294 0.122-0.562 0.301-0.787 0.526-0.226 0.225-0.405 0.492-0.527 0.786-0.122 0.293-0.184 0.609-0.184 0.927s0.062 0.633 0.184 0.927 0.301 0.561 0.527 0.786c0.225 0.225 0.493 0.403 0.787 0.525s0.61 0.184 0.929 0.184h10.315v10.296c0 0.318 0.063 0.633 0.185 0.927s0.301 0.561 0.526 0.786 0.493 0.403 0.787 0.525c0.295 0.122 0.611 0.185 0.929 0.185 0.644 0 1.261-0.256 1.717-0.71 0.455-0.454 0.71-1.07 0.71-1.713v-10.296h10.315c0.319 0 0.635-0.062 0.929-0.184 0.295-0.122 0.562-0.3 0.788-0.525 0.225-0.225 0.404-0.492 0.526-0.786s0.185-0.609 0.185-0.927c0-0.319-0.063-0.634-0.185-0.928-0.122-0.293-0.301-0.561-0.526-0.785-0.226-0.225-0.493-0.404-0.788-0.526-0.294-0.121-0.61-0.184-0.929-0.184z" fill="#fff"/>
<path d="m358.16 261.83c16.756 0 30.339-13.557 30.339-30.281s-13.583-30.281-30.339-30.281c-16.755 0-30.338 13.557-30.338 30.281s13.583 30.281 30.338 30.281z" fill="#9AB522"/>
<path d="m370.76 229h-10.315v-10.295c0-0.319-0.062-0.634-0.184-0.928s-0.301-0.561-0.527-0.786c-0.225-0.225-0.492-0.403-0.787-0.525-0.294-0.121-0.61-0.184-0.929-0.184s-0.634 0.063-0.929 0.184c-0.294 0.122-0.562 0.3-0.787 0.525-0.226 0.225-0.404 0.492-0.526 0.786s-0.185 0.609-0.185 0.928v10.295h-10.315c-0.319 0-0.635 0.063-0.929 0.185-0.295 0.121-0.562 0.3-0.787 0.525-0.226 0.225-0.405 0.492-0.527 0.786s-0.184 0.609-0.184 0.927c0 0.642 0.255 1.259 0.71 1.713 0.456 0.454 1.073 0.709 1.717 0.709h10.315v10.296c0 0.318 0.063 0.633 0.185 0.927s0.3 0.561 0.526 0.786c0.225 0.225 0.493 0.404 0.787 0.525 0.295 0.122 0.61 0.185 0.929 0.185s0.635-0.063 0.929-0.185c0.294-0.121 0.562-0.3 0.787-0.525 0.226-0.225 0.405-0.492 0.527-0.786s0.184-0.609 0.184-0.927v-10.296h10.315c0.319 0 0.635-0.062 0.929-0.184 0.295-0.122 0.562-0.3 0.788-0.525 0.225-0.225 0.404-0.492 0.526-0.786s0.185-0.609 0.185-0.927c0-0.643-0.256-1.259-0.711-1.713-0.455-0.455-1.073-0.71-1.717-0.71z" fill="#fff"/>
<path d="m585.3 189.71c0.553 1.671 0.733 3.443 0.526 5.191s-0.795 3.429-1.723 4.926c-0.928 1.496-2.174 2.771-3.649 3.735-1.476 0.964-3.145 1.593-4.89 1.844l-14.029 95.575-23.012-11.218 23.146-95.402c-0.227-2.954 0.64-5.89 2.436-8.249s4.397-3.979 7.31-4.553c2.912-0.573 5.935-0.06 8.494 1.442 2.559 1.503 4.477 3.889 5.391 6.709z" fill="#9E616A"/>
<path d="m417.75 495.82c1.024-1.433 1.722-3.072 2.043-4.803s0.257-3.511-0.185-5.214c-0.443-1.704-1.255-3.29-2.378-4.647-1.123-1.356-2.531-2.451-4.124-3.206l9.464-101.66-19.822 10.142-6.19 97.964c-1.093 2.755-1.136 5.815-0.12 8.599 1.016 2.785 3.02 5.1 5.632 6.509 2.612 1.408 5.651 1.811 8.541 1.132 2.89-0.678 5.43-2.391 7.139-4.814z" fill="#9E616A"/>
<path d="m431.29 444.4 85.064-3.265 4.907-88.168h-98.15l8.179 91.433z" fill="#9E616A"/>
<path d="m415.5 755.77 14.536-1e-3 6.914-55.96h-21.453l3e-3 55.961z" fill="#9E616A"/>
<path d="m411.9 748.61 22.978-1.369v9.826l21.846 15.059c1.079 0.744 1.892 1.813 2.319 3.05 0.428 1.237 0.448 2.578 0.058 3.828s-1.171 2.342-2.227 3.117c-1.056 0.776-2.333 1.194-3.645 1.194h-27.356l-4.715-9.719-1.841 9.719h-10.315l2.898-34.705z" fill="#2F2E41"/>
<path d="m480.16 755.77 14.536-1e-3 6.914-55.96h-21.453l3e-3 55.961z" fill="#9E616A"/>
<path d="m430.11 423.7s-25.451 20.509-11.654 93.753c-2.101 0.25 0.278 4.384 0.278 4.384l1.991 59.679 1.538 6.84-5.115 11.037 2.109 11.992-6.501 108.84 24.015 3.1 22.981-113.02 4.377-12.707 4.39-11.138-2.368-11.877 1.942-18.435 13.249-62.161 3.243 107.81-4.526 10.292 2.519 11.299-5.611 5.997-2.218 100.87 25.607 1.196 21.187-101.68-1.643-12.977 2.819-9.594v-22.411l4.828-10.577 10.525-57.673s3.175-45.076-19.991-98.121l-87.971 5.29z" fill="#2F2E41"/>
<path d="m440.48 279.69s-32.147 6.346-37.686 33.71c-5.539 27.363-9.103 89.285-9.103 89.285l1.213 8.624 31.096 7.196 19.848-86.763-5.368-52.052z" fill="#123B14"/>
<path d="m513.85 288.92s3.258-4.558 21.506-5.261c0.751-0.029-0.179-1.516-0.179-1.516l8.776-42.813 29.246 16.161-4.937 44.884-48.058 54.558-6.354-66.013z" fill="#123B14"/>
<path d="m495.62 416.56c-13.768 1e-3 -34.493-1.516-65.692-6.139-2.01-0.302-3.87-1.238-5.309-2.671-1.439-1.432-2.381-3.287-2.689-5.292-1.019-1.074-1.682-2.434-1.899-3.897s0.023-2.958 0.687-4.28l0.029-0.057-0.707-0.831c-1.094-1.282-1.736-2.886-1.829-4.567s0.369-3.346 1.314-4.74l-9.662-68.992c-0.981-6.852 0.52-13.827 4.233-19.672 3.712-5.846 9.392-10.177 16.019-12.215l3.567-1.108 13.488-17.61 0.266 3e-3 43.304 0.575 14.053 17.812 22.716 5.346 0.059 0.345 5.274 30.416c2.743 15.82-3.548 22.043-11.578 35.955l2.357 39.072 1.069 1.939c0.594 1.073 0.793 2.32 0.562 3.524-0.23 1.204-0.874 2.29-1.822 3.07 0.716 2.044 0.765 4.262 0.139 6.335l-0.555 1.833c1e-3 0.052-0.147 0.797-1.347 1.706-2.162 1.64-8.372 4.14-26.047 4.14z" fill="#123B14"/>
<path d="m476.55 748.61 22.978-1.369v9.826l21.846 15.059c1.079 0.744 1.892 1.813 2.32 3.05 0.427 1.237 0.447 2.578 0.057 3.828s-1.17 2.342-2.227 3.117c-1.056 0.776-2.333 1.194-3.644 1.194h-27.356l-4.716-9.719-1.841 9.719h-10.314l2.897-34.705z" fill="#2F2E41"/>
<path d="m500.69 226.11c3.003-18.473-9.565-35.877-28.073-38.875-18.507-2.998-35.944 9.547-38.948 28.019-3.003 18.473 9.566 35.877 28.073 38.875 18.507 2.997 35.944-9.547 38.948-28.019z" fill="#9E616A"/>
<path d="m487.03 187.57c-12.443-8.541-23.4-9.842-32.401-7.419-1.167-1.802-2.803-3.252-4.733-4.195-7.02-17.655-28.383-28.257-46.716-23.103-18.452 5.187-31.184 25.588-27.712 44.405 2.152 11.664 9.507 21.765 12.465 33.251 5.726 22.236-8.243 47.708-30.096 54.876 20.691 4.146 43.466-8.468 50.889-28.186 3.605-9.577 3.822-20.034 4.281-30.255 0.12-7.054 0.986-14.077 2.583-20.95 0.793-3.084 1.913-6.074 3.341-8.921 3.11-6.257 8.277-11.26 14.637-14.174-0.57 1.758-0.712 3.626-0.416 5.45 0.297 1.824 1.023 3.552 2.12 5.04-4.852 6.067-7.493 12.628-7.493 16.557-10.08 18.388 4.334 34.183 22.758 44.244 7.348 4.034 15.833 5.51 24.115 4.196l0.771-3.284 1.044 2.958 3.486 9.918c4.022 1.941 8.008 4.07 11.96 6.385-1.501-7.037-2.716-14.061-3.552-20.929-1.157-9.348 2.877-23.264 5.787-31.727 1.804-5.215 2.73-10.693 2.74-16.211v-0.241l2.833 9.083 10.315-4.392c-1.919-10.986 0-23.457-23.006-22.376z" fill="#2F2E41"/>
<path d="m911.23 785h-754.46c-0.418-2e-3 -0.819-0.169-1.114-0.466-0.295-0.296-0.461-0.697-0.461-1.114 0-0.418 0.166-0.819 0.461-1.115s0.696-0.464 1.114-0.466h754.46c0.419 2e-3 0.82 0.17 1.115 0.466s0.461 0.697 0.461 1.115c0 0.417-0.166 0.818-0.461 1.114-0.295 0.297-0.696 0.464-1.115 0.466z" fill="#ccc"/>
<path d="m354.7 468.9c16.756 0 30.339-13.557 30.339-30.281s-13.583-30.282-30.339-30.282c-16.755 0-30.338 13.558-30.338 30.282s13.583 30.281 30.338 30.281z" fill="#E6E6E6"/>
<path d="m811.17 421.22h-106.41c-3.288-4e-3 -6.441-1.31-8.766-3.631s-3.633-5.467-3.637-8.749v-57.847c4e-3 -3.283 1.312-6.429 3.637-8.75s5.478-3.626 8.766-3.63h106.41c3.289 4e-3 6.441 1.309 8.766 3.63 2.326 2.321 3.634 5.467 3.637 8.749v57.848c-3e-3 3.282-1.311 6.428-3.636 8.749-2.326 2.321-5.478 3.627-8.767 3.631z" fill="#F2F2F2"/>
<path d="m812.74 397.72c8.898 0 16.112-7.2 16.112-16.081s-7.214-16.081-16.112-16.081-16.111 7.2-16.111 16.081 7.213 16.081 16.111 16.081z" fill="#9AB522"/>
<path d="m819.43 380.29h-5.478v-5.468c0-0.169-0.034-0.336-0.098-0.492-0.065-0.156-0.16-0.298-0.28-0.418-0.119-0.119-0.262-0.214-0.418-0.278-0.156-0.065-0.324-0.098-0.493-0.098-0.342 0-0.67 0.135-0.912 0.376-0.241 0.242-0.377 0.569-0.377 0.91v5.468h-5.478c-0.342 0-0.67 0.135-0.912 0.377-0.241 0.241-0.377 0.568-0.377 0.909 0 0.169 0.033 0.337 0.098 0.493s0.16 0.298 0.279 0.417c0.12 0.12 0.262 0.214 0.419 0.279 0.156 0.065 0.324 0.098 0.493 0.098h5.478v5.467c0 0.169 0.033 0.337 0.098 0.493s0.16 0.298 0.279 0.417c0.12 0.12 0.262 0.214 0.419 0.279 0.156 0.065 0.324 0.098 0.493 0.098 0.342 0 0.669-0.136 0.911-0.377s0.378-0.568 0.378-0.91v-5.467h5.478c0.342 0 0.669-0.136 0.911-0.377s0.378-0.568 0.378-0.91c0-0.169-0.034-0.336-0.098-0.492-0.065-0.156-0.16-0.298-0.28-0.417-0.119-0.12-0.262-0.215-0.418-0.279-0.156-0.065-0.324-0.098-0.493-0.098z" fill="#fff"/>
<path d="m854.53 404.8h-87.692c-3.722-4e-3 -7.291-1.481-9.923-4.108-2.631-2.627-4.112-6.188-4.116-9.903v-52.247c1e-3 -0.684 0.275-1.339 0.76-1.822 0.484-0.483 1.141-0.754 1.826-0.754s1.342 0.271 1.827 0.754 0.758 1.138 0.76 1.822v13.992l101.86 9.242c2.034 0.036 3.973 0.868 5.4 2.316s2.228 3.397 2.23 5.428c0 0.159-0.015 0.319-0.044 0.475l-5.133 27.325c-0.071 2.006-0.919 3.907-2.365 5.302s-3.378 2.176-5.39 2.178zm-96.558-47.082v33.071c3e-3 2.346 0.938 4.595 2.6 6.254s3.915 2.592 6.266 2.594h87.692c0.686 0 1.343-0.273 1.828-0.757s0.758-1.14 0.759-1.824c0-0.16 0.015-0.319 0.044-0.476l5.121-27.259c-0.051-0.648-0.345-1.253-0.823-1.695-0.478-0.441-1.105-0.687-1.756-0.688-0.078 0-0.156-3e-3 -0.234-0.011l-101.5-9.209z" fill="#9AB522"/>
<path d="m743.53 428.89c2.381 0 4.311-1.926 4.311-4.302s-1.93-4.303-4.311-4.303c-2.38 0-4.31 1.927-4.31 4.303s1.93 4.302 4.31 4.302z" fill="#9AB522"/>
<path d="m851.08 428.89c2.38 0 4.31-1.926 4.31-4.302s-1.93-4.303-4.31-4.303c-2.381 0-4.311 1.927-4.311 4.303s1.93 4.302 4.311 4.302z" fill="#9AB522"/>
<path d="m855.39 420.29h-115.3c-0.686 0-1.344-0.272-1.829-0.756s-0.757-1.14-0.757-1.825 0.272-1.341 0.757-1.825c0.485-0.485 1.143-0.757 1.829-0.757h115.3c0.686 0 1.344 0.272 1.829 0.757 0.485 0.484 0.758 1.14 0.758 1.825s-0.273 1.341-0.758 1.825-1.143 0.756-1.829 0.756z" fill="#9AB522"/>
<path d="m762.28 340.26h-22.416c-0.685-2e-3 -1.341-0.274-1.825-0.758s-0.755-1.14-0.755-1.824c0-0.683 0.271-1.339 0.755-1.823s1.14-0.757 1.825-0.758h22.416c0.685 1e-3 1.341 0.274 1.825 0.758 0.483 0.484 0.755 1.14 0.755 1.823 0 0.684-0.272 1.34-0.755 1.824-0.484 0.484-1.14 0.756-1.825 0.758z" fill="#9AB522"/>
<path d="m780.26 418.97c-0.618 1e-3 -1.216-0.221-1.685-0.623l-17-14.582c-0.258-0.221-0.47-0.49-0.624-0.793-0.154-0.302-0.247-0.632-0.273-0.971-0.026-0.338 0.015-0.678 0.121-1.001s0.274-0.621 0.496-0.879c0.222-0.257 0.492-0.468 0.796-0.622 0.303-0.153 0.634-0.244 0.973-0.27 0.339-0.025 0.68 0.017 1.003 0.123 0.323 0.107 0.622 0.275 0.879 0.497l17 14.582c0.401 0.343 0.687 0.801 0.819 1.312 0.132 0.51 0.105 1.049-0.079 1.543-0.184 0.495-0.515 0.921-0.949 1.222-0.433 0.301-0.949 0.462-1.477 0.462z" fill="#9AB522"/>
<path d="m783.84 403.21c-0.34 0-0.676-0.067-0.99-0.197-0.314-0.129-0.599-0.32-0.839-0.559-0.24-0.24-0.431-0.525-0.561-0.838s-0.197-0.649-0.197-0.988v-41.439c0-0.685 0.273-1.341 0.758-1.826 0.485-0.484 1.143-0.756 1.829-0.756s1.344 0.272 1.829 0.756c0.485 0.485 0.757 1.141 0.757 1.826v41.439c0 0.339-0.067 0.675-0.197 0.988s-0.32 0.598-0.56 0.838c-0.24 0.239-0.525 0.429-0.839 0.559s-0.651 0.197-0.99 0.197z" fill="#9AB522"/>
<path d="m838.48 403.21c-0.34 0-0.676-0.067-0.99-0.197-0.314-0.129-0.599-0.32-0.839-0.559-0.24-0.24-0.43-0.525-0.56-0.838s-0.197-0.649-0.197-0.988v-37.997c1e-3 -0.684 0.274-1.339 0.759-1.822s1.142-0.754 1.827-0.754 1.342 0.271 1.827 0.754 0.758 1.138 0.759 1.822v37.997c0 0.339-0.067 0.675-0.196 0.988-0.13 0.313-0.321 0.598-0.561 0.838-0.24 0.239-0.525 0.429-0.839 0.559s-0.65 0.197-0.99 0.197z" fill="#9AB522"/>
</g>
<defs>
<clipPath id="a">
<rect width="1068" height="785" fill="#fff"/>
</clipPath>
</defs>
</svg>
