<?xml version="1.0" encoding="UTF-8"?>
<svg fill="none" viewBox="0 0 1040 746" xmlns="http://www.w3.org/2000/svg">
<g clip-path="url(#a)">
<path d="m523.93 453.67c173.94 342.78 17.254 382.81-371.99-9.024-102.42-103.1-96.191-271.79 9.023-372.03 105.21-100.24 271.76-96.201 371.99 9.0239 100.23 105.23-74.787 242.44-9.023 372.03z" fill="#F2F2F2"/>
<path d="m301.56 103.63h-112.22v99.407h112.22v-99.407z" fill="#D0CDE1"/>
<path d="m359.2 201.45h-227.44v15.031h227.44v-15.031z" fill="#3F3D56"/>
<path d="m905.27 539.15h-227.44v15.031h227.44v-15.031z" fill="#3F3D56"/>
<path d="m905.27 322.7h-773.51v15.031h773.51v-15.031z" fill="#3F3D56"/>
<path d="m575.62 467c38.182 0 69.135-30.957 69.135-69.143s-30.953-69.143-69.135-69.143-69.135 30.957-69.135 69.143 30.953 69.143 69.135 69.143z" fill="#9AB522"/>
<path d="m566.61 110.76c0 36.814-15.848 37.957-41.666 37.957-25.817 0-51.828-1.143-51.828-37.957s20.929-66.657 46.747-66.657 46.747 29.843 46.747 66.657z" fill="#2F2E41"/>
<path d="m502.48 112.26s11.021 46.095 7.014 51.105c-4.008 5.011 34.066 16.033 34.066 16.033l16.032-44.091-9.018-1.002s-13.026-3.006-9.018-28.058c4.008-25.052-39.076 6.013-39.076 6.013z" fill="#FFB9B9"/>
<path d="m502.48 112.26s11.021 46.095 7.014 51.105c-4.008 5.011 34.066 16.033 34.066 16.033l16.032-44.091-9.018-1.002s-13.026-3.006-9.018-28.058c4.008-25.052-39.076 6.013-39.076 6.013z" fill="#000" opacity=".1"/>
<path d="m520.02 125.29c17.985 0 32.564-14.58 32.564-32.567 0-17.986-14.579-32.567-32.564-32.567-17.984 0-32.563 14.581-32.563 32.567 0 17.987 14.579 32.567 32.563 32.567z" fill="#FFB9B9"/>
<path d="m487.95 276.1-23.045 20.041s-70.137 26.054-54.106 66.137c16.032 40.083 46.09 99.205 46.09 99.205l8.016 19.039h20.039l13.026-6.012-3.006-8.017s-7.014-11.023-7.014-17.035c0-6.013-12.023-75.155-20.039-80.166 0 0 40.078-39.08 69.135-41.085 29.057-2.004 37.072-9.018 53.104 0 16.031 9.019 79.154 26.054 79.154 26.054s34.067 62.129 51.1 73.151c17.033 11.023 31.061 48.1 31.061 48.1l28.055-5.011-14.028-29.06s-14.027-21.043-14.027-30.062c0-9.018-46.09-96.198-79.155-110.23-33.064-14.029-49.092-26.928-49.092-26.928l-73.147 4.882-62.121-3.006z" fill="#2F2E41"/>
<path d="m464.91 466.5s-7.013-5.01-12.023 5.011c-5.01 10.02-19.037 33.068-19.037 33.068s-41.081 31.064-10.02 39.08c0 0 15.029 1.003 41.08-17.035 26.051-18.037 45.088-27.056 46.09-30.062s-6.011-37.076-13.025-37.076-5.01 16.033-13.025 16.033c-5.728 0.137-11.431 0.808-17.034 2.004l-3.006-11.023z" fill="#2F2E41"/>
<path d="m788.67 476.18c-0.902-2.562-2.304-4.919-4.123-6.936-1.82-2.017-4.022-3.652-6.478-4.812s-5.118-1.821-7.832-1.945c-2.713-0.124-5.424 0.292-7.975 1.223-1.539 0.578-2.581 1.179-2.782 1.78-1.002 3.006-10.069 4.491-11.046 2.747-0.977-1.745-7.991-6.755-2.981 12.284s20.039 60.124 28.055 67.139c8.015 7.014 36.07 6.012 38.074-1.002 2.004-7.015-1.002-20.042-5.01-25.052s-11.021-21.044-12.023-27.056c-0.472-2.829-3.162-10.763-5.879-18.37z" fill="#2F2E41"/>
<path d="m608.95 334.73s7.883 33.982 23.36 25.997c15.477-7.984-16.969-39.789-16.969-39.789l-6.391 13.792z" fill="#FFB9B9"/>
<path d="m522.78 315.69s7.883 33.982 23.36 25.998c15.477-7.985-16.969-39.79-16.969-39.79l-6.391 13.792z" fill="#FFB9B9"/>
<path d="m499.98 264.08s-6.012 24.049 2.004 30.062c8.015 6.012 21.041 5.01 43.084 13.027 22.043 8.016 57.111 0 58.113-11.023s-5.01-55.114-5.01-55.114l-98.191 23.048z" fill="#575A89"/>
<path d="m599.17 260.07c-11.593 3.567-19.218 3.958-22.875 7.546-0.455 0.436-0.85 0.931-1.172 1.473-3.006 5.01-16.032 7.014-33.065 3.006-5.707-1.498-11.64-1.933-17.504-1.283-5.822 0.591-11.683 1.824-22.574 1.283-19.007-0.952-28.095-63.191-32.403-79.865-0.231-0.912-0.451-1.684-0.662-2.305-4.008-12.025 17.034-24.05 20.039-27.056 3.006-3.006 12.024-15.031 20.32-16.283 8.286-1.253 20.761 16.283 20.761 16.283s19.538-23.548 17.534-29.561c-2.004-6.012 19.037-2.004 23.045-3.006 2.264-0.571 11.723 1.904 19.528 4.169 3.258 0.941 6.151 2.853 8.294 5.481 2.143 2.629 3.433 5.848 3.699 9.229 0.131 1.633 0.271 3.407 0.411 5.311 2.485 32.727 6.573 102.52-3.376 105.58z" fill="#D0CDE1"/>
<path d="m524.56 270.81c-5.821 0.591-11.683 1.824-22.574 1.283-19.007-0.952-28.095-63.191-32.403-79.866 0.721-5.19 1.342-8.317 1.342-8.317l5.511 7.516s26.552 43.59 33.566 55.615c2.865 4.91 8.747 14.179 14.558 23.769z" fill="#000" opacity=".1"/>
<path d="m476.93 179.9-9.018 4.009s-12.023 60.124 9.018 90.186 29.057 35.073 33.064 40.083c1.199 1.457 2.745 2.588 4.496 3.289 1.752 0.7 3.652 0.948 5.524 0.719 0 0-4.008 10.021 3.006 10.021s33.064-10.021 26.051-13.027c-7.014-3.006-14.028-8.016-12.024-13.027 2.004-5.01-23.045-43.089-30.058-55.114-7.014-12.025-30.059-67.139-30.059-67.139z" fill="#D0CDE1"/>
<path d="m599.17 260.07c-11.592 3.567-19.217 3.958-22.874 7.545-0.922-9.9-0.882-19.229 0.831-26.585 6.159-26.395 10.806-83.552 10.521-97.701-0.034-1.679 0.325 1.002 2.004 1.002v1.002c7.414 0 9.498-2.636 11.582 4.479 0.421 1.423 0.862 2.986 1.313 4.68 2.485 32.727 6.573 102.52-3.377 105.58z" fill="#000" opacity=".1"/>
<path d="m586.14 137.82h3.071c3.608-1e-3 7.12 1.167 10.01 3.329 2.889 2.163 4.999 5.203 6.015 8.666 3.829 13.508 6.82 27.239 8.959 41.115 6.012 37.077 13.025 129.27 12.023 131.27-1.002 2.005 12.024 12.025 6.012 14.029-6.012 2.005-17.033 6.013-22.043 7.015s-15.029-9.019-15.029-9.019-21.041-63.13-14.027-93.192c7.013-30.062 5.009-103.21 5.009-103.21z" fill="#D0CDE1"/>
<path d="m548.09 69.566c0 9.9704-13.677 18.053-30.548 18.053s-32.399 5.3414-32.399-4.629 15.528-31.477 32.399-31.477 30.548 8.0826 30.548 18.053z" fill="#2F2E41"/>
<path d="m473.39 117.01s-1.246 33.561 32.1 31.71c33.347-1.852-4.506-28.688-4.506-28.688l-27.594-3.022z" fill="#2F2E41"/>
<path d="m986.98 456.85-108.26-29.544-26.166 95.9 108.26 29.545 26.166-95.901z" fill="#EAC199"/>
<path d="m1040 694.4c0 10.131-29.44 19.591-80.297 27.557-92.16 14.45-254.65 24.04-439.71 24.04-287.18 0-520-23.098-520-51.597 0-3.938 4.4687-7.796 12.935-11.483 9.5486-4.179 24.197-8.157 43.254-11.875 39.287-7.666 97.33-14.219 168.13-19.089 82.18-5.642 181.56-8.999 288.77-9.129 2.295-0.01 4.596-0.014 6.904-0.01 12.915 0 25.717 0.047 38.405 0.14 5.962 0.04 11.896 0.094 17.805 0.16 63.143 0.672 122.9 2.466 177.21 5.171 2.424 0.12 4.839 0.251 7.244 0.371 0.821 0.04 1.643 0.09 2.465 0.13 0.22 0.01 0.44 0.02 0.661 0.04 10.671 0.561 21.108 1.159 31.311 1.794 3.346 0.2 6.663 0.411 9.949 0.631 31.933 2.075 61.41 4.49 87.922 7.205 4.529 0.461 8.971 0.932 13.326 1.413 33.545 3.678 61.791 7.856 83.553 12.396 32.158 6.703 50.158 14.209 50.158 22.135z" fill="#123B14"/>
<path d="m711.89 677.43c0 12.967-38.615 23.94-91.939 27.688-12.705 0.891-26.261 1.372-40.319 1.372-29.678 0-57.061-2.144-79.134-5.771h-0.01c-32.243-5.301-53.114-13.759-53.114-23.289 0-16.053 59.216-29.059 132.26-29.059 73.043 0 132.26 13.006 132.26 29.059z" fill="#000" opacity=".4"/>
<path d="m619.95 705.12c-12.704 0.891-26.261 1.372-40.318 1.372-29.678 0-57.062-2.144-79.135-5.771l96.448-44.963 23.005 49.362z" fill="#9AB522"/>
<path d="m60.618 677.47c0 17.453-10.373 23.547-23.17 23.547-0.2964 0-0.5928-5e-3 -0.8871-0.011-0.5929-0.013-1.1815-0.04-1.7615-0.081-11.55-0.817-20.522-7.224-20.522-23.455 0-16.793 21.458-37.987 23.075-39.559l0.0021-2e-3c0.0618-0.062 0.0938-0.092 0.0938-0.092s23.17 22.203 23.17 39.653z" fill="#9AB522"/>
<path d="m36.603 698.34 8.4749-11.841-8.4962 13.142-0.0213 1.359c-0.5929-0.013-1.1815-0.04-1.7615-0.081l0.9127-17.459-0.0063-0.137 0.0149-0.023 0.0874-1.651-8.5175-13.174 8.5431 11.937 0.0213 0.35 0.6888-13.192-7.2913-13.613 7.3809 11.299 0.7187-27.351 0.0021-0.094v0.092l-0.1194 21.567 7.2592-8.551-7.2891 10.409-0.1919 11.811 6.7794-11.336-6.8071 13.074-0.1067 6.567 9.8376-15.778-9.876 18.069-0.2367 14.605z" fill="#3F3D56"/>
<path d="m881.22 702.52c0 17.453-10.372 23.546-23.17 23.546-0.297 0-0.593-4e-3 -0.887-0.01-0.593-0.013-1.182-0.041-1.762-0.081-11.55-0.817-20.522-7.224-20.522-23.455 0-16.794 21.458-37.988 23.075-39.559l2e-3 -3e-3c0.062-0.061 0.094-0.091 0.094-0.091s23.17 22.202 23.17 39.653z" fill="#9AB522"/>
<path d="m857.2 723.4 8.474-11.841-8.496 13.142-0.021 1.359c-0.593-0.013-1.182-0.041-1.762-0.081l0.913-17.46-6e-3 -0.136 0.015-0.024 0.087-1.65-8.517-13.175 8.543 11.938 0.021 0.349 0.689-13.191-7.291-13.614 7.38 11.3 0.719-27.351 2e-3 -0.094v0.091l-0.119 21.568 7.259-8.551-7.289 10.408-0.192 11.812 6.779-11.336-6.807 13.074-0.106 6.567 9.837-15.779-9.876 18.07-0.236 14.605z" fill="#3F3D56"/>
<path d="m298.99 628.72c0 20.398-12.124 27.52-27.081 27.52-0.347 0-0.693-5e-3 -1.037-0.012-0.693-0.015-1.381-0.047-2.059-0.095-13.499-0.955-23.985-8.443-23.985-27.413 0-19.628 25.079-44.399 26.969-46.236l2e-3 -3e-3c0.072-0.072 0.11-0.107 0.11-0.107s27.081 25.95 27.081 46.346z" fill="#9AB522"/>
<path d="m270.92 653.12 9.906-13.839-9.931 15.36-0.024 1.588c-0.693-0.015-1.381-0.047-2.059-0.095l1.067-20.406-8e-3 -0.159 0.018-0.028 0.102-1.929-9.955-15.398 9.985 13.952 0.025 0.409 0.805-15.418-8.522-15.911 8.626 13.206 0.84-31.967 3e-3 -0.11v0.107l-0.14 25.207 8.485-9.993-8.52 12.165-0.224 13.805 7.924-13.249-7.956 15.28-0.125 7.676 11.498-18.442-11.543 21.119-0.277 17.07z" fill="#3F3D56"/>
</g>
<defs>
<clipPath id="a">
<rect width="1040" height="746" fill="#fff"/>
</clipPath>
</defs>
</svg>
