<?xml version="1.0" standalone="no"?>
<!DOCTYPE svg PUBLIC "-//W3C//DTD SVG 20010904//EN"
 "http://www.w3.org/TR/2001/REC-SVG-20010904/DTD/svg10.dtd">
<svg version="1.0" xmlns="http://www.w3.org/2000/svg"
 width="613.000000pt" height="613.000000pt" viewBox="0 0 613.000000 613.000000"
 preserveAspectRatio="xMidYMid meet">
<metadata>
Created by potrace 1.14, written by Peter Selinger 2001-2017
</metadata>
<g transform="translate(0.000000,613.000000) scale(0.100000,-0.100000)"
fill="#000000" stroke="none">
<path d="M3751 5994 c-96 -26 -204 -88 -279 -161 l-33 -32 77 -35 c42 -20 78
-36 80 -36 2 0 36 -16 75 -35 40 -19 75 -35 78 -35 3 0 -8 13 -25 28 -59 53
-61 131 -4 172 40 29 84 29 114 1 32 -30 41 -56 65 -175 11 -54 22 -101 25
-104 3 -3 6 19 6 49 1 93 24 188 54 217 57 58 156 19 156 -61 0 -41 -24 -80
-97 -157 -72 -77 -77 -89 -23 -55 75 47 178 95 205 95 69 0 109 -67 81 -135
-18 -43 -52 -65 -101 -65 -36 0 -26 -6 104 -65 80 -36 148 -65 153 -65 4 0 6
45 3 99 -6 162 -59 291 -159 393 -71 71 -154 126 -230 151 -80 26 -249 31
-325 11z"/>
<path d="M2080 5989 c-185 -32 -378 -215 -430 -407 -16 -63 -33 -212 -24 -212
2 0 70 25 152 55 82 30 154 55 160 55 6 0 13 3 15 8 3 4 -23 7 -58 7 -55 0
-66 3 -84 24 -59 68 -23 171 60 171 29 0 60 -15 143 -70 59 -38 110 -70 113
-70 4 0 -9 17 -29 38 -70 72 -118 152 -118 195 0 76 79 116 144 74 40 -27 48
-52 51 -169 2 -60 5 -112 8 -114 2 -3 12 28 22 68 28 116 53 173 85 191 36 21
64 21 100 0 66 -38 66 -127 0 -181 -12 -10 -9 -10 15 -1 17 6 79 28 138 50
158 57 152 47 76 121 -121 117 -235 168 -389 174 -52 1 -120 -1 -150 -7z"/>
<path d="M2840 5895 c-72 -33 -110 -91 -115 -174 -1 -30 -5 -35 -31 -38 -75
-11 -137 -62 -158 -134 -17 -57 -13 -97 17 -152 25 -46 59 -67 152 -97 167
-52 274 -134 328 -248 l30 -64 29 61 c55 114 155 190 323 246 97 32 138 58
164 105 53 96 11 224 -88 266 -18 8 -44 14 -57 14 -22 0 -29 10 -25 34 5 25
-32 115 -56 138 -36 35 -93 58 -140 58 -42 0 -111 -28 -131 -53 -12 -14 -18
-13 -57 15 -54 38 -130 47 -185 23z m237 -217 c4 -40 7 -119 7 -175 1 -55 4
-99 9 -96 4 2 7 11 7 20 0 57 118 226 181 259 39 20 36 5 -7 -37 -57 -54 -132
-204 -158 -314 l-8 -30 30 31 c45 47 93 80 137 94 50 17 144 22 164 10 10 -6
11 -10 4 -10 -16 0 -12 1 -83 -16 -74 -17 -124 -42 -169 -85 -41 -40 -98 -127
-107 -165 -12 -50 -15 -48 -55 34 -66 135 -176 216 -311 226 -39 3 -45 13 -11
20 79 17 202 -24 263 -87 19 -20 38 -37 42 -37 10 0 -36 131 -73 206 -18 36
-53 88 -77 115 -25 28 -42 52 -40 54 10 11 90 -58 125 -107 41 -56 83 -141 83
-166 0 -8 3 -13 6 -9 3 3 8 70 10 149 2 79 6 152 8 163 3 11 5 24 5 29 1 5 4
7 7 4 3 -3 8 -39 11 -80z"/>
<path d="M2209 5379 c-27 -56 -48 -103 -45 -106 2 -3 49 -26 102 -53 l98 -47
52 101 c28 55 51 102 50 102 0 1 -47 25 -103 53 l-103 51 -51 -101z"/>
<path d="M3788 5426 c-48 -24 -91 -47 -97 -50 -7 -5 8 -43 39 -106 28 -55 52
-100 54 -100 6 0 75 33 144 68 l62 32 -50 100 c-28 55 -54 100 -58 100 -5 0
-47 -20 -94 -44z"/>
<path d="M1357 5339 c-141 -32 -238 -154 -241 -304 -1 -26 -5 -30 -31 -32
-140 -9 -225 -64 -279 -176 -58 -123 -36 -245 62 -349 l34 -36 -30 -39 c-44
-53 -64 -117 -64 -194 0 -90 30 -156 97 -218 109 -98 261 -109 385 -27 62 41
142 78 210 98 84 24 231 48 296 48 65 0 195 -33 250 -64 28 -16 44 -20 44 -12
0 6 -4 16 -8 21 -12 13 -48 110 -62 163 -39 154 3 354 125 588 50 97 57 119
62 185 5 70 3 80 -26 142 -86 180 -304 238 -456 121 l-46 -35 -50 45 c-72 65
-181 95 -272 75z m209 -286 c0 -93 12 -174 33 -239 25 -79 78 -207 109 -264
51 -94 84 -150 87 -150 2 0 -2 17 -9 38 -9 24 -13 74 -12 133 2 114 25 182 91
274 42 60 132 141 143 131 2 -3 -12 -24 -31 -47 -50 -58 -114 -184 -131 -260
-19 -78 -15 -201 8 -287 20 -76 62 -173 79 -184 8 -5 7 -8 -5 -8 -9 0 -19 4
-22 9 -3 4 -27 16 -53 25 -26 10 -57 21 -68 26 -46 20 -155 36 -230 35 -126
-4 -231 -42 -343 -127 -35 -27 -65 -48 -68 -48 -34 0 108 138 186 179 34 18
86 39 116 46 62 14 196 12 238 -4 25 -10 27 -10 17 3 -18 21 -285 151 -361
175 -84 26 -224 49 -283 45 -65 -5 -59 12 11 27 133 27 326 -10 488 -96 l69
-37 -110 114 c-176 181 -323 348 -306 348 15 0 194 -157 336 -294 66 -63 121
-116 122 -116 1 0 -10 21 -26 48 -100 170 -140 397 -95 545 10 34 19 16 20
-40z"/>
<path d="M4608 5328 c-36 -12 -76 -36 -108 -65 l-51 -46 -27 26 c-58 56 -170
84 -257 65 -100 -23 -171 -80 -217 -177 -28 -59 -30 -70 -25 -138 4 -57 13
-87 37 -131 47 -86 107 -214 113 -242 4 -14 15 -58 27 -99 38 -141 26 -288
-34 -425 -14 -32 -26 -60 -26 -62 0 -1 24 8 54 21 128 57 234 66 397 36 121
-22 230 -58 298 -98 132 -77 190 -94 272 -82 105 16 179 72 229 173 53 109 44
210 -27 310 l-35 48 33 32 c197 193 66 528 -207 528 -19 0 -34 3 -35 7 0 3 -2
29 -5 56 -6 76 -59 172 -118 216 -83 63 -189 80 -288 47z m-24 -235 c41 -149
14 -328 -79 -513 -19 -38 -35 -72 -35 -75 0 -2 33 28 73 68 180 177 359 337
379 337 8 0 -49 -73 -102 -130 -8 -9 -33 -36 -54 -61 -21 -24 -89 -94 -149
-156 l-111 -112 98 49 c113 56 227 86 341 89 77 2 192 -15 181 -27 -3 -3 -41
-6 -85 -8 -148 -4 -286 -46 -482 -146 -136 -69 -165 -92 -91 -72 61 16 194 11
257 -11 73 -25 153 -79 212 -144 79 -84 72 -90 -22 -20 -109 82 -218 121 -345
124 -101 3 -214 -21 -304 -64 -33 -17 -62 -29 -63 -28 -1 1 11 30 27 63 70
145 86 326 41 463 -23 71 -100 201 -134 230 -9 7 -17 17 -17 22 0 21 26 4 88
-59 69 -69 114 -146 137 -234 16 -60 16 -167 0 -229 -7 -27 -9 -47 -4 -43 5 3
9 10 9 16 0 6 6 19 14 27 26 29 124 235 150 314 34 104 54 212 52 286 -1 59 7
80 18 44z"/>
<path d="M2578 5134 c-74 -14 -139 -44 -181 -83 -29 -26 -127 -185 -147 -236
-8 -22 -8 -30 2 -37 21 -13 23 -11 71 60 101 151 207 226 347 247 25 3 54 8
65 10 11 2 41 4 68 4 40 1 47 4 47 21 0 16 -7 20 -37 21 -129 5 -177 3 -235
-7z"/>
<path d="M3315 5142 c-85 -7 -65 -37 30 -46 150 -13 210 -31 289 -85 50 -34
123 -117 171 -194 52 -82 84 -52 40 38 -76 157 -151 234 -261 269 -50 16 -186
25 -269 18z"/>
<path d="M2734 5015 c-148 -31 -231 -112 -269 -264 -9 -32 -14 -73 -13 -91 3
-33 3 -33 -60 -46 -167 -35 -261 -133 -288 -301 -7 -41 12 -154 30 -178 10
-14 15 -12 46 13 149 123 369 232 568 282 l43 11 -33 45 c-17 25 -54 66 -80
92 -26 26 -48 51 -48 55 0 20 90 -44 155 -110 69 -70 74 -73 111 -68 22 3 61
7 87 9 27 2 50 5 52 7 2 2 6 49 10 104 9 142 12 165 19 172 3 4 6 2 7 -3 0 -5
2 -22 4 -39 2 -16 6 -75 10 -130 3 -55 8 -102 11 -104 2 -2 30 -6 61 -8 32 -2
71 -5 87 -8 24 -3 36 5 78 50 51 56 166 140 177 129 3 -3 -5 -15 -19 -27 -14
-12 -52 -53 -84 -91 -58 -68 -59 -70 -35 -77 239 -69 407 -146 544 -249 44
-33 83 -60 87 -60 9 0 26 60 34 116 12 84 -30 205 -96 273 -46 47 -134 90
-201 98 -27 3 -50 9 -50 12 -1 3 -3 26 -4 51 -10 207 -158 346 -364 342 -63
-1 -148 -36 -200 -81 l-44 -39 -53 43 c-82 67 -178 91 -280 70z"/>
<path d="M5339 4501 c-13 -5 -4 -31 55 -153 77 -159 88 -178 77 -126 -21 92
34 157 119 143 101 -17 99 -89 -7 -279 -19 -32 -32 -60 -30 -62 1 -2 34 29 72
67 105 106 155 123 214 73 68 -57 23 -151 -79 -168 -19 -3 -45 -8 -58 -10 -13
-3 -45 -6 -73 -8 -62 -4 -63 -14 -3 -23 25 -3 53 -8 62 -9 10 -2 35 -7 57 -11
59 -10 104 -34 119 -64 23 -46 4 -101 -44 -126 -44 -23 -84 -19 -121 13 -18
15 -31 23 -27 17 3 -5 35 -72 72 -148 l66 -139 31 33 c146 156 201 364 149
564 -62 240 -280 408 -542 419 -51 2 -100 1 -109 -3z"/>
<path d="M563 4450 c-122 -30 -200 -74 -288 -166 -109 -113 -156 -238 -151
-402 3 -115 8 -138 46 -219 32 -70 71 -129 124 -187 l35 -39 10 24 c5 13 37
84 70 158 34 74 61 135 61 136 0 2 -17 -15 -39 -36 -32 -32 -45 -39 -77 -39
-75 1 -127 75 -97 138 19 40 55 55 182 81 58 12 107 23 109 26 3 3 -17 6 -44
6 -175 4 -249 40 -249 121 0 53 38 88 95 88 32 0 49 -9 97 -49 32 -27 71 -63
87 -80 42 -44 51 -39 20 11 -42 66 -94 180 -94 206 0 34 17 60 52 78 66 34
147 -17 149 -94 l0 -37 24 50 c78 166 104 228 99 236 -9 15 -143 7 -221 -11z"/>
<path d="M1794 4014 c-149 -30 -237 -107 -273 -239 -10 -39 -19 -80 -20 -100
-1 -6 -32 -10 -69 -11 -194 -3 -338 -164 -327 -366 3 -68 50 -175 90 -207 32
-24 31 -33 -5 -73 -119 -129 -113 -345 13 -470 63 -62 145 -94 262 -101 24 -1
39 -7 38 -14 -5 -23 29 -129 54 -173 48 -82 134 -140 238 -159 63 -12 186 7
201 31 3 5 -10 28 -29 51 -49 60 -118 170 -162 256 -37 74 -105 267 -105 299
0 9 -4 23 -9 31 -11 18 -50 -8 -138 -93 -35 -32 -63 -55 -63 -50 0 32 155 214
182 214 4 0 4 21 1 48 -4 26 -7 68 -7 94 -1 41 -4 48 -21 49 -29 1 -145 10
-175 14 -14 1 -41 3 -59 4 -21 1 -31 5 -25 10 9 9 108 19 217 23 44 1 57 5 58
17 3 55 9 110 14 135 4 25 -2 35 -51 79 -53 48 -139 165 -129 175 3 3 27 -18
55 -46 28 -28 70 -65 94 -82 l44 -30 12 53 c43 185 151 405 269 551 17 21 31
42 31 47 0 4 -15 12 -32 18 -77 24 -114 28 -174 15z"/>
<path d="M4278 4025 c-2 -2 -19 -5 -39 -8 -19 -2 -51 -10 -71 -17 l-36 -13 57
-76 c125 -166 215 -357 255 -544 l6 -27 38 25 c20 14 63 51 96 83 47 45 57 52
51 32 -10 -35 -82 -126 -132 -168 -31 -26 -41 -41 -38 -56 5 -20 13 -106 14
-152 1 -17 8 -20 44 -22 204 -10 238 -14 225 -27 -5 -5 -180 -19 -240 -19 -24
0 -28 -4 -29 -31 0 -16 -2 -41 -4 -55 -13 -98 -11 -104 38 -150 55 -50 111
-124 122 -160 5 -20 -3 -15 -46 29 -30 29 -72 66 -95 82 l-41 28 -18 -72 c-36
-148 -163 -418 -225 -477 -18 -17 -70 -90 -70 -98 0 -5 20 -15 44 -22 90 -25
159 -18 251 24 115 53 177 151 194 309 1 4 20 6 44 6 43 -2 141 22 188 47 42
21 102 86 127 136 64 131 48 272 -44 385 l-36 43 33 37 c118 135 112 345 -15
474 -59 60 -183 106 -260 97 l-33 -4 -12 64 c-29 160 -131 261 -288 290 -29 5
-54 8 -55 7z"/>
<path d="M748 3929 l-97 -50 51 -104 52 -103 100 50 c56 28 102 52 104 53 5 4
-100 205 -107 204 -3 0 -50 -23 -103 -50z"/>
<path d="M5227 3864 c-26 -52 -45 -99 -43 -103 6 -9 197 -104 201 -99 7 8 95
189 95 196 0 7 -183 102 -198 102 -4 0 -29 -43 -55 -96z"/>
<path d="M4796 3873 c-17 -17 -1 -41 46 -68 74 -44 181 -151 213 -215 28 -56
65 -231 61 -290 -2 -23 2 -30 15 -30 39 0 38 239 -1 344 -13 33 -40 78 -60
100 -56 60 -256 177 -274 159z"/>
<path d="M1242 3820 c-173 -94 -222 -147 -252 -270 -17 -68 -18 -276 -1 -293
18 -18 28 3 35 73 12 131 21 170 54 240 33 67 126 163 210 215 42 25 61 43 57
53 -3 7 -5 16 -5 18 0 12 -32 0 -98 -36z"/>
<path d="M595 3590 c-80 -18 -140 -77 -153 -151 -7 -40 -10 -44 -37 -45 -112
-2 -195 -83 -195 -189 0 -46 26 -111 54 -134 13 -11 11 -18 -15 -55 -89 -126
-10 -296 139 -300 37 -1 43 -4 48 -26 19 -86 45 -125 104 -155 46 -24 124 -24
174 0 44 21 90 87 101 143 3 20 26 78 50 127 52 108 111 172 201 216 l64 32
-60 28 c-111 53 -199 170 -249 333 -22 72 -56 126 -94 151 -31 20 -97 32 -132
25z m143 -336 c39 -77 120 -143 220 -183 39 -16 44 -20 27 -26 -61 -21 -135
-63 -173 -99 -61 -56 -90 -110 -111 -207 -13 -64 -20 -79 -25 -62 -13 39 3
146 30 200 14 29 45 70 70 92 l46 40 -74 -21 c-95 -26 -210 -86 -275 -144 -59
-51 -67 -47 -24 13 44 61 156 134 251 164 19 5 10 8 -35 9 -64 2 -145 5 -238
10 -32 2 -60 7 -63 11 -6 10 97 20 239 22 79 1 110 5 95 11 -119 45 -199 99
-254 171 -39 51 -22 55 28 6 52 -50 151 -103 264 -141 l84 -29 -50 50 c-27 27
-59 69 -70 94 -23 51 -36 142 -25 182 7 24 10 18 24 -47 10 -41 27 -94 39
-116z"/>
<path d="M5485 3592 c-63 -11 -116 -46 -140 -92 -7 -14 -24 -59 -38 -100 -55
-162 -133 -263 -245 -317 l-61 -29 60 -29 c113 -53 199 -169 249 -336 25 -82
62 -132 113 -155 114 -52 240 11 265 132 7 37 10 39 52 45 65 10 91 22 128 60
66 67 70 162 13 246 -29 41 -29 41 -9 59 48 45 61 138 29 210 -30 66 -90 101
-186 109 -15 1 -21 11 -26 38 -8 53 -37 102 -73 123 -38 23 -104 41 -131 36z
m-29 -249 c-7 -84 -32 -137 -89 -195 -25 -27 -45 -48 -43 -48 19 0 154 49 201
72 60 30 143 91 158 115 9 14 27 18 27 5 0 -4 -22 -33 -50 -64 -52 -59 -108
-96 -195 -132 l-53 -21 142 -3 c77 -2 152 -5 166 -7 14 -2 32 -4 40 -4 12 -1
12 -3 -2 -11 -9 -6 -87 -12 -174 -15 -86 -2 -159 -7 -162 -10 -3 -3 1 -5 9 -5
24 0 152 -65 188 -96 36 -30 91 -101 91 -116 0 -5 -26 13 -57 41 -62 56 -160
107 -267 140 -84 26 -85 26 -50 -1 76 -59 115 -136 120 -235 1 -40 -1 -75 -7
-78 -5 -4 -10 0 -10 7 -13 154 -87 266 -221 333 -39 19 -74 32 -79 29 -5 -3
-9 -1 -9 3 0 5 23 17 50 27 28 10 75 36 104 58 88 65 134 144 151 262 11 73
28 31 21 -51z"/>
<path d="M2952 3446 c-78 -26 -116 -48 -167 -100 -207 -210 -123 -569 154
-656 264 -83 521 102 521 374 0 166 -96 309 -248 370 -62 24 -202 31 -260 12z"/>
<path d="M5125 2850 c-4 -6 -9 -32 -11 -58 -14 -169 -51 -271 -126 -352 -40
-43 -150 -130 -163 -130 -12 0 -35 -29 -35 -44 0 -23 23 -20 83 10 90 46 183
111 211 147 53 70 70 138 71 284 0 86 -4 136 -11 143 -9 9 -14 9 -19 0z"/>
<path d="M979 2803 c-10 -218 5 -305 72 -398 21 -30 61 -61 132 -103 118 -70
151 -82 161 -56 4 9 5 18 4 19 -2 1 -30 20 -63 42 -118 79 -201 174 -229 261
-18 57 -25 94 -33 190 -5 61 -9 72 -24 72 -14 0 -19 -8 -20 -27z"/>
<path d="M310 2619 c-115 -119 -171 -243 -175 -390 -6 -181 49 -316 182 -446
89 -87 240 -148 391 -157 49 -2 52 -1 46 18 -9 33 -106 301 -110 305 -2 2 -3
-18 -2 -45 2 -63 -21 -100 -73 -116 -75 -22 -139 33 -125 108 4 17 34 71 67
120 52 76 90 142 62 109 -16 -20 -108 -92 -150 -119 -49 -30 -83 -33 -124 -9
-37 22 -50 59 -35 102 20 60 49 73 176 77 62 2 115 6 118 8 2 3 -16 10 -39 16
-115 29 -186 57 -213 83 -24 24 -28 33 -23 65 4 24 17 47 38 66 28 25 38 28
78 23 29 -3 51 -12 62 -26 17 -21 36 -30 24 -12 -5 9 -51 132 -81 221 -9 25
-20 49 -24 54 -5 5 -36 -19 -70 -55z"/>
<path d="M5765 2618 c-15 -35 -45 -101 -67 -147 -40 -87 -44 -109 -11 -68 38
49 93 60 143 30 50 -29 66 -99 32 -139 -19 -22 -86 -50 -142 -59 -19 -3 -60
-11 -90 -19 l-55 -14 45 -2 c25 -1 54 -3 65 -5 11 -2 40 -7 65 -10 63 -10 99
-31 115 -67 26 -63 -17 -127 -86 -128 -41 0 -82 27 -167 109 -60 57 -73 64
-46 24 41 -63 104 -196 104 -219 0 -38 -18 -64 -55 -79 -78 -33 -153 23 -147
109 3 39 1 36 -41 -59 -19 -44 -46 -106 -61 -137 -14 -31 -26 -62 -26 -68 0
-13 147 -9 220 5 141 28 292 138 374 274 101 165 97 406 -9 582 -36 58 -111
149 -124 149 -5 0 -21 -28 -36 -62z"/>
<path d="M696 2360 c-28 -55 -48 -102 -45 -104 7 -7 191 -96 198 -96 9 0 106
198 100 204 -7 7 -190 96 -197 96 -4 0 -29 -45 -56 -100z"/>
<path d="M5285 2401 c-50 -25 -96 -49 -102 -54 -9 -5 3 -37 39 -107 27 -55 52
-100 54 -100 3 0 49 23 104 50 l100 50 -51 103 c-28 56 -52 102 -53 103 0 1
-42 -20 -91 -45z"/>
<path d="M994 2175 c-27 -12 -64 -34 -82 -49 -64 -55 -111 -163 -106 -249 3
-49 39 -140 74 -184 l20 -26 -39 -42 c-46 -51 -60 -75 -76 -135 -39 -148 45
-314 185 -363 37 -13 83 -22 141 -26 4 -1 7 -24 8 -52 1 -86 60 -189 132 -235
56 -35 144 -57 201 -51 67 8 147 46 191 92 l36 37 23 -22 c45 -44 127 -74 203
-74 119 0 216 59 273 169 22 42 26 63 27 130 0 79 -1 82 -67 215 -97 195 -122
283 -122 440 0 129 12 184 64 292 10 21 17 38 16 38 -1 0 -25 -11 -52 -24
-103 -50 -229 -69 -339 -51 -172 28 -297 68 -399 130 -116 70 -216 83 -312 40z
m213 -219 c132 -100 240 -137 392 -132 77 2 115 9 191 35 52 18 103 39 112 48
24 22 33 10 14 -19 -17 -26 -61 -155 -72 -208 -11 -58 -12 -167 -2 -223 15
-80 63 -183 119 -254 28 -36 48 -67 45 -70 -9 -9 -86 57 -126 108 -77 98 -116
219 -107 334 4 40 11 85 17 101 l10 29 -20 -25 c-32 -41 -147 -279 -170 -355
-28 -90 -47 -206 -44 -272 2 -57 -9 -71 -21 -25 -14 56 -16 69 -16 134 1 121
42 268 114 398 l30 55 -104 -101 c-193 -188 -346 -321 -357 -310 -4 4 0 13 8
19 8 7 35 37 60 67 46 57 150 167 278 297 l73 74 -75 -40 c-167 -89 -364 -125
-504 -92 -29 7 -51 15 -49 18 3 2 45 6 93 8 128 5 222 28 354 87 76 34 193 93
235 121 27 17 28 18 5 12 -14 -4 -64 -9 -112 -12 -70 -4 -100 -1 -155 16 -108
32 -231 123 -273 200 -15 30 -7 27 57 -23z"/>
<path d="M4920 2186 c-19 -7 -64 -32 -99 -54 -116 -76 -276 -121 -446 -128
-123 -4 -183 7 -278 54 -44 22 -56 25 -51 13 70 -169 90 -281 72 -395 -16
-108 -94 -324 -140 -388 -63 -90 -73 -234 -23 -326 49 -90 103 -133 197 -157
91 -24 190 -3 271 59 l33 26 35 -36 c18 -19 59 -47 89 -62 46 -23 67 -27 132
-26 63 1 86 6 133 29 96 49 164 151 167 254 2 28 5 51 8 52 3 1 25 3 50 5 113
9 198 67 250 170 31 59 35 77 34 139 -1 60 -6 81 -33 132 -18 34 -45 73 -61
88 l-28 27 38 61 c67 107 73 196 20 304 -33 66 -91 124 -150 150 -49 21 -176
26 -220 9z m70 -195 c0 -18 -125 -138 -172 -165 -80 -47 -157 -65 -261 -61
-51 1 -105 8 -122 14 -58 23 -9 -8 117 -74 195 -102 340 -146 490 -149 43 0
78 -4 78 -8 0 -15 -88 -30 -170 -30 -107 1 -231 35 -355 97 l-89 45 64 -67
c36 -37 76 -78 90 -92 21 -22 91 -99 239 -263 34 -38 19 -47 -21 -13 -90 75
-184 161 -291 265 -140 135 -136 132 -114 100 47 -71 111 -239 123 -325 10
-77 8 -165 -6 -223 -7 -29 -14 -51 -17 -49 -2 3 -6 45 -8 94 -3 100 -24 194
-66 301 -53 132 -170 355 -155 292 14 -55 17 -169 7 -224 -14 -73 -49 -149
-100 -213 -40 -51 -118 -119 -127 -111 -2 3 13 27 35 54 98 123 142 253 136
398 -2 50 -5 100 -8 111 -12 51 -50 153 -68 184 -11 18 -18 35 -17 37 2 1 30
-10 63 -26 137 -65 318 -84 452 -46 64 17 163 73 218 120 41 36 55 43 55 27z"/>
<path d="M2126 1960 c-63 -157 9 -347 158 -420 33 -16 84 -32 111 -36 28 -3
52 -8 54 -10 2 -2 5 -28 7 -58 8 -199 151 -337 350 -338 83 -1 157 28 221 86
l40 36 24 -26 c121 -130 360 -128 487 4 58 59 104 183 96 258 -3 31 9 44 42
44 39 0 120 30 168 61 120 80 176 263 121 395 l-15 36 -42 -35 c-151 -121
-349 -221 -525 -262 -40 -10 -73 -21 -73 -25 0 -12 40 -62 99 -122 30 -32 52
-60 49 -63 -10 -10 -125 74 -172 126 l-46 50 -92 -6 c-51 -4 -94 -8 -95 -9 0
0 -4 -47 -8 -103 -3 -57 -8 -117 -10 -134 -5 -34 -14 -51 -16 -28 -1 8 -3 23
-4 34 -2 11 -6 67 -10 125 -3 58 -7 105 -8 106 -1 1 -42 5 -92 9 l-90 6 -71
-69 c-60 -59 -154 -125 -154 -107 0 3 17 22 38 43 21 20 57 61 81 91 l42 54
-70 19 c-188 49 -387 149 -532 270 l-47 38 -16 -40z"/>
<path d="M2264 1303 c9 -36 90 -177 131 -228 57 -71 163 -110 302 -114 115 -3
172 6 166 27 -3 12 -15 17 -40 17 -52 -1 -211 30 -254 48 -80 35 -162 111
-230 215 -28 41 -48 62 -61 62 -17 0 -19 -5 -14 -27z"/>
<path d="M3819 1278 c-90 -142 -214 -235 -339 -254 -19 -3 -51 -9 -70 -13 -19
-3 -54 -6 -77 -6 -31 0 -43 -4 -46 -17 -6 -22 15 -26 133 -26 201 0 294 42
378 172 48 75 92 163 92 184 0 6 -9 12 -19 12 -12 0 -31 -19 -52 -52z"/>
<path d="M3036 1058 c-55 -117 -158 -193 -346 -255 -87 -28 -132 -66 -153
-127 -38 -112 29 -224 151 -251 17 -3 32 -7 33 -8 0 -1 2 -22 6 -47 11 -91 62
-149 152 -169 51 -11 128 8 156 39 22 24 38 25 56 4 41 -50 138 -61 213 -25
57 28 95 88 98 154 2 44 4 46 38 52 118 22 187 132 154 246 -19 62 -66 103
-151 129 -173 53 -295 143 -349 257 l-29 62 -29 -61z m116 -235 c22 -29 61
-65 86 -82 51 -32 139 -61 184 -61 15 0 28 -4 28 -10 0 -6 -28 -10 -65 -10
-105 0 -212 51 -256 124 -26 43 -24 21 7 -71 40 -119 88 -205 149 -266 32 -31
27 -47 -7 -25 -34 22 -108 101 -108 115 0 6 -4 13 -8 15 -11 4 -62 113 -62
132 0 8 -3 17 -7 19 -5 3 -9 -36 -9 -86 -2 -144 -7 -230 -15 -257 -4 -14 -8
-20 -9 -15 -1 6 -3 19 -6 30 -2 11 -6 85 -8 165 -3 80 -5 147 -6 150 0 3 -14
-26 -30 -64 -16 -37 -45 -88 -63 -112 -35 -45 -102 -104 -118 -104 -14 0 -10
18 5 27 20 11 79 90 105 140 21 42 63 148 67 169 1 6 5 21 9 33 4 15 -9 6 -42
-27 -62 -62 -137 -92 -230 -92 -74 0 -77 15 -6 24 140 18 252 112 308 259 l18
48 25 -58 c13 -32 42 -81 64 -110z"/>
<path d="M2239 900 l-97 -49 50 -101 c28 -55 54 -100 59 -100 7 0 178 83 197
96 6 4 -98 204 -106 203 -4 0 -50 -22 -103 -49z"/>
<path d="M3713 846 l-51 -102 104 -52 104 -52 46 98 c26 53 49 100 51 104 2 3
-36 26 -84 49 -49 23 -95 45 -104 50 -12 6 -26 -13 -66 -95z"/>
<path d="M4420 771 c-42 -20 -100 -47 -130 -61 -30 -13 -64 -30 -75 -37 -18
-12 -16 -13 21 -9 89 8 148 -57 125 -136 -12 -39 -50 -68 -89 -68 -11 0 -73
27 -137 60 l-118 60 77 -80 c106 -111 120 -157 67 -211 -37 -36 -84 -39 -122
-6 -35 30 -54 95 -64 217 -2 23 -5 44 -8 46 -3 3 -12 -37 -21 -88 -21 -120
-41 -172 -70 -188 -102 -54 -200 83 -118 165 32 32 24 30 -131 -47 -65 -32
-122 -58 -127 -58 -32 0 38 -67 134 -127 117 -74 288 -101 427 -68 116 28 175
61 265 150 124 122 174 244 175 424 0 51 -1 94 -3 96 -2 2 -37 -14 -78 -34z"/>
<path d="M1663 693 c6 -112 10 -135 36 -204 45 -118 134 -223 247 -292 66 -40
191 -74 280 -76 66 -2 177 21 240 50 83 38 228 149 213 163 -2 2 -56 27 -119
55 -63 29 -133 62 -155 73 l-40 22 43 -47 c46 -51 52 -78 27 -132 -26 -54
-101 -73 -143 -36 -25 21 -48 79 -57 143 -4 23 -8 45 -10 48 -2 3 -6 23 -9 44
-8 47 -16 59 -17 25 -2 -47 -13 -140 -25 -195 -13 -66 -103 -102 -150 -60 -63
55 -45 120 62 231 35 37 64 69 64 72 0 3 -12 -3 -27 -12 -63 -42 -198 -105
-223 -105 -61 0 -104 71 -81 133 18 48 65 77 110 70 14 -2 22 -1 19 3 -10 9
-269 124 -280 124 -7 0 -8 -37 -5 -97z"/>
</g>
</svg>
