<?xml version="1.0" encoding="UTF-8"?>
<svg width="241.15mm" height="68.782mm" version="1.1" viewBox="0 0 241.15 68.782" xmlns="http://www.w3.org/2000/svg">
<g transform="translate(-61.849 -65.138)" fill-rule="evenodd">
<path d="m76.649 69.512c0.05926 0.86954 0.51125 1.3987 1.3587 1.5875 0.45751 0.09371 1.0349 0.34038 1.7281 0.74001 0.68213 0.41203 1.1755 1.0818 1.4814 2.0106 0.30592-0.93982 0.82407-1.6164 1.553-2.0285 0.74001-0.41066 1.3629-0.66421 1.8686-0.75792h0.01792c0.71796-0.25907 1.0997-0.77584 1.1465-1.5517-0.09371-0.97703-0.62838-1.5117-1.6054-1.6054h-0.03447c-0.02343 0-0.04134-0.0055-0.05374-0.01791-0.01101-0.0124-0.01655-0.02894-0.01655-0.05237 0.02343-0.09508 0.03447-0.17639 0.03447-0.24805-0.09371-0.97565-0.63528-1.5103-1.622-1.604-0.49471 0.01102-0.90537 0.20533-1.2347 0.58153-0.01242 0.0124-0.02342 0.01791-0.03583 0.01791-0.02342 0-0.04134-0.0055-0.05237-0.01791-0.32935-0.3762-0.74138-0.57051-1.2347-0.58153-0.98805 0.09371-1.5227 0.62838-1.6054 1.604 0 0.08268 0.0055 0.16536 0.01792 0.24805 0 0.02343-0.0069 0.03996-0.01792 0.05237-0.01242 0.0124-0.0303 0.01791-0.05374 0.01791h-0.01655c-0.98805 0.09371-1.5296 0.62838-1.6233 1.6054m1.3408 0.44097c0.37621-0.05926 0.74001-0.05926 1.0928 0 0.42443 0.07028 0.80064 0.24116 1.13 0.51125 0.2701 0.21084 0.49885 0.48231 0.68764 0.81166-0.01242-0.0124-0.01792-0.01791-0.01792-0.01791-0.11713-0.48231-0.24667-0.91777-0.38861-1.305-0.17639-0.44786-0.36932-0.84198-0.58153-1.1824-0.23564-0.34038-0.49334-0.63528-0.77584-0.88194-0.02343-0.02343-0.0303-0.04685-0.01792-0.07028 0.02343-0.03583 0.05237-0.04685 0.08819-0.03583 0.35278 0.17639 0.66421 0.44097 0.93431 0.79375 0.2825 0.34175 0.51814 0.75241 0.70556 1.2347 0.07166 0.19982 0.13643 0.41203 0.1943 0.63528v-0.4768c0-0.93982 0.04134-1.8342 0.12402-2.6803 0.01101-0.03583 0.03447-0.05374 0.07028-0.05374 0.02342 0 0.04134 0.01791 0.05237 0.05374 0.0827 0.83509 0.12404 1.7281 0.12404 2.6803v0.44097c0.05926-0.21084 0.12402-0.41066 0.1943-0.59945 0.18741-0.48231 0.41754-0.89297 0.68764-1.2347 0.2825-0.35278 0.59945-0.61736 0.95222-0.79375 0.03583-0.01103 0.06477 0 0.08819 0.03583 0.01242 0.02343 0.0055 0.04685-0.01792 0.07028-0.29352 0.24667-0.5526 0.54157-0.77584 0.88194-0.21084 0.34038-0.40514 0.73449-0.58153 1.1824-0.15296 0.39963-0.28801 0.83371-0.40652 1.305v0.01791c0.18879-0.32935 0.41754-0.60082 0.68902-0.81166 0.32935-0.2701 0.70556-0.44097 1.1286-0.51125 0.35278-0.07166 0.71658-0.07166 1.0928 0 0.03583 0.01102 0.05374 0.03445 0.05374 0.07028-0.01242 0.03445-0.03583 0.05237-0.07028 0.05237-0.3762 0.02343-0.71244 0.08268-1.006 0.17639-0.36518 0.10611-0.68764 0.2701-0.97014 0.49472-0.2701 0.22324-0.51125 0.49885-0.72347 0.8282-0.18741 0.30592-0.33486 0.61736-0.44097 0.93569l-0.01791 0.14056c0 0.04685-0.01655 0.07028-0.05237 0.07028-0.04685-0.01102-0.07028-0.03445-0.07028-0.07028s-0.0055-0.07579-0.01792-0.12402v-0.01654c-0.10611-0.31833-0.25218-0.62976-0.44097-0.93569-0.21222-0.32935-0.45338-0.60496-0.72347-0.8282-0.2825-0.21222-0.60496-0.3762-0.97014-0.49472-0.30592-0.09371-0.6463-0.15296-1.0225-0.17639-0.02343 0-0.04134-0.01791-0.05374-0.05237 0-0.03583 0.01792-0.05926 0.05374-0.07028m-15.382 8.1483c0.08268 0.08268 0.1819 0.17088 0.30041 0.26458 0.02342 0 0.03447 0.0124 0.03447 0.03583s-0.0055 0.04134-0.01655 0.05237c-0.01242 0.0124-0.02342 0.01791-0.03583 0.01791 0 0.0124-0.0055 0.01791-0.01792 0.01791-0.49334 0.51676-0.7469 1.1341-0.75792 1.8521 0.01101 0.70556 0.26458 1.3174 0.75792 1.8342 0.51814 0.49334 1.1355 0.7469 1.8521 0.75792 0.55259 0 1.0583-0.16399 1.5172-0.49334 0.86954-0.63528 2.2104-1.0459 4.0211-1.2347 1.0115 0 1.9403 0.26458 2.7878 0.79375-0.76481-1.4235-0.97014-2.7933-0.61736-4.1093 0.3638-1.3174 0.78824-2.311 1.2692-2.9821v-0.03445c0.52917-1.1286 0.38309-2.158-0.44097-3.0868-0.51677-0.49472-1.1341-0.7469-1.8521-0.7593-0.70556 0.0124-1.316 0.26458-1.8342 0.7593-0.01101 0.01102-0.01792 0.01791-0.01792 0.01791 0 0.01102-0.0055 0.02343-0.01655 0.03445-0.01242 0.0124-0.0303 0.01791-0.05374 0.01791-0.01101 0-0.02893-0.0124-0.05237-0.03583-0.08268-0.11713-0.16536-0.21635-0.24667-0.29904-0.51814-0.49472-1.13-0.7469-1.8355-0.7593-0.71658 0.0124-1.3339 0.26458-1.8521 0.7593-0.55259 0.57602-0.79926 1.2692-0.74001 2.0808 0 0.0124-0.0055 0.03032-0.01792 0.05374-0.02342 0.01102-0.04134 0.01654-0.05237 0.01654-0.08268-0.01102-0.15985-0.01654-0.23013-0.01654-0.71658 0.01102-1.3339 0.26458-1.8521 0.75792-1.0115 1.2347-1.0115 2.4639 0 3.6863m1.2347-0.74001c0.58842-0.19982 1.2347-0.26458 1.9403-0.1943 0.69453 0.08268 1.4111 0.28801 2.1525 0.61736 0.42306 0.18741 0.83509 0.41066 1.2347 0.66973-0.25907-0.25907-0.51814-0.51125-0.77584-0.75792-1.0707-1.0818-2.0285-2.1401-2.876-3.175-0.02342-0.02343-0.02342-0.05374 0-0.08819 0.03583-0.0124 0.06477-0.0124 0.08819 0 1.0349 0.85852 2.0932 1.8218 3.175 2.8925 0.23564 0.23564 0.4768 0.48231 0.72347 0.74138-0.25907-0.40101-0.4768-0.80064-0.65319-1.2003-0.32935-0.74001-0.52917-1.458-0.59945-2.1511-0.08268-0.70556-0.02343-1.3532 0.17639-1.9403 0.01242-0.03583 0.03583-0.05374 0.07028-0.05374 0.03583 0.0124 0.05374 0.03583 0.05374 0.07028-0.04685 0.60082-0.0055 1.2292 0.12265 1.8879 0.14194 0.62287 0.37069 1.2871 0.68902 1.9926 0.25769 0.61185 0.59394 1.2526 1.0046 1.9237 0.05926 0.09371 0.11851 0.1819 0.17639 0.26458l-0.01792-0.01791c-0.22324-0.64768-0.29904-1.2885-0.22876-1.9224 0.08268-0.6711 0.31695-1.283 0.70556-1.8355 0.31695-0.46991 0.72898-0.87505 1.2347-1.2168 0.02342-0.02343 0.04685-0.01791 0.07028 0.01791 0.02342 0.02343 0.02342 0.04685 0 0.07028-0.3996 0.44649-0.71654 0.89986-0.95219 1.3587-0.2825 0.52917-0.45889 1.0818-0.52917 1.6578-0.05926 0.55259-0.02342 1.1341 0.10611 1.746 0.12954 0.565 0.31695 1.0886 0.56362 1.5696v0.01791c0.05926 0.05926 0.11162 0.11851 0.15985 0.17639 0.02343 0.02343 0.02343 0.05374 0 0.08819-0.03583 0.02343-0.06477 0.02343-0.08819 0-0.05926-0.04685-0.11851-0.09371-0.17639-0.14056-0.01242 0-0.02343-0.0055-0.03583-0.01791-0.46991-0.23564-0.98805-0.41754-1.5517-0.54708-0.61185-0.14056-1.2003-0.17639-1.7639-0.10611-0.565 0.05926-1.1176 0.23013-1.6592 0.51263-0.44649 0.24667-0.89297 0.56913-1.3395 0.97014-0.01242 0.01102-0.0303 0.01654-0.05374 0.01654-0.01101 0-0.02343-0.0055-0.03447-0.01654-0.02342-0.02343-0.0303-0.05374-0.01792-0.08819 0.35278-0.49472 0.76343-0.90537 1.2347-1.2347 0.5526-0.3762 1.1576-0.60634 1.8163-0.68902 0.64768-0.07028 1.2885 0.0069 1.9224 0.23013h0.03585c-0.09371-0.04685-0.18879-0.1006-0.2825-0.15848-0.66973-0.41203-1.305-0.75379-1.9044-1.0239-0.70556-0.31695-1.3767-0.54019-2.0106-0.66973-0.64768-0.14194-1.2761-0.1819-1.8879-0.12402-0.02342 0-0.04134-0.01791-0.05237-0.05237-0.01242-0.03583 0-0.05926 0.03447-0.07028m29.07-5.5563s-0.0069-0.0069-0.01792-0.01791c-0.50574-0.49472-1.1176-0.7469-1.8342-0.7593-0.71796 0.0124-1.3353 0.26458-1.8521 0.7593-0.91777 1.0583-1.006 2.1814-0.26458 3.3693 0.43408 0.62287 0.80477 1.5641 1.1107 2.8222 0.31695 1.2692 0.1006 2.5976-0.65319 3.9853 0.82406-0.50582 1.7294-0.758 2.7175-0.758 1.9513 0.19982 3.4038 0.66973 4.356 1.4111h0.03583c0.38723 0.21222 0.80477 0.31695 1.2526 0.31695 0.70556-0.01102 1.316-0.26458 1.8342-0.75792 1.0115-1.2347 1.0115-2.4639 0-3.6863-0.01242 0-0.01792-0.0055-0.01792-0.01791l-0.01792-0.01791c-0.02342-0.01102-0.03447-0.02894-0.03447-0.05237l0.03447-0.03583c0.11851-0.09371 0.21773-0.1819 0.30041-0.26458 0.50574-0.50574 0.75792-1.1162 0.75792-1.8342s-0.25218-1.3353-0.75792-1.8521c-0.57602-0.55259-1.265-0.79926-2.0643-0.74138-0.02342 0-0.04134-0.0055-0.05237-0.01654-0.01242-0.02343-0.01792-0.04134-0.01792-0.05374 0.04685-0.81166-0.20533-1.5048-0.75792-2.0808-0.50574-0.49472-1.1176-0.7469-1.8355-0.7593-0.71658 0.0124-1.3339 0.26458-1.8521 0.7593-0.08131 0.08268-0.16399 0.1819-0.24667 0.29904-0.01101 0.02343-0.02893 0.03583-0.05237 0.03583-0.01242 0-0.0303-0.0055-0.05374-0.01791 0-0.01103-0.0055-0.02343-0.01655-0.03445m0.19293 4.8672c0.31832-0.70556 0.54157-1.3753 0.6711-2.0106 0.14056-0.6463 0.18741-1.2692 0.14056-1.87-0.01101-0.03445 0-0.05788 0.03583-0.07028 0.04685-0.01102 0.07028 0 0.07028 0.03583 0.19982 0.59945 0.26458 1.2457 0.1943 1.9403-0.07028 0.69315-0.27699 1.4111-0.61736 2.1511-0.17639 0.42444-0.39412 0.84198-0.65319 1.2526 0.24667-0.2701 0.50023-0.52917 0.7593-0.77584 1.0694-1.0707 2.1222-2.034 3.1571-2.8925 0.03447-0.0124 0.06477-0.0124 0.08819 0 0.02342 0.03445 0.02342 0.06477 0 0.08819-0.84749 1.0349-1.8052 2.0932-2.876 3.175-0.24667 0.23427-0.49334 0.47542-0.74001 0.72347 0.38723-0.24805 0.78135-0.4644 1.181-0.65319 0.75379-0.32935 1.4759-0.52917 2.1704-0.59945 0.69315-0.07028 1.3408-0.0124 1.9403 0.17639 0.02343 0.02343 0.03447 0.04685 0.03447 0.07028-0.01101 0.03583-0.03447 0.05236-0.07028 0.05236-0.59943-0.04685-1.2223-0.0055-1.87 0.12402-0.6339 0.14056-1.305 0.37069-2.0106 0.68764-0.61185 0.2701-1.2526 0.60634-1.9224 1.006-0.08268 0.05788-0.17088 0.11713-0.26458 0.17639 0 0 0.0055-0.0055 0.01792-0.01791 0.6463-0.21222 1.2926-0.2825 1.9403-0.21222 0.6587 0.07166 1.2637 0.30041 1.8163 0.68902 0.47129 0.31695 0.87643 0.72898 1.2168 1.2347 0.02342 0.02343 0.02342 0.04685 0 0.07028-0.01101 0.01102-0.02893 0.01791-0.05237 0.01791-0.01242 0-0.02342-0.0069-0.03583-0.01791-0.44649-0.39963-0.89297-0.71796-1.3395-0.95222-0.54157-0.2825-1.0997-0.45889-1.6757-0.52917-0.55259-0.05926-1.1355-0.02343-1.7474 0.10473-0.56362 0.12954-1.0818 0.31833-1.5517 0.565h-0.01792c-0.07028 0.05925-0.13505 0.11162-0.1943 0.15847-0.02342 0.02343-0.04686 0.02343-0.07028 0-0.02342-0.03445-0.02893-0.06477-0.01792-0.08819 0.04823-0.05788 0.09508-0.11713 0.14194-0.17639 0-0.01103 0.0055-0.02343 0.01792-0.03445 0.23427-0.47129 0.42306-0.98805 0.56362-1.553 0.12954-0.61185 0.16536-1.1934 0.10611-1.746-0.07028-0.57602-0.24667-1.1341-0.52917-1.6757-0.23564-0.44648-0.5526-0.89435-0.95222-1.3408-0.02343-0.03445-0.02343-0.06477 0-0.0882 0.02342-0.02343 0.04685-0.02894 0.07028-0.01791 0.50574 0.35278 0.91777 0.76481 1.2347 1.2347 0.3886 0.55259 0.61736 1.1589 0.68764 1.8176 0.07028 0.6463-0.0055 1.2871-0.22876 1.9224v0.03583c0.05788-0.09508 0.11713-0.18879 0.17639-0.2825 0.39963-0.6711 0.73449-1.305 1.0046-1.9058" fill="#9ab522"/>
<path d="m79.386 72.863 0.03583-0.31833c-2.1291-0.2825-3.5278 0.1006-4.1989 1.1465-0.68213 1.0583-0.99357 1.6812-0.93431 1.87l0.29904 0.08819c0.85852-1.5282 1.8466-2.3992 2.9642-2.61 1.1162-0.19982 1.7281-0.25907 1.8342-0.17639m3.5278-0.31833c2.1291-0.2825 3.5333 0.10611 4.2154 1.1644 0.6711 1.0459 0.97565 1.6633 0.91777 1.8521l-0.30041 0.08819c-0.85852-1.5282-1.8466-2.3992-2.9628-2.61-1.1052-0.19982-1.7115-0.25907-1.8176-0.17639l-0.05237-0.31833" fill="#eac199"/>
<path d="m78.926 78.434c-1.0459 0.21222-2.034 0.55259-2.9628 1.0239-0.91777 0.45889-1.7639 1.028-2.5397 1.7101-0.19981-0.38723-0.31833-0.84612-0.35278-1.3753 0.16399-1.7639 1.1341-2.734 2.9104-2.9104h0.01654c0.01242 0.0124 0.02342 0.0124 0.03583 0 0.02343 0 0.04134-0.0055 0.05237-0.01792 0.01242-0.01102 0.01792-0.02894 0.01792-0.05237-0.02342-0.15296-0.04134-0.30041-0.05237-0.44097 0.17639-1.7639 1.1465-2.7285 2.9104-2.8925 0.89297 0.01103 1.6344 0.35829 2.2228 1.0404 0.03447 0.02343 0.07028 0.02343 0.10473 0 0.5774-0.68213 1.3174-1.0294 2.2228-1.0404 1.7639 0.16399 2.7285 1.1286 2.8925 2.8925 0 0.14056-0.01101 0.28801-0.03447 0.44097 0 0.02343 0.0055 0.04134 0.01792 0.05237 0.01101 0.0124 0.02893 0.01792 0.05237 0.01792 0.01242 0.0124 0.01792 0.0124 0.01792 0h0.03447c1.7639 0.16399 2.734 1.1341 2.9104 2.9104-0.03447 0.49334-0.14607 0.93431-0.33486 1.3229-0.77584-0.66973-1.6288-1.2347-2.5576-1.6936s-1.9169-0.79375-2.9628-1.0046c0.39963-0.60082 0.85163-1.1176 1.3574-1.553 0.02342-0.02343 0.0303-0.04685 0.01792-0.07028-0.02342-0.02343-0.05237-0.03583-0.08819-0.03583-0.62288 0.31833-1.181 0.78273-1.6757 1.3946-0.04685 0.05788-0.09371 0.11713-0.14056 0.17639-0.50574-0.07166-1.0239-0.11162-1.553-0.12402-0.03447-0.81166-0.09371-1.593-0.17639-2.3454 0-0.03583-0.01654-0.05925-0.05237-0.07166-0.03583 0.0124-0.05926 0.03583-0.07028 0.07166-0.07028 0.75241-0.12402 1.5338-0.15848 2.3454-0.54157 0.0124-1.0707 0.05926-1.5875 0.14056-0.04823-0.05788-0.09508-0.12264-0.14194-0.19292-0.49334-0.61185-1.0459-1.0762-1.6578-1.3946-0.03583-0.01102-0.06477 0-0.08819 0.03583-0.01242 0.02343-0.0055 0.04685 0.01792 0.07028 0.51676 0.43546 0.97565 0.95912 1.3753 1.5696" fill="#cdd9c5"/>
<path d="m72.048 69.493c-0.44649 0.07028-0.77584 0.09371-0.98805 0.07028-0.49334-0.16399-0.72209-0.51125-0.68764-1.0404 0.12954-0.51814 0.44648-0.74138 0.95222-0.6711 0.19981 0.05926 0.50574 0.23013 0.91777 0.51263 0.41203 0.2701 0.7469 0.49885 1.006 0.68764l0.07028-0.01792c-0.57602-0.63528-0.98805-1.17-1.2347-1.6054-0.12954-0.51676 0.02893-0.88746 0.47542-1.1107 0.48231-0.11851 0.84198 0.07028 1.0762 0.56362 0.0937 0.49472 0.11851 1.1644 0.07028 2.0119l0.10611-0.03583c0.07028-0.32935 0.17088-0.71796 0.30041-1.1644 0.12954-0.43546 0.25218-0.73449 0.37069-0.89986 0.34038-0.3762 0.72898-0.40514 1.1631-0.08819 0.36518 0.38861 0.41203 0.80064 0.14194 1.2347-0.0937 0.09508-0.25356 0.21773-0.4768 0.37069l2.6996-0.98805c-1.553-1.881-3.463-2.4929-5.7326-1.8342-2.1649 0.9412-3.2398 2.6348-3.2287 5.0808l2.9986-1.0762m14.482-1.888c0.12954 0.16536 0.38861 0.3762 0.77584 0.63528l-2.9104-1.3229c1.6936-1.7515 3.6463-2.2104 5.8567-1.3753 2.0808 1.1162 3.022 2.8925 2.8222 5.3261l-2.6279-1.1989c0.2701 0.05788 0.46991 0.08268 0.59945 0.07028 0.50574-0.11713 0.76343-0.44648 0.77584-0.98805-0.09371-0.51676-0.39412-0.76343-0.89986-0.74001-0.5526 0.19982-1.1934 0.53468-1.9224 1.0046l-0.08819-0.03445c0.61185-0.58842 1.0583-1.0886 1.3408-1.4993 0.17639-0.51814 0.05237-0.89986-0.37069-1.1465-0.48232-0.16536-0.85301-0.0124-1.1107 0.45751-0.14194 0.49472-0.22462 1.1644-0.24804 2.0119l-0.07028-0.03583c-0.04685-0.31695-0.12265-0.71796-0.22876-1.1989-0.0937-0.48231-0.1943-0.81718-0.30041-1.006-0.31695-0.39963-0.70004-0.45889-1.1465-0.17639-0.39963 0.35278-0.48231 0.75792-0.24667 1.2168" fill="#123b14"/>
<path d="m88.368 71.416-0.8131-1.746-1.6097 0.88194 0.8131 1.746 1.6097-0.88194m-13.481-1.782 1.6097 0.86403-0.79659 1.7474-1.6097-0.86541 0.79659-1.746" fill="#eac199" stroke-width=".96018"/>
<g fill="#123b14" stroke-width=".26458" aria-label="ubi">
<path d="m93.108 82.842q1.8344 0 3.0339 1.27 1.1994 1.1994 1.1994 3.0339v17.921q0 7.4789-4.1628 11.853-4.1628 4.3744-11.994 4.3744t-11.994-4.3744q-4.0922-4.3744-4.0922-11.853v-17.921q0-1.8344 1.1994-3.0339 1.1994-1.27 3.0339-1.27 1.8344 0 3.0339 1.27 1.1994 1.1994 1.1994 3.0339v17.921q0 4.3039 1.905 6.4206 1.905 2.0461 5.715 2.0461 3.8806 0 5.7856-2.0461 1.905-2.1167 1.905-6.4206v-17.921q0-1.8344 1.1994-3.0339 1.1994-1.27 3.0339-1.27z"/>
<path d="m123.41 82.136c3.2926 0 6.2324 0.84667 8.8194 2.54 2.6341 1.6463 4.7037 3.9276 6.2089 6.8439 1.5522 2.9163 2.3283 6.303 2.3283 10.16 0 3.857-0.77611 7.2672-2.3283 10.231-1.5052 2.9163-3.5513 5.2211-6.1383 6.9144-2.54 1.6463-5.4093 2.4694-8.6078 2.4694-1.8815 0-3.6454-0.30574-5.2917-0.91722-1.6463-0.61148-3.1044-1.3876-4.3744-2.3283-1.223-0.94075-1.6933-1.3947-1.6933-1.3947v0 0.33632c0 1.223-0.39982 2.2578-1.1994 3.1044-0.79963 0.79963-1.8109 1.1994-3.0339 1.1994s-2.2343-0.39981-3.0339-1.1994-1.1994-1.8344-1.1994-3.1044v-44.309c0-1.223 0.39982-2.2343 1.1994-3.0339 0.79963-0.84667 1.8109-1.27 3.0339-1.27s2.2343 0.42333 3.0339 1.27c0.79963 0.79963 1.1994 1.8109 1.1994 3.0339v14.706s1.3406-1.3705 2.4694-2.2172c1.1289-0.8937 2.4224-1.6228 3.8806-2.1872 1.5052-0.56444 3.0809-0.84667 4.7272-0.84667zm-1.0583 7.7611c-2.0696 0-3.8806 0.51741-5.4328 1.5522-1.5522 1.0348-2.7752 2.4459-3.6689 4.2333-0.84667 1.7404-1.27 3.7394-1.27 5.9972 0 2.2107 0.42333 4.2333 1.27 6.0678 0.8937 1.7874 2.1167 3.1985 3.6689 4.2333 1.5522 1.0348 3.3632 1.5522 5.4328 1.5522s3.857-0.51741 5.3622-1.5522c1.5522-1.0348 2.7517-2.4459 3.5983-4.2333 0.89371-1.8344 1.3406-3.857 1.3406-6.0678 0-2.2578-0.44685-4.2569-1.3406-5.9972-0.84667-1.7874-2.0461-3.1985-3.5983-4.2333-1.5052-1.0348-3.2926-1.5522-5.3622-1.5522z"/>
<path d="m153.5 116.29q0 1.8344-1.1994 3.1044-1.1994 1.1994-3.0339 1.1994-1.8344 0-3.0339-1.1994-1.1994-1.27-1.1994-3.1044v-29.139q0-1.8344 1.1994-3.0339 1.1994-1.27 3.0339-1.27 1.8344 0 3.0339 1.27 1.1994 1.1994 1.1994 3.0339zm-4.3039-38.029q-2.3989 0-3.3867-0.77611-0.98777-0.77611-0.98777-2.7517v-1.3406q0-2.0461 1.0583-2.7517 1.1289-0.77611 3.3867-0.77611 2.4694 0 3.4572 0.77611 0.98778 0.77611 0.98778 2.7517v1.3406q0 2.0461-1.0583 2.8222-1.0583 0.70556-3.4572 0.70556z"/>
</g>
<g fill="#9ab522" stroke-width=".26458" aria-label="shop">
<path d="m161.64 114.16q-0.49389-0.84666-0.49389-1.3406 0.0705-0.56445 0.56444-0.91723 0.35278-0.35277 0.91723-0.28222 0.635 0 1.0583 0.49389 1.8344 2.6106 4.6567 4.2333 2.8928 1.6228 6.7733 1.6228 2.3283 0 4.445-0.77612 2.1872-0.77611 3.5278-2.3283 1.4111-1.5522 1.4111-3.81 0-2.3989-1.3406-3.81-1.3406-1.4817-3.4572-2.3283t-4.445-1.4111q-2.4694-0.635-4.7272-1.4111-2.1872-0.84666-3.8806-2.0461-1.6933-1.27-2.6811-2.9633-0.98778-1.6933-0.98778-4.0217 0-2.7517 1.4817-4.9389 1.4817-2.1872 4.1628-3.3867 2.6811-1.27 6.2089-1.27 1.6933 0 3.5983 0.42333 1.905 0.42333 3.81 1.4817 1.905 0.98778 3.5278 2.8222 0.56445 0.42333 0.49389 1.0583 0 0.56444-0.49389 1.0583-0.42333 0.28222-0.91722 0.28222t-0.84667-0.42333q-1.8344-2.0461-4.3039-3.0339-2.3989-0.98778-5.1506-0.98778-2.3283 0-4.3744 0.77611-1.9756 0.77611-3.2456 2.3283-1.27 1.4817-1.27 3.81 0.14111 2.1872 1.4817 3.5983 1.4111 1.4111 3.6689 2.3283 2.3283 0.91722 5.2211 1.6933 2.3283 0.56445 4.3039 1.3406 2.0461 0.70556 3.5278 1.8344 1.5522 1.1289 2.3989 2.8222 0.91723 1.6933 0.91723 4.2333 0 2.9633-1.6228 5.1506-1.5522 2.1167-4.3744 3.3161-2.7517 1.1289-6.35 1.1289-3.6689 0-7.0556-1.4817-3.3867-1.4817-6.1383-4.8683z"/>
<path d="m209.16 84.178c2.8222 0 5.1506 0.61148 6.985 1.8344 1.8815 1.223 3.2691 2.8693 4.1628 4.9389 0.94074 2.0696 1.4111 4.3509 1.4111 6.8439v20.602c0 0.37629-0.14111 0.70555-0.42334 0.98778-0.28222 0.28222-0.61148 0.42333-0.98777 0.42333-0.42333 0-0.77611-0.14111-1.0583-0.42333-0.23519-0.28223-0.35278-0.61149-0.35278-0.98778v-20.602c0-2.0226-0.32926-3.857-0.98777-5.5033-0.65852-1.6463-1.6933-2.9633-3.1044-3.9511-1.4111-0.98778-3.2926-1.4817-5.6444-1.4817-2.0226 0-3.9982 0.49389-5.9267 1.4817-1.9285 0.98778-3.5278 2.3048-4.7978 3.9511-1.223 1.6463-1.8344 3.4807-1.8344 5.5033v20.602c0 0.37629-0.14111 0.70555-0.42333 0.98778-0.28222 0.28222-0.61148 0.42333-0.98778 0.42333-0.42333 0-0.77611-0.14111-1.0583-0.42333-0.23519-0.28223-0.35278-0.61149-0.35278-0.98778v-49.389c0-0.3763 0.14111-0.70556 0.42333-0.98778 0.28223-0.28222 0.61149-0.42333 0.98778-0.42333 0.42333 0 0.75259 0.14111 0.98778 0.42333 0.28222 0.28222 0.42333 0.61148 0.42333 0.98778v12.312l-5.9e-4 9.9168s-0.84667 1.5522 0 0 1.4587-2.0028 2.8228-3.1787c1.4111-1.223 2.9633-2.1637 4.6567-2.8222 1.6933-0.70556 3.3867-1.0583 5.08-1.0583z"/>
<path d="m263.38 102.03q0 5.2211-2.2578 9.4544-2.2578 4.1628-6.2089 6.6322-3.8806 2.3989-8.89 2.3989-4.9389 0-8.89-2.3989-3.9511-2.4694-6.2794-6.6322-2.2578-4.2333-2.2578-9.4544 0-5.2917 2.2578-9.4545 2.3283-4.2333 6.2794-6.6322 3.9511-2.4694 8.89-2.4694 5.0094 0 8.89 2.4694 3.9511 2.3989 6.2089 6.6322 2.2578 4.1628 2.2578 9.4545zm-2.8222 0q0-4.5861-1.905-8.1139-1.8344-3.5983-5.1506-5.6444-3.2456-2.1167-7.4789-2.1167-4.1628 0-7.4789 2.1167-3.3161 2.0461-5.2211 5.6444-1.905 3.5278-1.905 8.1139 0 4.5156 1.905 8.1139 1.905 3.5278 5.2211 5.6444 3.3161 2.0461 7.4789 2.0461 4.2333 0 7.4789-2.0461 3.3161-2.1167 5.1506-5.6444 1.905-3.5983 1.905-8.1139z"/>
<path d="m286.63 84.178c3.1515 0 5.9502 0.77611 8.3961 2.3283s4.3744 3.6924 5.7856 6.4206c1.4582 2.6811 2.1872 5.762 2.1872 9.2428 0 3.4337-0.72908 6.5146-2.1872 9.2428-1.4111 2.7282-3.3631 4.8919-5.8561 6.4911-2.4459 1.5522-5.2211 2.3283-8.3256 2.3283-1.5522 0-3.0574-0.21167-4.5156-0.635-1.4111-0.47037-2.7282-1.1054-3.9511-1.905-1.223-0.84667-2.3519-1.8815-3.3867-3.1044-0.98778-1.223-1.6933-2.3859-1.6933-2.3859v20.307c0 0.37629-0.14111 0.70555-0.42333 0.98778-0.23519 0.28222-0.56445 0.42333-0.98778 0.42333-0.37629 0-0.70555-0.14111-0.98778-0.42333-0.28222-0.28223-0.42333-0.61149-0.42333-0.98778v-46.919c0-0.3763 0.11759-0.70556 0.35278-0.98778 0.28222-0.28222 0.635-0.42333 1.0583-0.42333s0.75259 0.14111 0.98778 0.42333c0.28222 0.28222 0.42333 0.61148 0.42333 0.98778v6.2136s0.56445-0.92189 1.5522-2.1919c0.98777-1.27 2.1167-2.3048 3.3867-3.1044 1.27-0.79963 2.6341-1.3876 4.0922-1.7639 1.4582-0.3763 2.9633-0.56444 4.5156-0.56444zm-0.14111 2.6811c-2.6811 0-5.0565 0.65852-7.1261 1.9756-2.0226 1.317-3.6218 3.128-4.7978 5.4328-1.1759 2.2578-1.7639 4.8919-1.7639 7.9022 0 2.9633 0.58796 5.6209 1.7639 7.9728 1.1759 2.3048 2.7752 4.1158 4.7978 5.4328 2.0696 1.317 4.445 1.9756 7.1261 1.9756 2.6341 0 4.9624-0.65852 6.985-1.9756 2.0696-1.317 3.6924-3.128 4.8683-5.4328 1.223-2.3518 1.8344-5.0094 1.8344-7.9728 0-2.9633-0.61148-5.5974-1.8344-7.9022-1.1759-2.3048-2.7987-4.1157-4.8683-5.4328-2.0226-1.317-4.3509-1.9756-6.985-1.9756z"/>
</g>
</g>
</svg>
