<svg width="242" height="479" viewBox="0 0 242 479" fill="none" xmlns="http://www.w3.org/2000/svg">
<g style="mix-blend-mode:luminosity" opacity="0.09" clip-path="url(#clip0_212_907)">
<path fill-rule="evenodd" clip-rule="evenodd" d="M224.834 239.489C223.927 229.924 218.737 224.748 209.293 223.948C208.493 223.948 207.706 224.001 206.905 224.121C206.679 224.121 206.506 224.068 206.398 223.948C206.278 223.841 206.225 223.668 206.225 223.441V223.268C205.318 213.703 200.128 208.474 190.684 207.554C182.267 208.127 177.144 212.516 175.317 220.706C174.41 225.148 171.955 230.724 167.98 237.435C163.991 244.038 157.562 248.826 148.678 251.788C157.789 254.737 164.338 259.752 168.314 266.809C172.302 273.986 174.69 279.962 175.491 284.738C175.597 284.858 175.664 284.965 175.664 285.085C178.159 292.021 183.174 295.717 190.685 296.183C200.129 295.263 205.318 290.087 206.225 280.643V280.296C206.225 280.069 206.284 279.896 206.399 279.789C206.505 279.669 206.678 279.615 206.906 279.615C207.707 279.842 208.493 279.962 209.294 279.962C213.509 279.842 217.151 278.308 220.219 275.347C223.18 272.278 224.714 268.57 224.834 264.248C224.714 259.473 222.847 255.484 219.205 252.296C219.085 252.176 219.032 252.069 219.032 251.949C219.032 251.723 219.08 251.562 219.205 251.442C222.847 248.254 224.714 244.264 224.834 239.489ZM212.202 252.469C203.998 253.27 195.3 253.657 186.069 253.657H181.8C183.975 254.23 185.962 254.857 187.776 255.538C192.445 257.365 196.434 259.579 199.729 262.194C203.143 264.929 205.705 268.01 207.412 271.425C207.532 271.759 207.412 272.052 207.078 272.279C206.852 272.385 206.624 272.332 206.398 272.105C203.997 269.251 201.102 266.756 197.687 264.595C194.499 262.541 190.684 260.66 186.241 258.952C182.599 257.472 178.451 256.164 173.782 255.03H173.608C176.797 256.845 179.411 259.072 181.465 261.687C183.973 264.875 185.614 268.517 186.415 272.612C186.988 275.92 186.988 279.442 186.415 283.204C186.294 283.431 186.068 283.604 185.734 283.711C185.387 283.605 185.214 283.377 185.214 283.031C184.988 279.389 184.427 276.147 183.507 273.293C182.373 269.771 180.719 266.636 178.558 263.901C176.517 261.287 173.889 258.952 170.701 256.911C167.753 255.084 164.724 253.656 161.656 252.643H161.483C161.149 252.522 160.682 252.469 160.122 252.469C159.775 252.469 159.602 252.296 159.602 251.949C159.602 251.495 159.775 251.269 160.122 251.269C160.576 251.269 161.029 251.215 161.483 251.095H161.656C164.724 250.081 167.753 248.654 170.701 246.826C173.889 244.786 176.517 242.451 178.558 239.836C180.839 237.102 182.493 233.967 183.507 230.445C184.427 227.484 184.987 224.176 185.214 220.534C185.214 220.307 185.387 220.134 185.734 220.027C186.068 220.027 186.294 220.2 186.415 220.534C186.988 224.175 186.988 227.71 186.415 231.126C185.614 235.221 183.973 238.863 181.465 242.051C179.411 244.666 176.797 246.893 173.608 248.707L173.782 248.534C178.33 247.4 182.492 246.146 186.241 244.786C190.683 243.078 194.498 241.197 197.687 239.143C201.102 236.875 203.997 234.367 206.398 231.632C206.624 231.406 206.852 231.352 207.078 231.459C207.412 231.686 207.532 231.979 207.412 232.313C205.598 235.621 203.037 238.636 199.729 241.37C196.434 244.105 192.445 246.373 187.776 248.2C185.842 248.881 183.801 249.508 181.64 250.081H186.069C195.407 250.081 204.118 250.468 212.202 251.269C212.428 251.389 212.601 251.615 212.709 251.949C212.602 252.176 212.429 252.349 212.202 252.469ZM-166.856 251.949C-175.967 249.001 -182.517 243.932 -186.493 236.755C-190.481 229.698 -192.922 223.722 -193.843 218.826V218.653C-196.458 211.716 -201.46 208.022 -208.864 207.554C-218.308 208.475 -223.497 213.65 -224.404 223.095V223.442C-224.404 223.669 -224.458 223.842 -224.578 223.949C-224.684 224.069 -224.858 224.122 -225.085 224.122C-225.992 224.002 -226.792 223.949 -227.473 223.949C-231.688 223.949 -235.33 225.429 -238.398 228.391C-241.479 231.459 -243.013 235.167 -243.013 239.489C-242.893 244.265 -241.026 248.253 -237.384 251.441C-237.264 251.562 -237.21 251.721 -237.21 251.948C-237.21 252.069 -237.264 252.175 -237.384 252.295C-241.026 255.483 -242.893 259.472 -243.013 264.247C-242.106 273.812 -236.917 279.041 -227.473 279.961C-226.672 279.841 -225.885 279.734 -225.085 279.614H-224.911C-224.805 279.614 -224.685 279.668 -224.578 279.788C-224.457 279.894 -224.404 280.068 -224.404 280.295V280.468C-223.497 290.033 -218.308 295.262 -208.864 296.182C-200.446 295.608 -195.324 291.286 -193.496 283.203C-192.589 278.641 -190.201 273.065 -186.32 266.462C-182.344 259.752 -175.847 254.91 -166.856 251.949ZM-196.911 263.901C-199.072 266.755 -200.672 269.877 -201.686 273.292C-202.607 276.253 -203.167 279.561 -203.394 283.203C-203.394 283.537 -203.567 283.71 -203.914 283.71C-204.248 283.71 -204.474 283.537 -204.594 283.203C-205.168 279.562 -205.168 276.027 -204.594 272.611C-203.794 268.516 -202.153 264.874 -199.645 261.686C-197.591 259.072 -195.03 256.91 -191.962 255.203C-196.51 256.337 -200.726 257.591 -204.594 258.951C-208.916 260.659 -212.731 262.593 -216.04 264.754C-219.335 266.929 -222.176 269.37 -224.578 272.104C-224.804 272.438 -225.031 272.505 -225.258 272.278C-225.592 272.051 -225.711 271.811 -225.592 271.584C-223.884 268.063 -221.323 264.981 -217.908 262.367C-214.613 259.632 -210.624 257.418 -205.956 255.71C-204.021 254.91 -201.98 254.229 -199.819 253.656C-210.624 253.776 -220.816 253.376 -230.381 252.468C-230.715 252.468 -230.888 252.295 -230.888 251.948C-230.888 251.495 -230.714 251.268 -230.381 251.268C-220.936 250.361 -210.852 249.961 -200.153 250.081C-202.208 249.507 -204.142 248.88 -205.956 248.2C-210.625 246.372 -214.614 244.158 -217.908 241.543C-221.323 238.809 -223.885 235.727 -225.592 232.312C-225.712 231.979 -225.592 231.685 -225.258 231.458C-225.032 231.352 -224.805 231.405 -224.578 231.632C-222.177 234.487 -219.336 236.981 -216.041 239.142C-212.732 241.317 -208.917 243.184 -204.595 244.785C-200.726 246.266 -196.511 247.573 -191.962 248.707H-191.789C-194.977 246.999 -197.592 244.785 -199.646 242.05C-202.261 238.862 -203.915 235.274 -204.595 231.298C-205.275 227.763 -205.275 224.175 -204.595 220.533C-204.475 220.306 -204.248 220.133 -203.915 220.026C-203.568 220.133 -203.394 220.36 -203.394 220.706C-203.168 224.348 -202.607 227.59 -201.687 230.445C-200.673 233.966 -199.072 237.101 -196.911 239.836C-194.75 242.451 -192.069 244.785 -188.881 246.826C-185.933 248.653 -182.905 250.081 -179.836 251.095L-178.476 251.268C-178.009 251.388 -177.782 251.615 -177.782 251.948C-177.902 252.175 -178.129 252.349 -178.476 252.469C-178.809 252.575 -179.209 252.642 -179.663 252.642C-179.783 252.642 -179.837 252.695 -179.837 252.802C-182.905 253.723 -185.933 255.083 -188.881 256.911C-192.069 258.952 -194.75 261.286 -196.911 263.901ZM35.1331 451.726C34.5728 443.309 30.2375 438.186 22.1539 436.359C17.6051 435.452 12.0293 433.01 5.42548 429.022C-1.28436 425.033 -6.12688 418.604 -9.08806 409.733C-12.0494 418.831 -17.0518 425.38 -24.1088 429.369C-31.2855 433.345 -37.2614 435.732 -42.0376 436.533C-42.1578 436.653 -42.2643 436.706 -42.3844 436.706C-49.3344 439.214 -53.0297 444.216 -53.4828 451.727C-52.5757 461.185 -47.3866 466.36 -37.9422 467.267H-37.6085C-37.3818 467.267 -37.2083 467.326 -37.0883 467.441C-36.9817 467.561 -36.9148 467.72 -36.9148 467.948C-37.035 468.749 -37.0883 469.549 -37.0883 470.349C-36.2879 479.794 -31.1121 484.969 -21.5476 485.876C-16.772 485.77 -12.7835 483.888 -9.5955 480.247C-9.48892 480.127 -9.3154 480.074 -9.0885 480.074C-8.96828 480.074 -8.86171 480.122 -8.74168 480.247C-5.5535 483.888 -1.57826 485.769 3.21045 485.876C12.7617 484.969 18.0038 479.793 18.9118 470.349C18.8052 469.548 18.685 468.748 18.5781 467.948C18.5781 467.721 18.6313 467.561 18.7383 467.441C18.965 467.214 19.2052 467.161 19.432 467.267C28.9833 466.36 34.2251 461.184 35.1331 451.726ZM22.1541 447.458C18.5124 448.032 14.9906 448.032 11.5755 447.458C7.48022 446.671 3.83852 445.017 0.650436 442.509C-1.97745 440.468 -4.13844 437.84 -5.84593 434.652V434.825C-4.69873 439.387 -3.4581 443.536 -2.08409 447.298C-0.376602 451.727 1.55769 455.542 3.7187 458.731C5.87971 462.146 8.33423 465.054 11.0555 467.441C11.4024 467.668 11.4557 467.895 11.229 468.122C11.0023 468.468 10.7755 468.576 10.5487 468.469C7.01364 466.761 3.94553 464.2 1.33099 460.785C-1.40366 457.477 -3.61806 453.501 -5.32555 448.833C-6.12601 446.898 -6.80634 444.843 -7.37988 442.682V447.125C-7.37988 456.342 -7.78001 465.053 -8.58038 473.244C-8.58038 473.47 -8.74065 473.644 -9.08739 473.764C-9.54091 473.644 -9.76765 473.47 -9.76765 473.244C-10.568 465.053 -10.9682 456.342 -10.9682 447.125V442.856C-11.5285 445.017 -12.1555 447.004 -12.8491 448.832C-14.6633 453.501 -16.8911 457.476 -19.5056 460.784C-22.2403 464.199 -25.3084 466.76 -28.7233 468.468C-29.0701 468.574 -29.3503 468.468 -29.577 468.121C-29.6972 467.895 -29.6302 467.667 -29.4035 467.441C-26.5622 465.053 -24.0544 462.145 -21.8933 458.73C-19.7323 455.542 -17.8513 451.727 -16.2639 447.298C-14.7832 443.536 -13.4759 439.387 -12.3287 434.825V434.651C-14.0362 437.84 -16.2639 440.468 -18.9852 442.509C-22.1734 445.016 -25.7617 446.671 -29.7505 447.458C-33.2722 448.032 -36.8606 448.032 -40.5024 447.458C-40.7292 447.351 -40.9026 447.124 -41.0226 446.777C-40.9024 446.443 -40.6758 446.27 -40.3289 446.27C-36.6871 446.043 -33.4456 445.469 -30.6042 444.562C-27.0691 443.415 -23.9477 441.774 -21.213 439.613C-18.5985 437.559 -16.264 434.944 -14.2096 431.756C-12.3821 428.795 -10.9682 425.78 -9.94099 422.699L-9.76752 421.165C-9.66093 420.938 -9.43382 420.765 -9.08717 420.657C-8.86046 420.764 -8.68701 420.937 -8.58023 421.165C-8.46001 421.619 -8.40675 422.072 -8.40675 422.538L-8.23326 422.698C-7.32623 425.78 -5.95224 428.794 -4.13797 431.756C-2.08363 434.944 0.250763 437.559 2.8654 439.613C5.70674 441.881 8.84157 443.535 12.2565 444.562C15.218 445.469 18.5129 446.043 22.1546 446.269C22.5014 446.269 22.6748 446.443 22.6748 446.777C22.6748 447.123 22.5008 447.351 22.1541 447.458ZM-53.4818 52.0202C-52.9082 60.4375 -48.5329 65.5599 -40.3293 67.3876C-35.9005 68.2947 -30.3112 70.6826 -23.6009 74.5511C-16.9978 78.5396 -12.2218 85.0231 -9.26065 94.0141C-6.29929 84.9164 -1.28346 78.367 5.77274 74.3778C12.9362 70.4025 18.9659 67.948 23.8612 67.0409H24.0347C30.9847 64.533 34.68 59.5306 35.133 52.0201C34.2259 42.5623 29.0502 37.3865 19.5924 36.4795H19.2587C19.0319 36.4795 18.8586 36.4263 18.7385 36.3062C18.6319 36.1861 18.5783 36.026 18.5783 35.7992C18.8051 34.8788 18.912 34.0917 18.912 33.398C18.0049 23.9535 12.7623 18.7779 3.21066 17.8709C-1.57823 17.9776 -5.55354 19.8586 -8.74153 23.5003C-8.86176 23.6203 -8.96822 23.6736 -9.08835 23.6736C-9.31506 23.6736 -9.48851 23.6204 -9.59529 23.5003C-12.7835 19.8586 -16.772 17.9776 -21.5475 17.8709C-31.112 18.778 -36.2876 23.9538 -37.0881 33.398C-37.0881 34.1984 -37.0349 34.9987 -36.9146 35.7992C-36.9146 36.026 -36.9814 36.186 -37.0881 36.3062C-37.2083 36.4262 -37.3814 36.4795 -37.6083 36.4795H-37.7685C-47.3331 37.3866 -52.5748 42.5624 -53.4818 52.0202ZM-40.5032 56.2888C-36.8614 55.7152 -33.3397 55.7152 -29.9246 56.2888C-25.816 56.9692 -22.1743 58.6233 -18.986 61.2378C-16.3714 63.2788 -14.157 65.9067 -12.3294 69.0949C-12.4497 68.9748 -12.5029 68.9215 -12.5029 68.9215C-13.6368 64.2527 -14.8907 60.0373 -16.2648 56.2888C-17.9723 51.9535 -19.8398 48.1383 -21.8941 44.8429C-24.1751 41.548 -26.6697 38.6933 -29.4044 36.3056C-29.6312 36.0788 -29.6977 35.852 -29.5779 35.6252C-29.3511 35.2784 -29.0709 35.1717 -28.7242 35.2784C-25.3092 36.9859 -22.2945 39.5471 -19.6799 42.9621C-16.9452 46.2703 -14.6642 50.2456 -12.8499 54.9143C-12.1562 56.8486 -11.5292 58.9028 -10.9691 61.0639V56.4484C-10.9691 47.3507 -10.5688 38.6929 -9.76848 30.5025C-9.6619 30.1556 -9.43478 29.9823 -9.08813 29.9823C-8.86142 29.9823 -8.68797 30.1556 -8.58119 30.5025C-7.78064 38.5863 -7.38048 47.2309 -7.38048 56.4484V60.7171C-6.80682 58.6761 -6.17995 56.7418 -5.49963 54.9143C-3.68546 50.2454 -1.4577 46.2701 1.15692 42.9621C3.89159 39.5471 6.9597 36.9859 10.3746 35.2784C10.7214 35.1716 11.0016 35.2784 11.2283 35.6252C11.3485 35.852 11.2816 36.0788 11.0549 36.3056C8.21353 38.6934 5.70557 41.5481 3.54456 44.8429C1.50359 48.1379 -0.377335 51.953 -2.08482 56.2888C-3.56552 60.1573 -4.8728 64.3593 -6.02 68.9215V69.0949C-4.19247 65.9067 -1.97815 63.2788 0.649841 61.2378C3.83803 58.6232 7.47983 56.9692 11.575 56.2888C14.9899 55.5951 18.5116 55.5951 22.1535 56.2888C22.5004 56.3955 22.6737 56.6223 22.6737 56.9692C22.5535 57.3027 22.3269 57.4761 21.9934 57.4761C18.3517 57.7029 15.0968 58.2765 12.2551 59.1836C8.72005 60.2108 5.59859 61.7983 2.86392 63.9726C0.249298 66.1336 -2.08511 68.8015 -4.13945 71.9897C-5.95363 74.9511 -7.38091 77.9659 -8.40808 81.0474L-8.58148 82.4081C-8.58148 82.8616 -8.74168 83.0884 -9.08842 83.0884C-9.54195 82.9817 -9.76877 82.755 -9.76877 82.4081C-9.76877 82.0613 -9.82202 81.6744 -9.94225 81.2075V81.0474C-10.9694 77.9659 -12.3834 74.9512 -14.211 71.9897C-16.2653 68.8015 -18.5997 66.1336 -21.2142 63.9726C-23.9489 61.9183 -27.0704 60.3309 -30.6054 59.1836C-33.5668 58.2765 -36.8617 57.7029 -40.5034 57.4761C-40.7302 57.4761 -40.9036 57.3028 -41.0237 56.9692C-41.0237 56.6223 -40.8499 56.3955 -40.5032 56.2888ZM-189.405 135.166C-188.604 135.967 -187.644 136.82 -186.497 137.727C-186.27 137.727 -186.163 137.847 -186.163 138.074C-186.163 138.301 -186.216 138.474 -186.323 138.581C-186.443 138.701 -186.55 138.755 -186.67 138.755C-186.67 138.875 -186.723 138.928 -186.843 138.928C-191.619 143.93 -194.074 149.906 -194.18 156.857C-194.074 163.687 -191.619 169.609 -186.843 174.612C-181.828 179.388 -175.852 181.842 -168.915 181.949C-163.565 181.949 -158.67 180.361 -154.228 177.173C-145.81 171.024 -132.831 167.049 -115.303 165.221C-105.511 165.221 -96.5202 167.782 -88.3162 172.905C-95.7197 159.125 -97.7074 145.865 -94.2924 133.126C-90.7707 120.373 -86.662 110.755 -82.0062 104.258V103.925C-76.8838 92.9999 -78.2979 83.035 -86.2749 74.0441C-91.2774 69.2551 -97.2532 66.814 -104.204 66.6939C-111.034 66.814 -116.943 69.2551 -121.959 74.0441C-122.066 74.1507 -122.133 74.2175 -122.133 74.2175C-122.133 74.3241 -122.186 74.4442 -122.293 74.5509C-122.413 74.6709 -122.586 74.7243 -122.813 74.7243C-122.92 74.7243 -123.093 74.6043 -123.32 74.3775C-124.12 73.2437 -124.921 72.2832 -125.708 71.4827C-130.723 66.6937 -136.646 64.2526 -143.476 64.1325C-150.412 64.2526 -156.388 66.6937 -161.405 71.4827C-166.754 77.0587 -169.142 83.7688 -168.568 91.6253C-168.568 91.7453 -168.621 91.9188 -168.742 92.1455C-168.968 92.2522 -169.142 92.3056 -169.248 92.3056C-170.049 92.1989 -170.796 92.1455 -171.476 92.1455C-178.413 92.2522 -184.389 94.7067 -189.405 99.4823C-199.196 111.434 -199.196 123.333 -189.405 135.166ZM-177.453 128.003C-171.757 126.069 -165.501 125.442 -158.67 126.122C-151.947 126.923 -145.01 128.91 -137.834 132.098C-133.738 133.913 -129.75 136.074 -125.881 138.582C-128.389 136.074 -130.897 133.633 -133.392 131.245C-143.756 120.773 -153.028 110.528 -161.232 100.51C-161.459 100.283 -161.459 99.9898 -161.232 99.6563C-160.885 99.5363 -160.605 99.5363 -160.378 99.6563C-150.36 107.967 -140.116 117.292 -129.644 127.656C-127.362 129.937 -125.028 132.325 -122.64 134.833C-125.148 130.951 -127.256 127.083 -128.963 123.214C-132.151 116.05 -134.086 109.1 -134.766 102.391C-135.566 95.5608 -134.993 89.2915 -133.059 83.6082C-132.938 83.2614 -132.712 83.088 -132.378 83.088C-132.031 83.2081 -131.858 83.4349 -131.858 83.7684C-132.311 89.5844 -131.911 95.6673 -130.671 102.044C-129.297 108.073 -127.082 114.503 -124.001 121.332C-121.506 127.255 -118.251 133.458 -114.276 139.954C-113.702 140.861 -113.129 141.715 -112.569 142.515L-112.742 142.342C-114.903 136.072 -115.637 129.869 -114.957 123.733C-114.156 117.236 -111.888 111.313 -108.127 105.965C-105.058 101.416 -101.07 97.4942 -96.1744 94.1859C-95.9477 93.9591 -95.7209 94.0125 -95.4941 94.3593C-95.2674 94.5861 -95.2674 94.8128 -95.4941 95.0396C-99.3623 99.3617 -102.43 103.75 -104.711 108.192C-107.446 113.315 -109.154 118.664 -109.834 124.24C-110.408 129.589 -110.061 135.218 -108.807 141.142C-107.553 146.611 -105.739 151.68 -103.351 156.336V156.509C-102.777 157.083 -102.27 157.656 -101.803 158.217C-101.577 158.443 -101.577 158.737 -101.803 159.07C-102.15 159.297 -102.43 159.297 -102.657 159.07C-103.231 158.617 -103.804 158.163 -104.365 157.71C-104.485 157.71 -104.591 157.656 -104.711 157.536C-109.26 155.255 -114.276 153.494 -119.732 152.24C-125.655 150.88 -131.351 150.533 -136.807 151.213C-142.277 151.787 -147.626 153.441 -152.869 156.176C-157.191 158.563 -161.513 161.685 -165.835 165.567C-165.955 165.673 -166.129 165.727 -166.355 165.727C-166.462 165.727 -166.582 165.674 -166.689 165.567C-166.916 165.34 -166.982 165.047 -166.863 164.713C-163.448 159.924 -159.472 155.949 -154.91 152.761C-149.561 149.119 -143.705 146.891 -137.328 146.091C-131.059 145.411 -124.855 146.158 -118.719 148.319H-118.372C-119.279 147.865 -120.2 147.345 -121.107 146.785C-127.59 142.796 -133.739 139.488 -139.542 136.873C-146.372 133.805 -152.868 131.644 -159.005 130.39C-165.274 129.016 -171.358 128.629 -177.28 129.189C-177.507 129.189 -177.68 129.016 -177.787 128.682C-177.907 128.336 -177.786 128.11 -177.453 128.003ZM171.219 368.41C170.418 367.61 169.458 366.823 168.31 366.023C168.084 365.796 167.977 365.623 167.977 365.503C167.977 365.276 168.03 365.115 168.137 364.995C168.257 364.995 168.364 364.937 168.484 364.822L168.657 364.649C178.449 352.817 178.449 340.918 168.657 328.965C163.642 324.189 157.665 321.735 150.729 321.628C145.379 321.628 140.484 323.215 136.042 326.404C127.624 332.673 114.645 336.648 97.1167 338.356C87.3251 338.356 78.3341 335.794 70.1301 330.672C77.5336 344.452 79.4678 357.712 75.9329 370.464C72.5179 383.204 68.4761 392.822 63.8201 399.318V399.652C58.6976 410.591 60.1116 420.542 68.0888 429.533C73.0912 434.322 79.0139 436.763 85.8442 436.883C92.7809 436.763 98.7566 434.322 103.773 429.533C103.773 429.427 103.826 429.373 103.946 429.373C103.946 429.253 104 429.146 104.107 429.026C104.226 428.906 104.4 428.853 104.627 428.853C104.733 428.853 104.854 428.973 104.96 429.199C105.881 430.333 106.735 431.307 107.522 432.094C112.417 436.883 118.34 439.324 125.29 439.444C132.226 439.324 138.202 436.883 143.218 432.094C148.568 426.518 150.955 419.808 150.382 411.951C150.382 411.831 150.435 411.672 150.555 411.444C150.782 411.444 150.956 411.376 151.062 411.271C158.919 411.831 165.643 409.443 171.218 404.094C181.01 392.142 181.01 380.243 171.219 368.41ZM159.266 375.588C153.463 377.522 147.194 378.149 140.484 377.455C133.76 376.668 126.824 374.667 119.647 371.479C115.552 369.665 111.51 367.504 107.522 364.996C110.15 367.504 112.644 369.945 115.045 372.333C125.397 382.805 134.735 393.049 143.045 403.067C143.152 403.294 143.152 403.587 143.045 403.921C142.698 404.041 142.418 404.041 142.191 403.921C132.053 395.611 121.809 386.34 111.457 376.094C109.176 373.707 106.841 371.252 104.453 368.758C106.841 372.626 108.949 376.495 110.777 380.363C113.965 387.54 115.899 394.477 116.579 401.2C117.26 408.03 116.686 414.34 114.872 420.142C114.752 420.369 114.525 420.489 114.191 420.489H114.018C113.791 420.369 113.671 420.142 113.671 419.808C114.125 414.005 113.724 407.909 112.484 401.533C111.11 395.503 108.896 389.073 105.814 382.244C103.199 376.321 99.9579 370.119 96.0893 363.635C95.5156 362.714 94.942 361.807 94.3818 360.9C94.3818 361.007 94.435 361.127 94.5552 361.234C96.5962 367.504 97.2765 373.76 96.5962 380.017C95.9159 386.393 93.7014 392.262 89.9397 397.612C86.8716 402.16 82.883 406.096 77.9875 409.39C77.7608 409.617 77.5341 409.617 77.3073 409.39C77.0805 409.044 77.0805 408.763 77.3073 408.537C81.1758 404.215 84.2439 399.826 86.5249 395.383C89.2596 390.261 90.9671 384.911 91.6474 379.335C92.221 373.986 91.8741 368.357 90.6202 362.434C89.2596 356.964 87.432 351.962 85.1642 347.413V347.066C84.5906 346.492 84.0838 345.932 83.6169 345.359C83.3901 345.132 83.3901 344.852 83.6169 344.505C83.9638 344.278 84.2439 344.278 84.4706 344.505C85.0443 344.958 85.6178 345.412 86.1781 345.866C86.2979 345.866 86.4048 345.932 86.5249 346.039C91.0738 348.32 96.0894 350.081 101.546 351.335C107.469 352.696 113.112 353.042 118.461 352.362C124.037 351.788 129.439 350.134 134.682 347.413C139.004 345.012 143.326 341.89 147.649 338.022C147.996 337.902 148.276 337.902 148.502 338.022C148.729 338.355 148.729 338.649 148.502 338.875C145.207 343.651 141.286 347.64 136.724 350.828C131.374 354.469 125.518 356.684 119.141 357.484C112.872 358.165 106.668 357.426 100.532 355.257H100.185C101.092 355.723 102.012 356.23 102.92 356.804C109.403 360.779 115.552 364.087 121.355 366.702C128.185 369.77 134.681 371.944 140.818 373.185C147.087 374.559 153.117 374.959 158.92 374.386C159.267 374.386 159.493 374.559 159.6 374.893C159.72 375.239 159.6 375.467 159.266 375.588ZM-122.815 428.852C-122.588 428.852 -122.415 428.91 -122.295 429.026L-122.135 429.199C-122.135 429.305 -122.068 429.425 -121.961 429.533C-116.946 434.322 -111.036 436.763 -104.206 436.883C-97.2558 436.763 -91.2799 434.322 -86.2771 429.533C-77.3929 419.288 -76.5388 408.416 -83.716 396.931C-87.8113 390.888 -91.3997 381.79 -94.4678 369.611C-97.4292 357.432 -95.2682 344.559 -87.9847 331.019C-96.0552 335.915 -104.886 338.356 -114.45 338.356C-133.339 336.422 -147.4 331.873 -156.617 324.696H-156.964C-160.713 322.655 -164.701 321.628 -168.916 321.628C-175.853 321.735 -181.829 324.189 -186.845 328.965C-196.637 340.917 -196.637 352.816 -186.845 364.649L-186.672 364.822C-186.551 364.942 -186.445 364.996 -186.325 364.996C-186.218 365.116 -186.165 365.275 -186.165 365.503C-186.165 365.729 -186.271 365.903 -186.498 366.023C-187.525 366.823 -188.499 367.61 -189.406 368.411C-194.182 373.413 -196.636 379.336 -196.743 386.166C-196.637 393.116 -194.182 399.092 -189.406 404.095C-183.83 409.444 -177.107 411.832 -169.25 411.271C-169.023 411.378 -168.863 411.498 -168.743 411.605C-168.623 411.725 -168.57 411.832 -168.57 411.952C-169.143 419.809 -166.756 426.519 -161.406 432.095C-156.391 436.884 -150.414 439.325 -143.478 439.445C-136.648 439.325 -130.725 436.884 -125.71 432.095C-124.923 431.308 -124.069 430.334 -123.148 429.2C-123.148 428.973 -123.042 428.852 -122.815 428.852ZM-130.498 401.707C-131.859 407.963 -132.259 414.06 -131.686 419.982C-131.686 420.209 -131.859 420.37 -132.206 420.49H-132.379C-132.606 420.49 -132.766 420.37 -132.886 420.143C-134.821 414.46 -135.447 408.191 -134.767 401.361C-133.967 394.651 -131.979 387.701 -128.791 380.537C-126.963 376.442 -124.802 372.454 -122.295 368.585C-124.802 371.093 -127.257 373.588 -129.645 376.096C-140.117 386.46 -150.361 395.732 -160.379 403.922C-160.606 404.149 -160.886 404.149 -161.233 403.922C-161.34 403.588 -161.34 403.295 -161.233 403.069C-152.922 393.05 -143.585 382.872 -133.233 372.507C-130.952 370.119 -128.564 367.731 -126.056 365.344C-129.925 367.838 -133.793 369.946 -137.662 371.653C-144.839 374.841 -151.788 376.776 -158.499 377.456C-165.329 378.257 -171.585 377.683 -177.281 375.749C-177.628 375.642 -177.788 375.415 -177.788 375.068C-177.682 374.734 -177.454 374.561 -177.108 374.561C-171.305 375.015 -165.209 374.619 -158.846 373.36C-152.803 372 -146.373 369.772 -139.544 366.704C-133.621 364.089 -127.418 360.848 -120.934 356.965C-120.027 356.405 -119.174 355.832 -118.373 355.258L-118.547 355.431C-124.803 357.592 -131.006 358.339 -137.156 357.659C-143.639 356.858 -149.562 354.631 -154.911 350.989C-159.474 347.801 -163.395 343.826 -166.69 339.037C-166.917 338.703 -166.917 338.41 -166.69 338.183C-166.357 337.957 -166.063 337.957 -165.837 338.183C-161.408 342.065 -157.019 345.133 -152.697 347.415C-147.574 350.136 -142.225 351.843 -136.649 352.537C-134.941 352.764 -133.167 352.871 -131.353 352.871C-127.591 352.871 -123.723 352.417 -119.734 351.51C-114.158 350.256 -109.102 348.429 -104.54 346.041H-104.366C-103.806 345.481 -103.232 344.96 -102.659 344.507C-102.432 344.28 -102.152 344.28 -101.805 344.507C-101.578 344.854 -101.578 345.134 -101.805 345.361C-102.272 345.934 -102.726 346.494 -103.179 347.068C-103.179 347.188 -103.232 347.295 -103.353 347.415C-105.62 351.964 -107.395 356.966 -108.635 362.436C-110.009 368.358 -110.343 374.041 -109.662 379.511C-109.102 384.98 -107.448 390.329 -104.713 395.559C-102.325 399.881 -99.1906 404.216 -95.3221 408.538C-95.2018 408.884 -95.2018 409.165 -95.3221 409.392C-95.5489 409.618 -95.829 409.671 -96.1758 409.565C-100.951 406.15 -104.94 402.161 -108.128 397.613C-111.77 392.263 -113.984 386.394 -114.784 380.018C-115.465 373.762 -114.731 367.558 -112.57 361.409V361.075C-113.023 361.982 -113.53 362.889 -114.104 363.796C-118.093 370.292 -121.388 376.442 -124.002 382.245C-127.084 389.074 -129.244 395.557 -130.498 401.707ZM103.947 74.2161C103.947 74.2161 103.88 74.1493 103.773 74.0427C98.8775 69.2537 92.9546 66.8126 86.0178 66.6925C79.0678 66.8126 73.0918 69.2537 68.0891 74.0427C59.2049 84.2873 58.3508 95.1592 65.5279 106.658C69.7299 112.688 73.3182 121.799 76.2797 133.978C79.3478 146.264 77.2535 159.123 69.9566 172.556C77.9337 167.66 86.6976 165.219 96.2626 165.219C115.152 167.153 129.212 171.702 138.43 178.879H138.776C142.525 180.933 146.567 181.947 150.902 181.947C157.732 181.84 163.641 179.385 168.657 174.61C178.449 162.658 178.449 150.759 168.657 138.926C168.537 138.926 168.484 138.872 168.484 138.752L168.31 138.579C168.084 138.472 167.977 138.299 167.977 138.072L168.31 137.725C169.458 136.818 170.418 135.964 171.219 135.164C176.114 130.268 178.555 124.359 178.555 117.408C178.555 110.458 176.114 104.482 171.219 99.4797C165.642 94.1305 158.973 91.7427 151.236 92.303C151.009 92.303 150.835 92.2498 150.729 92.1429C150.608 91.9161 150.555 91.7427 150.555 91.6227C151.009 83.7656 148.568 77.0559 143.218 71.4801C138.323 66.6911 132.4 64.2499 125.45 64.1299C118.514 64.2499 112.538 66.6911 107.522 71.4801C106.734 72.2804 105.934 73.2409 105.134 74.3748C105.027 74.6017 104.854 74.7217 104.627 74.7217C104.507 74.7217 104.333 74.6685 104.107 74.5483C104.107 74.4416 104.054 74.3228 103.947 74.2161ZM105.814 121.33C108.895 114.5 111.057 108.017 112.31 101.867C113.671 95.611 114.125 89.5812 113.671 83.7653C113.565 83.4318 113.671 83.2051 114.018 83.0851C114.471 82.9784 114.698 83.085 114.698 83.4319C116.633 89.2347 117.259 95.4905 116.579 102.214C115.899 108.924 113.898 115.874 110.603 123.038C108.895 127.146 106.788 131.188 104.28 135.163C106.668 132.548 109.122 130.04 111.63 127.653C121.982 117.288 132.173 107.963 142.191 99.6526C142.525 99.5326 142.818 99.5326 143.045 99.6526C143.272 99.9861 143.272 100.28 143.045 100.506C134.841 110.524 125.57 120.769 115.205 131.241C112.817 133.509 110.429 135.843 108.041 138.244C111.79 135.843 115.605 133.749 119.474 131.921C126.771 128.733 133.761 126.799 140.484 126.119C147.194 125.438 153.463 125.998 159.266 127.826C159.493 128.053 159.6 128.28 159.6 128.506C159.493 128.853 159.266 129.013 158.92 129.013C153.117 128.56 147.087 128.96 140.818 130.214C134.681 131.574 128.185 133.802 121.355 136.87C115.432 139.485 109.229 142.74 102.745 146.609C101.945 147.169 101.091 147.742 100.184 148.316C100.184 148.316 100.237 148.263 100.358 148.143C106.614 146.088 112.87 145.408 119.14 146.088C125.516 146.782 131.373 148.996 136.722 152.758C141.284 155.826 145.206 159.815 148.501 164.71C148.728 164.937 148.728 165.164 148.501 165.391C148.395 165.497 148.221 165.564 147.994 165.564C147.874 165.564 147.767 165.497 147.647 165.391C143.325 161.522 139.003 158.441 134.681 156.173C129.438 153.438 124.035 151.731 118.46 151.051C113.11 150.477 107.468 150.824 101.544 152.064C96.0884 153.318 91.0723 155.146 86.5236 157.534H86.3501C85.6698 158.107 85.0428 158.614 84.4692 159.068C84.2425 159.294 84.0156 159.294 83.7889 159.068C83.5622 158.734 83.5089 158.441 83.6154 158.214C84.0823 157.654 84.5358 157.08 84.9894 156.506C84.9894 156.4 85.0427 156.28 85.1629 156.173C87.4307 151.611 89.2582 146.608 90.6189 141.14C91.8729 135.217 92.2196 129.587 91.6461 124.238C90.9657 118.662 89.2583 113.26 86.5236 108.017C84.2426 103.695 81.1743 99.3593 77.3058 95.0376C77.079 94.7041 77.079 94.4106 77.3058 94.1838C77.5326 93.957 77.7594 93.9036 77.9862 94.0104C82.8819 97.4254 86.8705 101.414 89.9384 105.963C93.7001 111.312 95.9146 117.181 96.5949 123.557C97.2752 129.814 96.5416 136.017 94.3804 142.167V142.513C94.9407 141.593 95.5143 140.686 96.088 139.779C99.9565 133.282 103.199 127.146 105.814 121.33Z" fill="#9AB522"/>
<path fill-rule="evenodd" clip-rule="evenodd" d="M132.484 184.505L131.631 187.413C146.437 195.724 154.801 205.289 156.736 216.094C158.777 226.912 159.404 232.835 158.617 233.862L161.512 234.195C164.367 213.599 160.658 200.045 150.413 193.563C140.169 186.959 134.192 183.945 132.484 184.505ZM161.512 268.011L158.617 268.518C159.404 269.545 158.777 275.402 156.736 286.1C154.802 296.919 146.438 306.483 131.631 314.795L132.484 317.689C134.192 318.263 140.168 315.302 150.413 308.818C160.658 302.215 164.367 288.608 161.512 268.011ZM-150.279 319.237L-149.425 316.329C-164.218 308.018 -172.636 298.454 -174.69 287.649C-176.625 276.936 -177.198 271.081 -176.398 270.054L-179.466 269.547C-182.201 290.144 -178.506 303.75 -168.368 310.353C-158.123 316.836 -152.093 319.798 -150.279 319.237ZM-149.426 188.777L-150.279 185.882C-152.093 185.308 -158.07 188.323 -168.208 194.926C-178.453 201.423 -182.202 214.962 -179.467 235.573L-176.399 235.226C-177.199 234.199 -176.626 228.276 -174.691 217.47C-172.637 206.652 -164.219 197.088 -149.426 188.777ZM9.21333 419.456L8.69318 422.364C29.3033 425.205 42.8963 421.51 49.4992 411.265C55.9956 401.021 58.957 395.044 58.3833 393.337L55.4753 392.483C47.1647 407.276 37.6134 415.641 26.7948 417.575C16.0962 419.629 10.2278 420.256 9.21333 419.456ZM-25.2838 422.364L-25.6307 419.456C-26.6445 420.256 -32.5673 419.629 -43.3862 417.575C-54.1912 415.641 -63.7562 407.277 -72.0667 392.483L-74.9747 393.337C-75.535 395.044 -72.5202 401.02 -65.917 411.265C-59.4339 421.51 -45.894 425.205 -25.2838 422.364ZM-26.9918 84.4564L-26.6449 81.3748C-47.2551 78.6402 -60.7948 82.3487 -67.2912 92.4733C-73.8944 102.718 -76.9092 108.748 -76.3355 110.575L-73.4408 111.429C-65.1302 96.6356 -55.5653 88.2041 -44.7467 86.1635C-33.9416 84.2292 -28.0189 83.656 -26.9918 84.4564ZM7.15865 81.3746C27.7688 78.64 41.3618 82.4018 47.9646 92.6462C54.461 102.771 57.4091 108.747 56.8489 110.575L53.9408 111.429C45.6302 96.6353 36.0653 88.2039 25.2602 86.1633C14.5617 84.229 8.69257 83.6555 7.6655 84.4558L7.15865 81.3746Z" fill="#EAC199"/>
<path fill-rule="evenodd" clip-rule="evenodd" d="M141.7 251.783C141.593 251.783 141.54 251.662 141.54 251.436C141.54 251.209 141.593 251.035 141.7 250.929C148.303 245.233 151.665 238.056 151.785 229.412C150.184 212.337 140.846 202.946 123.771 201.238C122.531 201.345 121.103 201.518 119.503 201.745C119.276 201.745 119.116 201.692 118.996 201.572C118.876 201.345 118.822 201.185 118.822 201.065V200.385C117.235 183.31 107.897 173.972 90.8222 172.384C86.0466 172.718 81.8312 173.798 78.1895 175.626C84.6726 183.016 90.1417 191.167 94.584 200.038C99.0127 209.029 102.321 218.539 104.482 228.557C110.058 224.796 114.9 220.527 118.995 215.752C119.222 215.525 119.503 215.458 119.849 215.578C120.076 215.805 120.129 216.085 120.023 216.432C116.941 222.355 112.512 227.703 106.696 232.48C106.242 232.826 105.789 233.16 105.335 233.507C106.136 238.629 106.589 243.871 106.696 249.221C114.326 249.554 121.729 250.074 128.894 250.755C129.12 250.861 129.294 251.088 129.414 251.435C129.294 251.782 129.121 251.942 128.894 251.942C121.73 252.636 114.327 253.142 106.696 253.489C106.589 258.839 106.136 264.015 105.335 269.016C105.789 269.363 106.242 269.71 106.696 270.044C112.512 274.832 116.94 280.235 120.023 286.265C120.129 286.612 120.076 286.892 119.849 287.118C119.502 287.239 119.222 287.172 118.995 286.945C115.007 282.169 110.178 277.901 104.482 274.139C102.428 284.277 99.1861 293.842 94.7437 302.833C90.1949 311.704 84.6723 319.908 78.1895 327.418C81.8313 329.125 86.0466 330.153 90.8222 330.486C107.897 328.779 117.235 319.388 118.822 302.313V301.806C118.822 301.579 118.876 301.406 118.996 301.299C119.116 301.179 119.276 301.126 119.503 301.126C121.103 301.352 122.531 301.459 123.771 301.459C140.846 299.872 150.184 290.534 151.785 273.459C151.665 264.695 148.303 257.465 141.7 251.783ZM-137.129 287.119C-137.356 287.346 -137.582 287.346 -137.809 287.119C-138.156 287.012 -138.209 286.785 -137.983 286.439C-135.021 280.409 -130.579 274.993 -124.67 270.218C-123.976 269.764 -123.296 269.311 -122.615 268.857C-123.416 263.841 -123.869 258.772 -123.976 253.649C-131.833 253.316 -139.463 252.742 -146.867 251.942C-147.2 251.942 -147.374 251.782 -147.374 251.435C-147.374 251.088 -147.2 250.861 -146.867 250.755C-139.463 250.074 -131.833 249.554 -123.976 249.22C-123.869 244.098 -123.416 239.082 -122.615 234.187C-123.296 233.627 -123.976 233.106 -124.67 232.653C-130.579 227.877 -135.022 222.462 -137.983 216.432C-138.209 216.205 -138.156 215.978 -137.809 215.751C-137.582 215.525 -137.356 215.578 -137.129 215.925C-132.914 220.927 -127.791 225.369 -121.762 229.238C-119.827 219.113 -116.586 209.548 -112.023 200.557C-107.594 191.553 -102.125 183.309 -95.6424 175.799C-99.3909 173.865 -103.78 172.718 -108.782 172.384C-125.977 173.972 -135.368 183.31 -136.956 200.384V201.065C-136.849 201.291 -136.902 201.465 -137.129 201.572C-137.249 201.692 -137.409 201.745 -137.636 201.745C-139.117 201.411 -140.544 201.238 -141.905 201.238C-158.98 202.946 -168.317 212.337 -169.918 229.411C-169.798 238.056 -166.437 245.233 -159.833 250.929C-159.727 251.035 -159.673 251.209 -159.673 251.436C-159.673 251.556 -159.727 251.662 -159.833 251.782C-166.437 257.585 -169.798 264.815 -169.918 273.459C-168.318 290.534 -158.98 299.872 -141.905 301.459C-140.544 301.459 -139.117 301.353 -137.636 301.126H-137.476C-137.356 301.126 -137.249 301.179 -137.129 301.299C-136.902 301.406 -136.849 301.579 -136.956 301.806V302.313C-135.248 319.388 -125.857 328.779 -108.782 330.486C-103.78 330.153 -99.4444 329.006 -95.803 327.071C-102.299 319.561 -107.755 311.317 -112.197 302.313C-116.64 293.322 -119.828 283.758 -121.762 273.633C-127.792 277.621 -132.913 282.117 -137.129 287.119ZM26.6115 379.497C26.8382 379.723 26.8382 379.951 26.6115 380.177C26.5049 380.524 26.2778 380.63 25.9312 380.524C19.9016 377.442 14.4853 373.013 9.71004 367.197C9.3632 366.636 8.97635 366.116 8.50948 365.663C3.50702 366.343 -1.61508 366.743 -6.85789 366.864C-7.31151 374.494 -7.87164 381.938 -8.56532 389.234C-8.56532 389.688 -8.72559 389.915 -9.07233 389.915C-9.41917 389.795 -9.64594 389.568 -9.75261 389.234C-10.4329 381.938 -10.9532 374.494 -11.2868 366.864C-16.5293 366.743 -21.6513 366.289 -26.6541 365.489C-27.0009 366.063 -27.4011 366.637 -27.8546 367.197C-32.6303 373.013 -38.0459 377.441 -44.0758 380.524C-44.3025 380.63 -44.5293 380.524 -44.7561 380.177C-44.9829 379.951 -44.9296 379.723 -44.5826 379.497C-39.6869 375.401 -35.3649 370.452 -31.616 364.636C-41.7405 362.595 -51.2523 359.287 -60.1232 354.738C-69.1142 350.19 -77.3182 344.667 -84.7081 338.171C-86.6423 341.812 -87.7896 346.148 -88.1231 351.15C-86.5356 368.345 -77.1447 377.736 -59.9498 379.323H-59.4429C-59.2162 379.323 -59.0427 379.381 -58.936 379.497C-58.8157 379.617 -58.7625 379.776 -58.7625 380.004C-59.0962 381.605 -59.2695 383.032 -59.2695 384.273C-57.562 401.348 -48.1711 410.685 -31.0962 412.286C-22.452 412.166 -15.2748 408.805 -9.57898 402.201C-9.4724 402.095 -9.29895 402.042 -9.07204 402.042C-8.95181 402.042 -8.84518 402.1 -8.72514 402.201C-2.92233 408.805 4.3073 412.166 12.9517 412.286C30.0267 410.685 39.3642 401.348 40.9518 384.273C40.9518 382.912 40.8452 381.485 40.6181 380.004C40.6181 379.777 40.6714 379.617 40.7916 379.497C40.8982 379.377 41.0716 379.323 41.2985 379.323H41.8055C58.8804 377.736 68.2712 368.345 69.9788 351.15C69.6451 346.374 68.5648 342.212 66.7372 338.691C59.3471 345.174 51.1434 350.643 42.1524 355.085C33.1614 359.514 23.5974 362.702 13.4719 364.636C17.4471 370.452 21.8356 375.402 26.6115 379.497ZM-31.4424 138.391C-41.5669 140.445 -51.132 143.74 -60.1229 148.303C-69.0072 152.745 -77.1979 158.254 -84.7078 164.857C-86.642 161.108 -87.7893 156.666 -88.1228 151.544C-86.5353 134.469 -77.1444 125.078 -59.9495 123.37H-59.7894C-59.6692 123.49 -59.5627 123.49 -59.4425 123.37C-59.2157 123.37 -59.0424 123.317 -58.9356 123.197C-58.8154 123.09 -58.7621 122.917 -58.7621 122.69C-58.9888 121.209 -59.1623 119.782 -59.269 118.421C-57.5615 101.346 -48.1707 92.0088 -31.0957 90.4212C-22.4516 90.528 -15.2744 93.8895 -9.5786 100.492C-9.24493 100.719 -8.89822 100.719 -8.56473 100.492C-2.97537 93.8893 4.18793 90.5277 12.9524 90.4212C30.0273 92.0087 39.3649 101.346 40.9524 118.421C40.9524 119.782 40.8459 121.209 40.6188 122.69C40.6188 122.917 40.672 123.09 40.7923 123.197C40.8988 123.317 41.0723 123.37 41.2992 123.37C41.4194 123.49 41.4727 123.49 41.4727 123.37H41.8063C58.8813 124.958 68.2721 134.349 69.9796 151.544C69.646 156.319 68.5656 160.588 66.7381 164.35C59.2278 157.867 50.971 152.397 41.98 147.955C32.989 143.513 23.424 140.272 13.2994 138.23C17.1679 132.414 21.5434 127.412 26.4393 123.197C26.6661 122.97 26.7327 122.744 26.6128 122.517C26.3861 122.29 26.1059 122.17 25.7592 122.17C19.7295 125.251 14.3268 129.747 9.53804 135.67C9.08452 136.23 8.63086 136.804 8.17735 137.377C3.28168 136.684 -1.73424 136.297 -6.85605 136.177C-7.18973 128.32 -7.76312 120.756 -8.56348 113.473C-8.56348 113.126 -8.72365 112.899 -9.07048 112.779C-9.41733 112.899 -9.64409 113.126 -9.75076 113.473C-10.4311 120.756 -10.9514 128.32 -11.2849 136.177C-16.5275 136.297 -21.6495 136.751 -26.6522 137.538C-27.1191 136.977 -27.5727 136.35 -28.0263 135.67C-32.8019 129.747 -38.1508 125.252 -44.0741 122.17C-44.421 122.063 -44.7011 122.17 -44.9278 122.517C-45.048 122.744 -44.981 122.97 -44.7543 123.197C-39.752 127.413 -35.3111 132.482 -31.4424 138.391Z" fill="#CDD9C5"/>
<path fill-rule="evenodd" clip-rule="evenodd" d="M189.017 161.118C187.763 156.796 187.19 153.607 187.31 151.553C188.337 146.777 191.405 144.27 196.527 144.043C201.65 144.723 204.158 147.511 204.038 152.407C203.584 154.461 202.277 157.583 200.116 161.798C197.835 166.013 195.9 169.428 194.313 172.043L194.647 172.896C200.116 166.747 204.838 162.251 208.827 159.41C213.722 157.582 217.417 158.729 219.925 162.825C221.632 167.374 220.205 171.015 215.656 173.75C210.987 175.111 204.558 176.031 196.354 176.485L196.874 177.338C200.062 177.792 203.877 178.419 208.306 179.219C212.641 180.006 215.656 180.86 217.364 181.78C221.339 184.728 222.033 188.437 219.405 192.879C215.99 196.747 212.068 197.601 207.626 195.44C206.598 194.746 205.238 193.385 203.53 191.331L215.656 216.264C232.277 199.415 236.319 180.406 227.781 159.236C216.39 139.427 198.981 130.782 175.529 133.277L189.017 161.118ZM-207.292 349.272C-208.88 354.061 -212.241 356.275 -217.364 355.942C-222.366 354.688 -224.54 351.606 -223.847 346.71C-223.286 344.776 -221.632 341.815 -218.898 337.839C-216.283 333.851 -214.069 330.609 -212.241 328.101L-212.415 327.421C-218.564 332.997 -223.74 336.932 -227.955 339.2C-232.958 340.574 -236.546 339.093 -238.707 334.758C-239.841 330.102 -238.027 326.62 -233.238 324.352C-228.462 323.432 -221.979 323.205 -213.775 323.659L-214.122 322.645C-217.31 321.844 -221.058 320.817 -225.393 319.563C-229.595 318.309 -232.503 317.175 -234.091 316.148C-237.732 312.733 -238.026 308.985 -234.944 304.877C-231.196 301.355 -227.207 300.901 -222.992 303.516C-222.085 304.423 -220.898 305.957 -219.417 308.132L-228.968 281.999C-247.19 297.032 -253.1 315.521 -246.736 337.492C-237.625 358.435 -221.231 368.854 -197.553 368.746L-207.971 339.719C-207.291 344.041 -207.066 347.231 -207.292 349.272ZM214.631 281.665L201.825 309.838C204.44 306.076 206.548 303.568 208.148 302.314C212.47 300.047 216.392 300.834 219.927 304.715C222.662 309.038 222.088 312.733 218.22 315.814C216.392 316.828 213.151 317.801 208.481 318.709C203.812 319.736 199.944 320.469 196.876 320.936L196.529 321.617C204.733 321.843 211.163 322.644 215.832 324.004C220.38 326.512 221.914 330.101 220.434 334.756C217.926 338.865 214.231 340.052 209.335 338.345C205.24 335.61 200.398 331.288 194.822 325.365L194.488 326.219C199.037 333.276 202.278 339.492 204.213 344.841C204.439 349.737 201.998 352.578 196.876 353.378C191.753 353.378 188.619 350.924 187.485 346.028C187.258 344.774 187.436 342.84 187.992 340.225L176.56 365.664C200.117 367.598 217.312 358.501 228.117 338.345C236.094 316.947 231.586 298.045 214.631 281.665ZM-233.079 220.195L-220.273 192.021C-222.768 195.77 -224.822 198.278 -226.409 199.532C-230.852 201.799 -234.787 201.012 -238.202 197.144C-240.923 192.808 -240.363 189.113 -236.494 186.045C-234.667 185.018 -231.425 184.044 -226.756 183.137C-222.087 182.11 -218.219 181.376 -215.151 180.923L-214.804 180.229C-222.994 180.002 -229.49 179.215 -234.267 177.841C-238.829 175.334 -240.296 171.758 -238.709 167.09C-236.321 162.994 -232.613 161.794 -227.61 163.501C-223.622 166.236 -218.846 170.558 -213.27 176.48L-212.75 175.627C-217.312 168.57 -220.554 162.367 -222.488 157.017C-222.715 152.122 -220.327 149.214 -215.312 148.307C-210.082 148.413 -206.894 150.921 -205.76 155.817C-205.64 157.071 -205.867 159.005 -206.441 161.62L-194.821 136.181C-218.393 134.247 -235.574 143.358 -246.393 163.501C-254.477 184.79 -250.034 203.68 -233.079 220.195ZM80.4143 448.996C84.7363 447.742 87.9246 447.169 89.9789 447.289C94.8745 448.303 97.4357 451.384 97.6625 456.507C96.8621 461.629 94.0208 464.137 89.1252 464.017C87.0708 463.564 83.9494 462.256 79.734 460.095C75.5187 457.814 72.1036 455.88 69.4894 454.279L68.8091 454.625C74.8387 460.095 79.2812 464.817 82.1223 468.792C84.0565 473.688 82.9226 477.397 78.7073 479.891C74.1585 481.598 70.5701 480.184 67.9554 475.622C66.4748 470.967 65.5009 464.524 65.0475 456.333L64.1938 456.841C63.7402 460.029 63.1133 463.844 62.3129 468.286C61.5259 472.609 60.6721 475.623 59.7517 477.331C56.8036 481.319 53.0952 482 48.6534 479.385C44.7849 475.97 43.9311 472.048 46.0922 467.606C46.7859 466.579 48.1998 465.218 50.3608 463.511L25.2688 475.624C42.1172 492.245 61.1262 496.287 82.2959 487.749C102.105 476.37 110.75 458.949 108.255 435.497L80.4143 448.996ZM-98.0205 51.8374C-102.343 52.5177 -105.531 52.7445 -107.585 52.5177C-112.361 50.9302 -114.575 47.5687 -114.242 42.4464C-112.988 37.4307 -109.919 35.2697 -105.024 35.95C-103.09 36.5237 -100.128 38.1777 -96.1396 40.9124C-92.151 43.527 -88.9094 45.7413 -86.4013 47.5688L-85.721 47.3954C-91.297 41.2458 -95.2855 36.0696 -97.6732 31.8548C-98.9271 26.8525 -97.3931 23.264 -93.0709 21.103C-88.4021 19.9558 -84.9204 21.7833 -82.6531 26.5589C-81.7461 31.3479 -81.5059 37.8305 -81.9728 46.0345L-80.9456 45.6877C-80.2653 42.4995 -79.2915 38.7377 -78.0376 34.4161C-76.7836 30.2007 -75.5965 27.306 -74.4492 25.7052C-71.1543 22.0635 -67.3926 21.7834 -63.1902 24.8515C-59.6552 28.6133 -59.2016 32.6019 -61.8161 36.8037C-62.7232 37.7241 -64.2707 38.9114 -66.4317 40.3921L-40.299 30.8275C-55.3324 12.619 -73.8216 6.69569 -95.7918 13.0721C-116.749 22.1831 -127.154 38.5775 -127.046 62.2553L-98.0205 51.8374ZM-60.6284 468.116C-58.3474 472.438 -59.1477 476.373 -63.0162 479.895C-67.3383 482.629 -71.0333 482.069 -74.1145 478.187C-75.1417 476.373 -76.1022 473.132 -77.0093 468.463C-78.0365 463.794 -78.7836 459.925 -79.2371 456.843L-79.9174 456.509C-80.1441 464.7 -80.9445 471.129 -82.3052 475.798C-84.813 480.36 -88.4014 481.894 -93.0706 480.414C-97.1659 477.906 -98.3531 474.211 -96.6457 469.315C-93.9244 465.22 -89.589 460.378 -83.679 454.802L-84.5327 454.455C-91.5894 459.017 -97.7927 462.259 -103.142 464.194C-108.038 464.42 -110.932 461.966 -111.853 456.843C-111.733 451.721 -109.225 448.599 -104.329 447.452C-103.089 447.226 -101.141 447.404 -98.5265 447.973L-123.965 436.527C-125.899 460.098 -116.802 477.28 -96.6456 488.098C-75.3684 496.062 -56.4659 491.567 -39.965 474.612L-68.1383 461.806C-64.3766 464.421 -61.869 466.528 -60.6284 468.116ZM42.1663 33.5611C43.4202 35.1619 45.9281 37.2028 49.6765 39.7108L21.5032 26.9048C37.8977 9.9499 56.8002 5.50767 78.1973 13.5916C98.3399 24.3967 107.451 41.5916 105.517 65.1494L80.0782 53.5438C82.6929 54.1041 84.6271 54.3442 85.881 54.2241C90.7767 53.0903 93.2712 49.9021 93.3914 44.6596C92.4842 39.6572 89.5761 37.2694 84.6805 37.4961C79.3312 39.4304 73.1281 42.6719 66.0712 47.2208L65.2175 46.8874C71.1404 41.1914 75.4621 36.3495 78.1967 32.3739C79.9042 27.3581 78.7037 23.663 74.6084 21.2755C69.9394 19.6748 66.3511 21.1554 63.8566 25.7042C62.4826 30.4932 61.6823 36.9759 61.4555 45.1799L60.7752 44.8331C60.3217 41.7649 59.588 37.8831 58.5608 33.2275C57.6537 28.5586 56.6799 25.3169 55.6527 23.4891C52.5845 19.6206 48.8762 19.0469 44.5543 21.7816C40.6858 25.1966 39.8852 29.1191 42.1663 33.5611Z" fill="#123B14"/>
<path fill-rule="evenodd" clip-rule="evenodd" d="M188.63 318.382L180.092 301.467L163.191 310.005L171.728 326.92L188.63 318.382ZM-189.915 175.812L-206.817 184.35L-198.28 201.251L-181.378 192.714L-189.915 175.812ZM188.968 185.537L172.067 177.173L163.703 194.075L180.604 202.439L188.968 185.537ZM-207.165 317.014L-190.264 325.378L-181.9 308.476L-198.801 300.112L-207.165 317.014ZM-84.7301 432.092L-76.1927 449.007L-59.291 440.47L-67.8284 423.555L-84.7301 432.092ZM66.5427 70.4488L58.0054 53.5471L41.1037 62.0845L49.6411 78.9861L66.5427 70.4488ZM39.7431 440.969L56.6447 449.333L65.0087 432.431L48.1071 424.067L39.7431 440.969ZM-75.0063 53.1986L-58.1046 61.5626L-66.4686 78.4779L-83.3703 70.1005L-75.0063 53.1986Z" fill="#EAC199"/>
</g>
<defs>
<clipPath id="clip0_212_907">
<rect width="502" height="502" fill="white" transform="translate(-260)"/>
</clipPath>
</defs>
</svg>
