<?xml version="1.0" encoding="UTF-8"?>
<svg width="51.837mm" height="51.836mm" viewBox="0 0 51.837 51.836" xmlns="http://www.w3.org/2000/svg">
<g transform="translate(-55.315 -64.138)" fill-rule="evenodd">
<path d="m105.4 88.878c-0.0937-0.98805-0.62977-1.5227-1.6054-1.6054-0.0827 0-0.16399 0.0055-0.24667 0.01792-0.0234 0-0.0413-0.0055-0.0524-0.01792-0.0124-0.01101-0.0179-0.02893-0.0179-0.05237v-0.01791c-0.0937-0.98805-0.62977-1.5282-1.6054-1.6233-0.86954 0.05925-1.3987 0.51263-1.5875 1.3587-0.0937 0.45889-0.34727 1.0349-0.75792 1.7281-0.41203 0.68213-1.0762 1.1768-1.994 1.4828 0.9412 0.30455 1.6178 0.82269 2.0285 1.5517 0.41203 0.74138 0.65871 1.3587 0.74139 1.8521 0.011 0.01242 0.0179 0.02343 0.0179 0.03583 0.25769 0.71658 0.77583 1.0983 1.5517 1.1465 0.97565-0.09508 1.5117-0.62976 1.6054-1.6054v-0.03583c0-0.02343 6e-3 -0.04134 0.0179-0.05237 0.011-0.01242 0.0289-0.01792 0.0524-0.01792 0.0827 0.02343 0.16399 0.03583 0.24667 0.03583 0.43546-0.01242 0.81166-0.17088 1.1286-0.4768 0.30592-0.31695 0.4644-0.70004 0.4768-1.1465-0.0124-0.49334-0.20532-0.90537-0.58153-1.2347-0.0124-0.01242-0.0179-0.02342-0.0179-0.03583 0-0.02342 5e-3 -0.03996 0.0179-0.05237 0.37621-0.32935 0.56913-0.74138 0.58153-1.2347m-1.305 1.3408c-0.84749 0.08268-1.746 0.12265-2.6996 0.12265h-0.44098c0.22462 0.05926 0.42995 0.12402 0.61736 0.1943 0.48232 0.18879 0.89435 0.41754 1.2347 0.68764 0.35277 0.2825 0.61736 0.60082 0.79375 0.9536 0.0124 0.03447 0 0.06477-0.0345 0.08819-0.0234 0.01101-0.0469 0.0055-0.0703-0.01792-0.24805-0.2949-0.54708-0.55259-0.89986-0.77584-0.32935-0.21222-0.72347-0.40652-1.1824-0.58291-0.37621-0.15296-0.80478-0.28801-1.2871-0.40514h-0.0179c0.32935 0.18741 0.59945 0.41755 0.81166 0.68764 0.25908 0.32935 0.42857 0.70556 0.51126 1.1286 0.0592 0.34175 0.0592 0.70556 0 1.0942-0.0124 0.02343-0.0358 0.04134-0.0703 0.05237-0.0358-0.01101-0.0537-0.03447-0.0537-0.07028-0.0234-0.37621-0.0813-0.71107-0.17638-1.006-0.11714-0.3638-0.28802-0.68764-0.51126-0.97014-0.21084-0.2701-0.48231-0.51125-0.81166-0.72209-0.30455-0.18879-0.61736-0.33624-0.93431-0.44097h-0.01792c-0.03447-0.01242-0.08268-0.01792-0.14056-0.01792-0.03583 0-0.05374-0.01792-0.05374-0.05374 0-0.04685 0.01792-0.07028 0.05374-0.07028 0.04685 0 0.09371-0.0055 0.14056-0.01792h0.01792c0.31695-0.10473 0.62976-0.25218 0.93431-0.44097 0.32935-0.21084 0.60082-0.452 0.81166-0.72209 0.23565-0.2825 0.40652-0.60634 0.51126-0.97014 0.0951-0.30592 0.15296-0.64768 0.17638-1.0239 0-0.02343 0.0179-0.04134 0.0537-0.05237 0.0345 0 0.0579 0.01792 0.0703 0.05237 0.0592 0.3762 0.0592 0.74138 0 1.0942-0.0827 0.42306-0.25218 0.79926-0.51126 1.1286-0.21221 0.2701-0.48231 0.50023-0.81166 0.68764l0.0179-0.01792c0.46991-0.11713 0.89986-0.24667 1.2871-0.38723 0.45889-0.17639 0.85301-0.37069 1.1824-0.58291 0.35277-0.23426 0.65181-0.49334 0.89985-0.77584 0.0234-0.02342 0.0469-0.02893 0.0703-0.01792 0.0345 0.02342 0.0469 0.05374 0.0345 0.08819-0.18741 0.34175-0.452 0.65319-0.79375 0.93569-0.34038 0.2825-0.75241 0.51677-1.2347 0.70556-0.19982 0.07028-0.41066 0.13505-0.6339 0.1943h0.45751c0.96462 0 1.8645 0.03996 2.6996 0.12265 0.0234 0.01242 0.0413 0.03583 0.0524 0.07028-0.011 0.02342-0.0289 0.04134-0.0524 0.05374m-39.158-0.053736c-0.9412-0.30455-1.6178-0.8282-2.0285-1.5696-0.41203-0.72898-0.66421-1.3463-0.7593-1.8521v-0.01792c-0.27012-0.71653-0.78688-1.0982-1.5517-1.1465-0.97565 0.09508-1.5117 0.62976-1.6054 1.6054v0.03583c0 0.02343-0.0055 0.04134-0.01792 0.05237-0.01101 0.01242-0.02893 0.01792-0.05237 0.01792-0.09371-0.01242-0.17639-0.01792-0.24667-0.01792-0.43546 0-0.81166 0.15296-1.1286 0.45889-0.31832 0.31695-0.4768 0.70004-0.4768 1.1465 0.01242 0.49334 0.20533 0.90537 0.58153 1.2347 0.01242 0.01242 0.01792 0.02893 0.01792 0.05237 0 0.01242-0.0055 0.02342-0.01792 0.03583-0.37621 0.32935-0.56913 0.74138-0.58153 1.2347 0.0937 0.98805 0.62976 1.5282 1.6054 1.6233 0.08268-0.01242 0.16398-0.02343 0.24667-0.03583h0.01792c0.01101 0 0.02343 0.0055 0.03447 0.01792 0.01242 0.01101 0.01792 0.02893 0.01792 0.05237v0.01792c0.0937 0.98805 0.62976 1.5282 1.6054 1.6233 0.86954-0.05926 1.3987-0.50574 1.5875-1.3408 0.0937-0.47129 0.34037-1.0473 0.74138-1.7294 0.41066-0.69316 1.0818-1.1934 2.0106-1.4993m-3.1047 1.2347c-0.22324 0.2949-0.38861 0.61736-0.49334 0.97014-0.09508 0.30593-0.15296 0.64768-0.17639 1.0239 0 0.03447-0.01792 0.05237-0.05374 0.05237-0.03447 0-0.05788-0.01792-0.07028-0.05237-0.05926-0.3762-0.05926-0.74138 0-1.0942 0.08268-0.42306 0.25218-0.79926 0.51125-1.1286 0.21222-0.27009 0.4768-0.49334 0.79375-0.66973-0.46991 0.11713-0.90537 0.24667-1.305 0.38723-0.44649 0.17639-0.8406 0.37621-1.1824 0.59945-0.34038 0.22462-0.6339 0.4768-0.88194 0.7593-0.02343 0.03447-0.04686 0.04134-0.07028 0.01792-0.03447-0.02343-0.04685-0.04823-0.03447-0.07166 0.17639-0.3638 0.44097-0.68213 0.79375-0.95222 0.34038-0.2825 0.75241-0.51125 1.2347-0.68764 0.19982-0.08268 0.41066-0.15296 0.6339-0.21222-1.1162 0.01242-2.169-0.02893-3.1571-0.12265-0.03447 0-0.05237-0.01792-0.05237-0.05374 0-0.04685 0.01792-0.07028 0.05237-0.07028 0.97565-0.09371 2.0174-0.13505 3.1226-0.12265-0.21222-0.05926-0.41203-0.12402-0.59945-0.1943-0.48231-0.18879-0.89434-0.41754-1.2347-0.68764-0.35278-0.2825-0.61736-0.60082-0.79375-0.9536-0.01242-0.03447 0-0.06477 0.03447-0.08819 0.02343-0.01101 0.04685-0.0055 0.07028 0.01792 0.24804 0.2949 0.54157 0.5526 0.88194 0.77584 0.34175 0.22462 0.73587 0.41754 1.1824 0.58291 0.39963 0.15296 0.83509 0.28801 1.305 0.40514h0.01789c-0.32935-0.17639-0.59945-0.40514-0.81166-0.68764-0.2701-0.32935-0.44097-0.70004-0.51125-1.1107-0.07028-0.36518-0.07028-0.73587 0-1.1121 0.01242-0.02342 0.03583-0.04134 0.07028-0.05237 0.03583 0.01101 0.05374 0.03447 0.05374 0.07028 0.02343 0.37621 0.08131 0.71107 0.17639 1.006 0.10473 0.3638 0.2701 0.68764 0.49334 0.97014 0.22324 0.2701 0.50023 0.51125 0.82958 0.72209 0.30455 0.18879 0.61736 0.33624 0.93431 0.44097l0.14056 0.01792c0.04823 0.01242 0.07166 0.03583 0.07166 0.07028-0.01242 0.02342-0.03583 0.04134-0.07166 0.05374-0.03447 0.01101-0.07579 0.01792-0.12265 0.01792-0.01242 0-0.01792 0.0055-0.01792 0.01654-0.31695 0.09508-0.62976 0.23564-0.93431 0.42443-0.32935 0.21084-0.60634 0.452-0.82958 0.72209m23.971 19.403c-0.05788-0.86954-0.50574-1.3987-1.3408-1.5875-0.46991-0.0937-1.0459-0.34589-1.7281-0.75792-0.69315-0.41204-1.1934-1.0762-1.4993-1.9926-0.30592 0.93983-0.82269 1.6164-1.5517 2.0285-0.74138 0.41065-1.3587 0.65732-1.8521 0.74-0.01242 0.0124-0.02342 0.0179-0.03583 0.0179-0.71796 0.25906-1.0997 0.77583-1.1465 1.5517 0.0937 0.97703 0.62976 1.5117 1.6054 1.6054h0.03447c0.02342 0 0.04134 6e-3 0.05374 0.0179 0.01101 0.0124 0.01792 0.0289 0.01792 0.0524-0.01242 0.0827-0.01792 0.16536-0.01792 0.24804 0.08268 0.97566 0.61736 1.5103 1.6054 1.604 0.49334-0.011 0.90537-0.20533 1.2347-0.58153 0.01101-0.0124 0.02893-0.0179 0.05237-0.0179 0.01242 0 0.02343 5e-3 0.03583 0.0179 0.32935 0.3762 0.74001 0.57051 1.2347 0.58153 0.98668-0.0937 1.5282-0.62838 1.622-1.604-0.01101-0.0827-0.02343-0.16536-0.03447-0.24804 0-0.0234 0.0055-0.04 0.01655-0.0524 0.02342-0.0234 0.04823-0.0289 0.07166-0.0179 0.98668-0.0937 1.5282-0.62838 1.622-1.6054m-1.3408-0.44097c-0.3762 0.0593-0.74001 0.0593-1.0928 0-0.42306-0.0813-0.79926-0.25219-1.1286-0.51126-0.27147-0.21084-0.49471-0.48231-0.6711-0.81166v0.0179c0.11851 0.47129 0.24667 0.89986 0.38861 1.2885 0.17639 0.45751 0.37621 0.85163 0.59945 1.181 0.22324 0.35278 0.4768 0.65319 0.75792 0.89986 0.03583 0.0234 0.04134 0.0469 0.01792 0.0703-0.02342 0.0358-0.04685 0.0469-0.07028 0.0358-0.36518-0.17639-0.68213-0.44097-0.95222-0.79375-0.2825-0.34175-0.51125-0.75241-0.68764-1.2347-0.08269-0.19988-0.15297-0.4121-0.21222-0.63534v0.45889c0 0.95222-0.04134 1.8521-0.12402 2.6982 0 0.0234-0.01655 0.0413-0.05237 0.0537-0.04685-0.0124-0.07028-0.0303-0.07028-0.0537-0.08268-0.84612-0.12402-1.746-0.12402-2.6982v-0.44098c-0.05788 0.22325-0.12265 0.42857-0.1943 0.61737-0.18741 0.48231-0.41755 0.89296-0.68764 1.2347-0.2825 0.35278-0.59945 0.61736-0.95222 0.79375-0.03583 0.011-0.06477 0-0.08819-0.0358-0.01242-0.0234-0.0055-0.0469 0.01792-0.0703 0.29352-0.24667 0.55259-0.54708 0.77584-0.89986 0.22324-0.32935 0.41754-0.72347 0.58153-1.181 0.15296-0.38861 0.28801-0.81717 0.40652-1.2885v-0.0179c-0.17639 0.32935-0.40652 0.60083-0.68764 0.81167-0.32935 0.25907-0.70004 0.42995-1.1121 0.51125-0.3638 0.0593-0.73449 0.0593-1.1107 0-0.02343-0.011-0.04134-0.0345-0.05374-0.0703 0.01242-0.0345 0.03583-0.0524 0.07166-0.0524 0.37621-0.0234 0.71107-0.0827 1.0046-0.17638 0.36518-0.11852 0.68764-0.28802 0.97014-0.51126 0.27009-0.21221 0.51125-0.48231 0.72347-0.81166 0.18879-0.30593 0.33486-0.61736 0.44097-0.93569l0.01792-0.15847c0.01101-0.0234 0.03447-0.0413 0.07028-0.0524 0.02342 0.011 0.04134 0.0289 0.05237 0.0524 0.01242 0.0469 0.01792 0.0937 0.01792 0.14193l0.01792 0.0165c0.0937 0.31833 0.23564 0.62976 0.42306 0.93569 0.21222 0.32935 0.45337 0.59944 0.72347 0.81166 0.29352 0.23427 0.61736 0.40514 0.97014 0.51125 0.30593 0.0937 0.6463 0.15296 1.0225 0.17639 0.03583 0 0.05374 0.0179 0.05374 0.0524 0 0.0358-0.01792 0.0592-0.05374 0.0703m-7.8135-40.85c0.05926 0.86954 0.51125 1.3987 1.3587 1.5875 0.45751 0.09371 1.0349 0.34038 1.7281 0.74001 0.68213 0.41203 1.1755 1.0818 1.4814 2.0106 0.30592-0.93982 0.82407-1.6164 1.553-2.0285 0.74001-0.41066 1.3629-0.66421 1.8686-0.75792h0.01792c0.71796-0.25907 1.0997-0.77584 1.1465-1.5517-0.09371-0.97703-0.62838-1.5117-1.6054-1.6054h-0.03447c-0.02343 0-0.04134-0.0055-0.05374-0.01791-0.01101-0.0124-0.01655-0.02894-0.01655-0.05237 0.02343-0.09508 0.03447-0.17639 0.03447-0.24805-0.09371-0.97565-0.63528-1.5103-1.622-1.604-0.49471 0.01102-0.90537 0.20533-1.2347 0.58153-0.01242 0.0124-0.02342 0.01791-0.03583 0.01791-0.02342 0-0.04134-0.0055-0.05237-0.01791-0.32935-0.3762-0.74138-0.57051-1.2347-0.58153-0.98805 0.09371-1.5227 0.62838-1.6054 1.604 0 0.08268 0.0055 0.16536 0.01792 0.24805 0 0.02343-0.0069 0.03996-0.01792 0.05237-0.01242 0.0124-0.0303 0.01791-0.05374 0.01791h-0.01655c-0.98805 0.09371-1.5296 0.62838-1.6233 1.6054m1.3408 0.44097c0.37621-0.05926 0.74001-0.05926 1.0928 0 0.42443 0.07028 0.80064 0.24116 1.13 0.51125 0.2701 0.21084 0.49885 0.48231 0.68764 0.81166-0.01242-0.0124-0.01792-0.01791-0.01792-0.01791-0.11713-0.48231-0.24667-0.91777-0.38861-1.305-0.17639-0.44786-0.36932-0.84198-0.58153-1.1824-0.23564-0.34038-0.49334-0.63528-0.77584-0.88194-0.02343-0.02343-0.0303-0.04685-0.01792-0.07028 0.02343-0.03583 0.05237-0.04685 0.08819-0.03583 0.35278 0.17639 0.66421 0.44097 0.93431 0.79375 0.2825 0.34175 0.51814 0.75241 0.70556 1.2347 0.07166 0.19982 0.13643 0.41203 0.1943 0.63528v-0.4768c0-0.93982 0.04134-1.8342 0.12402-2.6803 0.01101-0.03583 0.03447-0.05374 0.07028-0.05374 0.02342 0 0.04134 0.01791 0.05237 0.05374 0.0827 0.83509 0.12404 1.7281 0.12404 2.6803v0.44097c0.05926-0.21084 0.12402-0.41066 0.1943-0.59945 0.18741-0.48231 0.41754-0.89297 0.68764-1.2347 0.2825-0.35278 0.59945-0.61736 0.95222-0.79375 0.03583-0.01103 0.06477 0 0.08819 0.03583 0.01242 0.02343 0.0055 0.04685-0.01792 0.07028-0.29352 0.24667-0.5526 0.54157-0.77584 0.88194-0.21084 0.34038-0.40514 0.73449-0.58153 1.1824-0.15296 0.39963-0.28801 0.83371-0.40652 1.305v0.01791c0.18879-0.32935 0.41754-0.60082 0.68902-0.81166 0.32935-0.2701 0.70556-0.44097 1.1286-0.51125 0.35278-0.07166 0.71658-0.07166 1.0928 0 0.03583 0.01102 0.05374 0.03445 0.05374 0.07028-0.01242 0.03445-0.03583 0.05237-0.07028 0.05237-0.3762 0.02343-0.71244 0.08268-1.006 0.17639-0.36518 0.10611-0.68764 0.2701-0.97014 0.49472-0.2701 0.22324-0.51125 0.49885-0.72347 0.8282-0.18741 0.30592-0.33486 0.61736-0.44097 0.93569l-0.01791 0.14056c0 0.04685-0.01655 0.07028-0.05237 0.07028-0.04685-0.01102-0.07028-0.03445-0.07028-0.07028s-0.0055-0.07579-0.01792-0.12402v-0.01654c-0.10611-0.31833-0.25218-0.62976-0.44097-0.93569-0.21222-0.32935-0.45338-0.60496-0.72347-0.8282-0.2825-0.21222-0.60496-0.3762-0.97014-0.49472-0.30592-0.09371-0.6463-0.15296-1.0225-0.17639-0.02343 0-0.04134-0.01791-0.05374-0.05237 0-0.03583 0.01792-0.05926 0.05374-0.07028m-15.382 8.1483c0.08268 0.08268 0.1819 0.17088 0.30041 0.26458 0.02342 0 0.03447 0.0124 0.03447 0.03583s-0.0055 0.04134-0.01655 0.05237c-0.01242 0.0124-0.02342 0.01791-0.03583 0.01791 0 0.0124-0.0055 0.01791-0.01792 0.01791-0.49334 0.51676-0.7469 1.1341-0.75792 1.8521 0.01101 0.70556 0.26458 1.3174 0.75792 1.8342 0.51814 0.49334 1.1355 0.7469 1.8521 0.75792 0.55259 0 1.0583-0.16399 1.5172-0.49334 0.86954-0.63528 2.2104-1.0459 4.0211-1.2347 1.0115 0 1.9403 0.26458 2.7878 0.79375-0.76481-1.4235-0.97014-2.7933-0.61736-4.1093 0.3638-1.3174 0.78824-2.311 1.2692-2.9821v-0.03445c0.52917-1.1286 0.38309-2.158-0.44097-3.0868-0.51677-0.49472-1.1341-0.7469-1.8521-0.7593-0.70556 0.0124-1.316 0.26458-1.8342 0.7593-0.01101 0.01102-0.01792 0.01791-0.01792 0.01791 0 0.01102-0.0055 0.02343-0.01655 0.03445-0.01242 0.0124-0.0303 0.01791-0.05374 0.01791-0.01101 0-0.02893-0.0124-0.05237-0.03583-0.08268-0.11713-0.16536-0.21635-0.24667-0.29904-0.51814-0.49472-1.13-0.7469-1.8355-0.7593-0.71658 0.0124-1.3339 0.26458-1.8521 0.7593-0.55259 0.57602-0.79926 1.2692-0.74001 2.0808 0 0.0124-0.0055 0.03032-0.01792 0.05374-0.02342 0.01102-0.04134 0.01654-0.05237 0.01654-0.08268-0.01102-0.15985-0.01654-0.23013-0.01654-0.71658 0.01102-1.3339 0.26458-1.8521 0.75792-1.0115 1.2347-1.0115 2.4639 0 3.6863m1.2347-0.74001c0.58842-0.19982 1.2347-0.26458 1.9403-0.1943 0.69453 0.08268 1.4111 0.28801 2.1525 0.61736 0.42306 0.18741 0.83509 0.41066 1.2347 0.66973-0.25907-0.25907-0.51814-0.51125-0.77584-0.75792-1.0707-1.0818-2.0285-2.1401-2.876-3.175-0.02342-0.02343-0.02342-0.05374 0-0.08819 0.03583-0.0124 0.06477-0.0124 0.08819 0 1.0349 0.85852 2.0932 1.8218 3.175 2.8925 0.23564 0.23564 0.4768 0.48231 0.72347 0.74138-0.25907-0.40101-0.4768-0.80064-0.65319-1.2003-0.32935-0.74001-0.52917-1.458-0.59945-2.1511-0.08268-0.70556-0.02343-1.3532 0.17639-1.9403 0.01242-0.03583 0.03583-0.05374 0.07028-0.05374 0.03583 0.0124 0.05374 0.03583 0.05374 0.07028-0.04685 0.60082-0.0055 1.2292 0.12265 1.8879 0.14194 0.62287 0.37069 1.2871 0.68902 1.9926 0.25769 0.61185 0.59394 1.2526 1.0046 1.9237 0.05926 0.09371 0.11851 0.1819 0.17639 0.26458l-0.01792-0.01791c-0.22324-0.64768-0.29904-1.2885-0.22876-1.9224 0.08268-0.6711 0.31695-1.283 0.70556-1.8355 0.31695-0.46991 0.72898-0.87505 1.2347-1.2168 0.02342-0.02343 0.04685-0.01791 0.07028 0.01791 0.02342 0.02343 0.02342 0.04685 0 0.07028-0.3996 0.44649-0.71654 0.89986-0.95219 1.3587-0.2825 0.52917-0.45889 1.0818-0.52917 1.6578-0.05926 0.55259-0.02342 1.1341 0.10611 1.746 0.12954 0.565 0.31695 1.0886 0.56362 1.5696v0.01791c0.05926 0.05926 0.11162 0.11851 0.15985 0.17639 0.02343 0.02343 0.02343 0.05374 0 0.08819-0.03583 0.02343-0.06477 0.02343-0.08819 0-0.05926-0.04685-0.11851-0.09371-0.17639-0.14056-0.01242 0-0.02343-0.0055-0.03583-0.01791-0.46991-0.23564-0.98805-0.41754-1.5517-0.54708-0.61185-0.14056-1.2003-0.17639-1.7639-0.10611-0.565 0.05926-1.1176 0.23013-1.6592 0.51263-0.44649 0.24667-0.89297 0.56913-1.3395 0.97014-0.01242 0.01102-0.0303 0.01654-0.05374 0.01654-0.01101 0-0.02343-0.0055-0.03447-0.01654-0.02342-0.02343-0.0303-0.05374-0.01792-0.08819 0.35278-0.49472 0.76343-0.90537 1.2347-1.2347 0.5526-0.3762 1.1576-0.60634 1.8163-0.68902 0.64768-0.07028 1.2885 0.0069 1.9224 0.23013h0.03585c-0.09371-0.04685-0.18879-0.1006-0.2825-0.15848-0.66973-0.41203-1.305-0.75379-1.9044-1.0239-0.70556-0.31695-1.3767-0.54019-2.0106-0.66973-0.64768-0.14194-1.2761-0.1819-1.8879-0.12402-0.02342 0-0.04134-0.01791-0.05237-0.05237-0.01242-0.03583 0-0.05926 0.03447-0.07028m36.019 24.835c-0.08268-0.0827-0.1819-0.16398-0.30041-0.24667-0.02342-0.0234-0.03447-0.0413-0.03447-0.0537 0-0.0234 0.0055-0.04 0.01655-0.0524 0.01238 0 0.02343-6e-3 0.03583-0.0179l0.01792-0.0179c1.0115-1.2223 1.0115-2.4515 0-3.6863-0.51814-0.49334-1.1355-0.7469-1.8521-0.75792-0.5526 0-1.0583 0.16398-1.5172 0.49334-0.86954 0.64768-2.2104 1.0583-4.0211 1.2347-1.0115 0-1.9403-0.26458-2.7878-0.79375 0.76481 1.4235 0.96462 2.7933 0.59945 4.1107-0.35278 1.316-0.77032 2.3096-1.2513 2.9807v0.0345c-0.52917 1.13-0.3831 2.158 0.44097 3.0868 0.51677 0.49471 1.1286 0.74689 1.8342 0.75929 0.71658-0.0124 1.3339-0.26458 1.8521-0.75929 0-0.011 0.0055-0.0166 0.01792-0.0166 0-0.0124 0.0055-0.0234 0.01654-0.0358 0.01238-0.0124 0.0303-0.0179 0.05374-0.0179 0.01101 0 0.02343 0.0124 0.03447 0.0358 0.09508 0.11713 0.18328 0.21773 0.26458 0.29903 0.50574 0.49472 1.1176 0.7469 1.8355 0.7593 0.71658-0.0124 1.3339-0.26458 1.8521-0.7593 0.5526-0.57602 0.79926-1.2692 0.74001-2.0808 0-0.0124 0.0055-0.0289 0.01792-0.0524 0.02343 0 0.04134-7e-3 0.05237-0.0179 0.81166 0.0579 1.5062-0.18879 2.0822-0.74139 1.0115-1.2347 1.0115-2.4639 0-3.6862m-1.2347 0.74139c-0.59945 0.19981-1.2471 0.26458-1.9403 0.19292-0.69453-0.0813-1.4111-0.28801-2.1525-0.61736-0.42306-0.18741-0.8406-0.41066-1.2526-0.66973 0.27147 0.25907 0.52917 0.51126 0.77721 0.75793 1.0694 1.0818 2.034 2.1401 2.8925 3.175 0.01101 0.0234 0.01101 0.0537 0 0.0882-0.03583 0.0124-0.06477 0.0124-0.08819 0-1.0473-0.85852-2.1056-1.8162-3.175-2.8746-0.23564-0.24667-0.4768-0.50023-0.72347-0.75792 0.24667 0.39963 0.4644 0.79926 0.65319 1.1989 0.32935 0.74139 0.52917 1.458 0.59945 2.1525 0.07028 0.70555 0.01101 1.3574-0.17639 1.9568-0.01242 0.0234-0.03583 0.0358-0.07028 0.0358h-0.01792c-0.02342-0.0124-0.03583-0.0358-0.03583-0.0703 0.04685-0.59944 0.0055-1.2292-0.12265-1.8879-0.14194-0.62287-0.37069-1.2871-0.68902-1.9926-0.2701-0.61185-0.60496-1.2526-1.0046-1.9224-0.05926-0.0951-0.11851-0.18879-0.17639-0.28249 0 0.011 0.0055 0.0234 0.01792 0.0345 0.21084 0.64768 0.28112 1.294 0.21084 1.9403-0.07028 0.6587-0.29904 1.265-0.68764 1.8176-0.31695 0.46991-0.72898 0.87644-1.2347 1.2168-0.02342 0.0234-0.04685 0.0234-0.07028 0-0.02342-0.0358-0.02342-0.0648 0-0.0882 0.39963-0.44649 0.71658-0.89986 0.95222-1.3588 0.2825-0.52917 0.45889-1.0818 0.52917-1.6578 0.05926-0.55259 0.02342-1.1341-0.10611-1.746-0.14056-0.565-0.32935-1.0818-0.56362-1.5517v-0.03582c-0.05926-0.05926-0.11162-0.11713-0.15985-0.17639-0.02343-0.02343-0.02343-0.05237 0-0.08819 0.03583-0.02342 0.06477-0.02342 0.08819 0 0.05926 0.04685 0.11851 0.0937 0.17639 0.14056 0.01238 0 0.02342 0.0069 0.03583 0.01792 0.46991 0.23566 0.98805 0.41756 1.5517 0.54709 0.61185 0.14056 1.1948 0.17639 1.7474 0.10611 0.57602-0.0593 1.1341-0.23013 1.6757-0.51125 0.44649-0.24806 0.89297-0.57052 1.3395-0.97015 0.03583-0.01242 0.06477-0.01242 0.08819 0 0.02343 0.03447 0.02343 0.06477 0 0.08819-0.34038 0.49334-0.74552 0.90538-1.2168 1.2347-0.5526 0.3762-1.1576 0.60496-1.8163 0.68764-0.64768 0.0703-1.2885-6e-3 -1.9224-0.23013h-0.03586c0.0937 0.0482 0.18879 0.10059 0.2825 0.15985 0.66973 0.41065 1.305 0.7524 1.9044 1.0225 0.70556 0.31695 1.3767 0.54157 2.0106 0.66973 0.64768 0.14194 1.2706 0.18328 1.87 0.12402 0.03583 0 0.05926 0.0179 0.07028 0.0524 0.01238 0.0358 0 0.0593-0.03447 0.0717m-29.14 5.5025c0.02343 0 0.04134 6e-3 0.05374 0.0179l0.01655 0.0179c0 0.011 0.0069 0.0234 0.01792 0.0345 0.51814 0.49471 1.1286 0.74689 1.8342 0.7593 0.71796-0.0124 1.3353-0.26459 1.8521-0.7593 0.91777-1.0583 1.006-2.1814 0.26458-3.3679-0.42306-0.62425-0.79375-1.5641-1.1107-2.8222-0.30592-1.2582-0.08268-2.588 0.66973-3.9867-0.83371 0.50574-1.746 0.75792-2.734 0.75792-1.9513-0.19982-3.4038-0.66973-4.356-1.4111h-0.03583c-0.38723-0.21084-0.79926-0.31695-1.2347-0.31695-0.71658 0.01101-1.3339 0.26458-1.8521 0.75792-1.0115 1.2347-1.0115 2.4639 0 3.6863l0.01792 0.0179c0.01242 0.0124 0.02343 0.0179 0.03583 0.0179 0.01101 0.0124 0.01655 0.0289 0.01655 0.0524 0 0.0234-0.01101 0.0413-0.03447 0.0537-0.10611 0.0827-0.20671 0.16399-0.30041 0.24667-0.49334 0.51677-0.7469 1.1286-0.75792 1.8342 0.01101 0.71796 0.26458 1.3353 0.75792 1.8521 0.57602 0.55259 1.2706 0.79926 2.0822 0.74138v0c0.02343 0.011 0.03996 0.0234 0.05237 0.0345 0.01242 0.0124 0.01792 0.0234 0.01792 0.0358-0.05926 0.81167 0.18741 1.5048 0.74001 2.0808 0.51814 0.49472 1.1355 0.7469 1.8521 0.7593 0.70556-0.0124 1.3174-0.26458 1.8355-0.7593 0.0813-0.0813 0.1695-0.1819 0.26458-0.29903 0-0.0234 0.01101-0.0358 0.03447-0.0358m-0.79375-2.8043c-0.14056 0.6463-0.1819 1.2761-0.12265 1.8879 0 0.0234-0.01792 0.04-0.05374 0.0524h-0.01792c-0.02342 0-0.03996-0.0124-0.05237-0.0358-0.19982-0.58705-0.26458-1.2347-0.1943-1.9403 0.08268-0.69315 0.28801-1.4111 0.61736-2.1511 0.18879-0.42305 0.41203-0.83509 0.6711-1.2347-0.25907 0.25907-0.51263 0.51676-0.7593 0.77584-1.0818 1.0707-2.1401 2.0285-3.175 2.8746-0.02343 0.0234-0.05237 0.0234-0.08819 0-0.01101-0.0345-0.01101-0.0648 0-0.0882 0.85852-1.0349 1.8231-2.0864 2.8925-3.1571 0.23564-0.24667 0.48231-0.49334 0.74138-0.74001-0.39963 0.25769-0.79926 0.47542-1.1989 0.65181-0.74138 0.32935-1.4593 0.52917-2.1525 0.59945-0.70556 0.0827-1.3519 0.0234-1.9403-0.17639-0.03583-0.011-0.05237-0.0345-0.05237-0.0703 0.01101-0.0345 0.03447-0.0524 0.07028-0.0524 0.59945 0.0469 1.2292 6e-3 1.8865-0.12402 0.62425-0.14056 1.2885-0.37069 1.994-0.68764 0.61185-0.2701 1.2526-0.60496 1.9224-1.006 0.0937-0.0579 0.1819-0.11713 0.26458-0.17639l-0.01792 0.0179c-0.6463 0.22324-1.2871 0.30041-1.9224 0.23013-0.66973-0.0827-1.2816-0.31281-1.8342-0.68901-0.47129-0.32936-0.87643-0.74001-1.2168-1.2347-0.02342-0.03447-0.02342-0.06477 0-0.08819 0.03447-0.02342 0.06477-0.02342 0.08819 0 0.45751 0.40101 0.91088 0.71796 1.3574 0.95361 0.52917 0.28112 1.0818 0.45751 1.6578 0.52917 0.17639 0.0234 0.35967 0.0345 0.54708 0.0345 0.38861 0 0.78824-0.0469 1.2003-0.14056 0.57602-0.12953 1.0983-0.31832 1.5696-0.565h0.01792c0.05788-0.05788 0.11713-0.11162 0.17639-0.15848 0.02342-0.02343 0.05237-0.02343 0.08819 0 0.02342 0.03583 0.02342 0.06477 0 0.08819-0.04823 0.05926-0.09508 0.11713-0.14194 0.17639 0 0.01241-0.0055 0.02342-0.01792 0.03583-0.23427 0.46991-0.41755 0.98667-0.5457 1.5517-0.14194 0.61184-0.17639 1.1989-0.10611 1.7639 0.05788 0.56499 0.22876 1.1176 0.51125 1.6578 0.24667 0.44648 0.57051 0.89434 0.97014 1.3408 0.01242 0.0358 0.01242 0.0648 0 0.0882-0.02343 0.0234-0.05237 0.0289-0.08819 0.0179-0.49334-0.35278-0.90537-0.76481-1.2347-1.2347-0.37621-0.55259-0.60496-1.1589-0.68764-1.8176-0.07028-0.6463 0.0055-1.2871 0.22876-1.9224v-0.0345c-0.04685 0.0937-0.09922 0.18741-0.15848 0.28112-0.41203 0.6711-0.75241 1.3064-1.0225 1.9058-0.31833 0.70555-0.54157 1.3753-0.6711 2.0106m24.219-33.831s-0.0069-0.0069-0.01792-0.01791c-0.50574-0.49472-1.1176-0.7469-1.8342-0.7593-0.71796 0.0124-1.3353 0.26458-1.8521 0.7593-0.91777 1.0583-1.006 2.1814-0.26458 3.3693 0.43408 0.62287 0.80477 1.5641 1.1107 2.8222 0.31695 1.2692 0.1006 2.5976-0.65319 3.9853 0.82406-0.50582 1.7294-0.758 2.7175-0.758 1.9513 0.19982 3.4038 0.66973 4.356 1.4111h0.03583c0.38723 0.21222 0.80477 0.31695 1.2526 0.31695 0.70556-0.01102 1.316-0.26458 1.8342-0.75792 1.0115-1.2347 1.0115-2.4639 0-3.6863-0.01242 0-0.01792-0.0055-0.01792-0.01791l-0.01792-0.01791c-0.02342-0.01102-0.03447-0.02894-0.03447-0.05237l0.03447-0.03583c0.11851-0.09371 0.21773-0.1819 0.30041-0.26458 0.50574-0.50574 0.75792-1.1162 0.75792-1.8342s-0.25218-1.3353-0.75792-1.8521c-0.57602-0.55259-1.265-0.79926-2.0643-0.74138-0.02342 0-0.04134-0.0055-0.05237-0.01654-0.01242-0.02343-0.01792-0.04134-0.01792-0.05374 0.04685-0.81166-0.20533-1.5048-0.75792-2.0808-0.50574-0.49472-1.1176-0.7469-1.8355-0.7593-0.71658 0.0124-1.3339 0.26458-1.8521 0.7593-0.08131 0.08268-0.16399 0.1819-0.24667 0.29904-0.01101 0.02343-0.02893 0.03583-0.05237 0.03583-0.01242 0-0.0303-0.0055-0.05374-0.01791 0-0.01103-0.0055-0.02343-0.01655-0.03445m0.19293 4.8672c0.31832-0.70556 0.54157-1.3753 0.6711-2.0106 0.14056-0.6463 0.18741-1.2692 0.14056-1.87-0.01101-0.03445 0-0.05788 0.03583-0.07028 0.04685-0.01102 0.07028 0 0.07028 0.03583 0.19982 0.59945 0.26458 1.2457 0.1943 1.9403-0.07028 0.69315-0.27699 1.4111-0.61736 2.1511-0.17639 0.42444-0.39412 0.84198-0.65319 1.2526 0.24667-0.2701 0.50023-0.52917 0.7593-0.77584 1.0694-1.0707 2.1222-2.034 3.1571-2.8925 0.03447-0.0124 0.06477-0.0124 0.08819 0 0.02342 0.03445 0.02342 0.06477 0 0.08819-0.84749 1.0349-1.8052 2.0932-2.876 3.175-0.24667 0.23427-0.49334 0.47542-0.74001 0.72347 0.38723-0.24805 0.78135-0.4644 1.181-0.65319 0.75379-0.32935 1.4759-0.52917 2.1704-0.59945 0.69315-0.07028 1.3408-0.0124 1.9403 0.17639 0.02343 0.02343 0.03447 0.04685 0.03447 0.07028-0.01101 0.03583-0.03447 0.05236-0.07028 0.05236-0.59943-0.04685-1.2223-0.0055-1.87 0.12402-0.6339 0.14056-1.305 0.37069-2.0106 0.68764-0.61185 0.2701-1.2526 0.60634-1.9224 1.006-0.08268 0.05788-0.17088 0.11713-0.26458 0.17639 0 0 0.0055-0.0055 0.01792-0.01791 0.6463-0.21222 1.2926-0.2825 1.9403-0.21222 0.6587 0.07166 1.2637 0.30041 1.8163 0.68902 0.47129 0.31695 0.87643 0.72898 1.2168 1.2347 0.02342 0.02343 0.02342 0.04685 0 0.07028-0.01101 0.01102-0.02893 0.01791-0.05237 0.01791-0.01242 0-0.02342-0.0069-0.03583-0.01791-0.44649-0.39963-0.89297-0.71796-1.3395-0.95222-0.54157-0.2825-1.0997-0.45889-1.6757-0.52917-0.55259-0.05926-1.1355-0.02343-1.7474 0.10473-0.56362 0.12954-1.0818 0.31833-1.5517 0.565h-0.01792c-0.07028 0.05925-0.13505 0.11162-0.1943 0.15847-0.02342 0.02343-0.04686 0.02343-0.07028 0-0.02342-0.03445-0.02893-0.06477-0.01792-0.08819 0.04823-0.05788 0.09508-0.11713 0.14194-0.17639 0-0.01103 0.0055-0.02343 0.01792-0.03445 0.23427-0.47129 0.42306-0.98805 0.56362-1.553 0.12954-0.61185 0.16536-1.1934 0.10611-1.746-0.07028-0.57602-0.24667-1.1341-0.52917-1.6757-0.23564-0.44648-0.5526-0.89435-0.95222-1.3408-0.02343-0.03445-0.02343-0.06477 0-0.0882 0.02342-0.02343 0.04685-0.02894 0.07028-0.01791 0.50574 0.35278 0.91777 0.76481 1.2347 1.2347 0.3886 0.55259 0.61736 1.1589 0.68764 1.8176 0.07028 0.6463-0.0055 1.2871-0.22876 1.9224v0.03583c0.05788-0.09508 0.11713-0.18879 0.17639-0.2825 0.39963-0.6711 0.73449-1.305 1.0046-1.9058" fill="#5c972e"/>
<path d="m95.86 83.198-0.08819 0.30041c1.5296 0.85852 2.3936 1.8466 2.5935 2.9628 0.21084 1.1176 0.27561 1.7294 0.1943 1.8355l0.29904 0.03447c0.2949-2.1277-0.08819-3.5278-1.1465-4.1975-1.0583-0.68213-1.6757-0.99356-1.8521-0.93569m2.9986 8.6265-0.29904 0.05237c0.08131 0.10611 0.01655 0.71107-0.1943 1.8163-0.19982 1.1176-1.0638 2.1056-2.5935 2.9642l0.08819 0.29904c0.17639 0.05926 0.79375-0.24667 1.8521-0.9164 1.0583-0.68213 1.4414-2.0877 1.1465-4.2154m-32.209 5.2917 0.08819-0.30041c-1.5282-0.85852-2.3978-1.8466-2.61-2.9628-0.19982-1.1066-0.25907-1.7115-0.17639-1.8176l-0.31695-0.05237c-0.2825 2.1277 0.09922 3.5333 1.1465 4.2154 1.0583 0.66973 1.6812 0.97565 1.8686 0.91777m0.08819-13.477-0.08819-0.29904c-0.18741-0.05925-0.80477 0.25218-1.8521 0.93431-1.0583 0.6711-1.4456 2.0698-1.1631 4.1989l0.31695-0.03584c-0.08268-0.10611-0.02342-0.71796 0.17639-1.8342 0.21222-1.1176 1.0818-2.1056 2.61-2.9642m16.388 23.83-0.05374 0.30041c2.1291 0.29352 3.5333-0.0882 4.2154-1.1465 0.6711-1.0583 0.97703-1.6757 0.91777-1.8521l-0.30041-0.0882c-0.85852 1.5282-1.8452 2.3923-2.9628 2.5921-1.1052 0.21222-1.7115 0.27699-1.8163 0.19431m-3.5636 0.30041-0.03583-0.30041c-0.10473 0.0827-0.71658 0.0179-1.8342-0.19431-1.1162-0.19981-2.1043-1.0638-2.9628-2.5921l-0.30041 0.0882c-0.05788 0.17639 0.25356 0.79375 0.93569 1.8521 0.66973 1.0583 2.0684 1.44 4.1975 1.1465m-0.17639-34.907 0.03583-0.31833c-2.1291-0.2825-3.5278 0.1006-4.1989 1.1465-0.68213 1.0583-0.99357 1.6812-0.93431 1.87l0.29904 0.08819c0.85852-1.5282 1.8466-2.3992 2.9642-2.61 1.1162-0.19982 1.7281-0.25907 1.8342-0.17639m3.5278-0.31833c2.1291-0.2825 3.5333 0.10611 4.2154 1.1644 0.6711 1.0459 0.97565 1.6633 0.91777 1.8521l-0.30041 0.08819c-0.85852-1.5282-1.8466-2.3992-2.9628-2.61-1.1052-0.19982-1.7115-0.25907-1.8176-0.17639l-0.05237-0.31833" fill="#f08a19"/>
<path d="m96.812 90.148c-0.01101 0-0.01655-0.01242-0.01655-0.03583 0-0.02343 0.0055-0.04134 0.01655-0.05237 0.68213-0.58842 1.0294-1.3298 1.0418-2.2228-0.16536-1.7639-1.13-2.734-2.8939-2.9104-0.12816 0.01103-0.27561 0.02894-0.44097 0.05237-0.02342 0-0.03996-0.0055-0.05237-0.01791-0.01242-0.02343-0.01792-0.03996-0.01792-0.05237v-0.07028c-0.16399-1.7639-1.1286-2.7285-2.8925-2.8925-0.49334 0.03445-0.9288 0.14607-1.305 0.33486 0.66973 0.76343 1.2347 1.6054 1.6936 2.5218 0.45751 0.9288 0.79926 1.9113 1.0225 2.9462 0.57602-0.38861 1.0762-0.82958 1.4993-1.3229 0.02342-0.02342 0.05237-0.0303 0.08819-0.01792 0.02342 0.02342 0.02893 0.05237 0.01792 0.08819-0.31832 0.61185-0.77584 1.1644-1.3767 1.6578-0.04686 0.03583-0.09371 0.07028-0.14056 0.10611 0.08268 0.52917 0.12954 1.0707 0.14056 1.6233 0.78824 0.03447 1.553 0.08819 2.2931 0.15847 0.02342 0.01101 0.04134 0.03447 0.05374 0.07028-0.01242 0.03583-0.0303 0.05237-0.05374 0.05237-0.74001 0.07166-1.5048 0.12402-2.2931 0.15985-0.01101 0.55259-0.05788 1.0873-0.14056 1.604 0.04685 0.03583 0.0937 0.07166 0.14056 0.10611 0.60082 0.49471 1.0583 1.0528 1.3767 1.6757 0.01101 0.03583 0.0055 0.06477-0.01792 0.08819-0.03583 0.01242-0.06477 0.0055-0.08819-0.01792-0.41203-0.49334-0.91088-0.93431-1.4993-1.3229-0.21222 1.0473-0.54708 2.0354-1.006 2.9642-0.46991 0.9164-1.0404 1.7639-1.7101 2.5397 0.37621 0.17639 0.81166 0.2825 1.305 0.31695 1.7639-0.17639 2.7285-1.1465 2.8925-2.9104v-0.05235c0-0.02342 0.0055-0.04134 0.01792-0.05237 0.01242-0.01242 0.02893-0.01792 0.05237-0.01792 0.16536 0.02342 0.31282 0.03447 0.44097 0.03447 1.7639-0.16399 2.7285-1.1286 2.8939-2.8925-0.01238-0.90537-0.35967-1.6523-1.0418-2.2393m-28.804 3.6504c-0.02343 0.02343-0.04685 0.02343-0.07028 0-0.03583-0.01101-0.04134-0.03447-0.01792-0.07028 0.30593-0.62287 0.76481-1.1824 1.3753-1.6757 0.07166-0.04685 0.14194-0.0937 0.21222-0.14056-0.08268-0.51814-0.12954-1.0418-0.14056-1.571-0.81166-0.03447-1.5999-0.09371-2.3647-0.17639-0.03447 0-0.05237-0.01655-0.05237-0.05237 0-0.03583 0.01792-0.05926 0.05237-0.07028 0.76481-0.07028 1.553-0.12402 2.3647-0.15848 0.01101-0.52917 0.05788-1.0473 0.14056-1.553-0.07028-0.05788-0.14056-0.11162-0.21222-0.15848-0.61047-0.49334-1.0694-1.0528-1.3753-1.6757-0.02342-0.02343-0.01792-0.04685 0.01792-0.07028 0.02343-0.02342 0.04685-0.01792 0.07028 0.01792 0.43546 0.51677 0.96462 0.97565 1.5875 1.3753 0.19982-1.0459 0.53468-2.034 1.006-2.9628 0.45751-0.93018 1.0225-1.7818 1.6922-2.5576-0.38723-0.19982-0.84061-0.31833-1.3574-0.35278-1.7763 0.16399-2.7464 1.1286-2.9104 2.8925v0.07027c0.01101 0.02343 0.0055 0.04134-0.01792 0.05237-0.01242 0.0124-0.02893 0.01791-0.05237 0.01791-0.15296-0.03445-0.30041-0.05236-0.44097-0.05236-1.7639 0.17639-2.7285 1.1465-2.8939 2.9104 0.01242 0.89297 0.35967 1.6344 1.0418 2.2228 0.01101 0.01101 0.01655 0.02893 0.01655 0.05237 0 0.01242-0.0055 0.02342-0.01655 0.03583-0.68213 0.59945-1.0294 1.3463-1.0418 2.2393 0.16536 1.7639 1.13 2.7285 2.8939 2.8925 0.14056 0 0.28801-0.01101 0.44097-0.03447h0.01655c0.01242 0 0.02342 0.0055 0.03583 0.01792 0.02342 0.01101 0.02893 0.02893 0.01792 0.05237v0.05237c0.17639 1.7639 1.1465 2.734 2.9104 2.9104 0.51676-0.03447 0.96463-0.15296 1.3408-0.35278-0.6711-0.77584-1.2347-1.6275-1.6936-2.5576-0.45889-0.92879-0.78824-1.9168-0.98806-2.9628-0.62288 0.41203-1.152 0.87643-1.5875 1.3932m16.915 9.5429c0.02342 0.0234 0.02342 0.0469 0 0.0703-0.01101 0.0358-0.03447 0.0468-0.07028 0.0358-0.62288-0.31833-1.1824-0.77584-1.6757-1.3767-0.03583-0.0579-0.07579-0.11162-0.12402-0.15847-0.51677 0.0703-1.0459 0.11163-1.5875 0.12403-0.04686 0.78824-0.10473 1.5572-0.17639 2.311 0 0.0469-0.01655 0.0703-0.05237 0.0703-0.03583-0.0124-0.05926-0.0358-0.07028-0.0703-0.07028-0.75378-0.12402-1.5227-0.15848-2.311-0.54157-0.0124-1.0707-0.0593-1.5875-0.14195-0.03583 0.0593-0.07717 0.11851-0.12402 0.17639-0.49334 0.60082-1.0528 1.0583-1.6757 1.3767-0.02342 0.011-0.04685 0-0.07028-0.0358-0.02343-0.0234-0.01792-0.0469 0.01792-0.0703 0.50574-0.42306 0.95222-0.9343 1.3395-1.5351-1.0459-0.21085-2.0285-0.5526-2.9449-1.0225-0.9288-0.46991-1.7763-1.0404-2.5397-1.7115-0.19981 0.3762-0.31833 0.82406-0.35278 1.3408 0.16399 1.7763 1.1341 2.7464 2.9104 2.9104h0.05236c0.02342 0 0.04134 6e-3 0.05237 0.0179 0.01242 0.0124 0.01792 0.0289 0.01792 0.0524-0.03447 0.16537-0.05237 0.31282-0.05237 0.44098 0.17639 1.7639 1.1465 2.7285 2.9104 2.8939 0.89297-0.0124 1.6344-0.35967 2.2228-1.0418 0.01101-0.011 0.02893-0.0165 0.05237-0.0165 0.01242 0 0.02343 6e-3 0.03583 0.0165 0.59945 0.68213 1.3463 1.0294 2.2393 1.0418 1.7639-0.16537 2.7285-1.13 2.8925-2.8939 0-0.14056-0.01101-0.28801-0.03447-0.44098 0-0.0234 0.0055-0.04 0.01792-0.0524 0.01101-0.0124 0.02893-0.0179 0.05237-0.0179h0.05237c1.7639-0.16399 2.734-1.1341 2.9104-2.9104-0.03447-0.49334-0.14607-0.92329-0.33486-1.2871-0.76343 0.66973-1.6109 1.2347-2.5397 1.6936-0.9288 0.45751-1.9168 0.78686-2.9628 0.98668 0.41065 0.60082 0.86403 1.1121 1.3574 1.5351m-5.9972-24.907c-1.0459 0.21222-2.034 0.55259-2.9628 1.0239-0.91777 0.45889-1.7639 1.028-2.5397 1.7101-0.19981-0.38723-0.31833-0.84612-0.35278-1.3753 0.16399-1.7639 1.1341-2.734 2.9104-2.9104h0.01654c0.01242 0.0124 0.02342 0.0124 0.03583 0 0.02343 0 0.04134-0.0055 0.05237-0.01792 0.01242-0.01102 0.01792-0.02894 0.01792-0.05237-0.02342-0.15296-0.04134-0.30041-0.05237-0.44097 0.17639-1.7639 1.1465-2.7285 2.9104-2.8925 0.89297 0.01103 1.6344 0.35829 2.2228 1.0404 0.03447 0.02343 0.07028 0.02343 0.10473 0 0.5774-0.68213 1.3174-1.0294 2.2228-1.0404 1.7639 0.16399 2.7285 1.1286 2.8925 2.8925 0 0.14056-0.01101 0.28801-0.03447 0.44097 0 0.02343 0.0055 0.04134 0.01792 0.05237 0.01101 0.0124 0.02893 0.01792 0.05237 0.01792 0.01242 0.0124 0.01792 0.0124 0.01792 0h0.03447c1.7639 0.16399 2.734 1.1341 2.9104 2.9104-0.03447 0.49334-0.14607 0.93431-0.33486 1.3229-0.77584-0.66973-1.6288-1.2347-2.5576-1.6936s-1.9169-0.79375-2.9628-1.0046c0.39963-0.60082 0.85163-1.1176 1.3574-1.553 0.02342-0.02343 0.0303-0.04685 0.01792-0.07028-0.02342-0.02343-0.05237-0.03583-0.08819-0.03583-0.62288 0.31833-1.181 0.78273-1.6757 1.3946-0.04685 0.05788-0.09371 0.11713-0.14056 0.17639-0.50574-0.07166-1.0239-0.11162-1.553-0.12402-0.03447-0.81166-0.09371-1.593-0.17639-2.3454 0-0.03583-0.01654-0.05925-0.05237-0.07166-0.03583 0.0124-0.05926 0.03583-0.07028 0.07166-0.07028 0.75241-0.12402 1.5338-0.15848 2.3454-0.54157 0.0124-1.0707 0.05926-1.5875 0.14056-0.04823-0.05788-0.09508-0.12264-0.14194-0.19292-0.49334-0.61185-1.0459-1.0762-1.6578-1.3946-0.03583-0.01102-0.06477 0-0.08819 0.03583-0.01242 0.02343-0.0055 0.04685 0.01792 0.07028 0.51676 0.43546 0.97565 0.95912 1.3753 1.5696" fill="#68b33a"/>
<path d="m101.7 80.782c-0.12954-0.44648-0.18879-0.77584-0.17639-0.98805 0.10611-0.49334 0.42306-0.75241 0.95223-0.77584 0.52916 0.07028 0.78823 0.35829 0.77583 0.86403-0.0469 0.21222-0.1819 0.53468-0.40514 0.97014-0.23565 0.43546-0.43546 0.78824-0.59945 1.0583l0.0345 0.08819c0.56499-0.63528 1.0528-1.0997 1.4648-1.3932 0.50574-0.18879 0.88746-0.07028 1.1465 0.35278 0.17639 0.46991 0.0289 0.84612-0.44097 1.1286-0.48232 0.14056-1.1465 0.23564-1.994 0.2825l0.0537 0.08819c0.32935 0.04685 0.72347 0.11162 1.181 0.1943 0.44786 0.0813 0.7593 0.1695 0.93568 0.26458 0.41066 0.30455 0.48232 0.68764 0.21085 1.1465-0.35278 0.39963-0.75793 0.48783-1.2168 0.26458-0.10612-0.07166-0.24669-0.21222-0.42307-0.42444l1.2526 2.5756c1.717-1.7405 2.1346-3.7042 1.2526-5.8911-1.1768-2.0464-2.9752-2.9394-5.3978-2.6817l1.3932 2.876m-40.94 19.437c-0.16399 0.49471-0.51125 0.72347-1.0404 0.68902-0.51676-0.12954-0.74138-0.44787-0.66973-0.95361 0.05788-0.19982 0.22876-0.50574 0.51125-0.9164 0.2701-0.41203 0.49885-0.7469 0.68764-1.006l-0.01791-0.07028c-0.63528 0.57602-1.17 0.98254-1.6054 1.2168-0.51677 0.14194-0.88746-0.01101-1.1107-0.45889-0.11713-0.48094 0.07028-0.84061 0.565-1.0749 0.49334-0.09509 1.1631-0.11851 2.0106-0.07166l-0.03583-0.10473c-0.32935-0.08268-0.71658-0.18879-1.1644-0.31833-0.43408-0.12954-0.73449-0.24667-0.89848-0.35278-0.3762-0.35278-0.40652-0.74001-0.08819-1.1644 0.38723-0.3638 0.79926-0.41066 1.2347-0.14056 0.09371 0.09371 0.21635 0.25218 0.36932 0.4768l-0.98668-2.6996c-1.8824 1.553-2.4929 3.463-1.8355 5.7326 0.9412 2.1635 2.6348 3.2398 5.0808 3.2287l-1.0762-2.9986c0.07028 0.44649 0.0937 0.77584 0.07028 0.98668m43.586-6.9839-1.3229 2.9104c0.27009-0.38861 0.48782-0.64768 0.65319-0.77721 0.44648-0.23426 0.85162-0.15296 1.2168 0.24804 0.2825 0.44649 0.22325 0.8282-0.17639 1.1465-0.18879 0.10473-0.52365 0.20533-1.006 0.29904-0.48232 0.10611-0.88195 0.1819-1.1989 0.23013l-0.0358 0.07028c0.84749 0.02343 1.5117 0.10611 1.994 0.24667 0.46991 0.25907 0.62838 0.62976 0.47542 1.1107-0.25907 0.42443-0.64079 0.54708-1.1465 0.37069-0.42306-0.2825-0.92328-0.72898-1.4993-1.3408l-0.0345 0.08819c0.46991 0.72898 0.80477 1.3711 1.0046 1.9237 0.0234 0.50574-0.22875 0.79926-0.75792 0.88194-0.52917 0-0.85301-0.25356-0.97014-0.75929-0.0234-0.12954-5e-3 -0.32935 0.0524-0.59945l-1.181 2.6279c2.4336 0.19981 4.2099-0.74001 5.3261-2.8222 0.82406-2.2104 0.35828-4.1631-1.3932-5.8553m-46.25-6.35 1.3229-2.9104c-0.25769 0.38723-0.46991 0.6463-0.6339 0.77584-0.45889 0.23427-0.86541 0.15296-1.2182-0.24667-0.28112-0.44786-0.22324-0.82958 0.17639-1.1465 0.18879-0.10611 0.52365-0.20671 1.006-0.30041 0.48231-0.10611 0.88194-0.1819 1.1989-0.22876l0.03584-0.07166c-0.84612-0.02343-1.5172-0.10473-2.0106-0.24667-0.47129-0.25907-0.62287-0.62838-0.45889-1.1107 0.24667-0.42306 0.62976-0.54708 1.1465-0.37069 0.41203 0.2825 0.90537 0.72898 1.4814 1.3408l0.05374-0.08819c-0.47129-0.72898-0.80615-1.3698-1.006-1.9224-0.02343-0.50574 0.22324-0.80615 0.74138-0.89986 0.54019 0.01102 0.86954 0.2701 0.98668 0.77584 0.01242 0.12954-0.01101 0.32935-0.07028 0.59945l1.2003-2.6279c-2.435-0.19982-4.2099 0.74138-5.3275 2.8222-0.83509 2.1993-0.37621 4.1507 1.3753 5.8567m32.385 23.636c0.44648-0.12954 0.77584-0.18879 0.98805-0.17639 0.50574 0.10474 0.77032 0.42307 0.79375 0.95223-0.08268 0.52917-0.3762 0.78823-0.88194 0.77583-0.21222-0.0468-0.53468-0.1819-0.97014-0.40514-0.43546-0.23565-0.78824-0.43546-1.0583-0.60083l-0.07028 0.0358c0.62288 0.565 1.0818 1.0528 1.3753 1.4635 0.19981 0.50574 0.08268 0.88883-0.35278 1.1465-0.46991 0.17639-0.8406 0.0303-1.1107-0.44097-0.15296-0.48094-0.25356-1.1465-0.30041-1.9926l-0.08819 0.0524c-0.04685 0.32935-0.11162 0.72347-0.1943 1.1824-0.0813 0.44649-0.1695 0.75793-0.26458 0.93431-0.30455 0.41204-0.68764 0.4823-1.1465 0.21222-0.39963-0.35278-0.48783-0.75792-0.26458-1.2168 0.07166-0.10611 0.21773-0.24667 0.44097-0.42306l-2.5921 1.2513c1.7405 1.717 3.7042 2.1346 5.8911 1.2526 2.0464-1.1755 2.9394-2.9752 2.6817-5.3978l-2.876 1.3946m-18.433-41.028c-0.44649 0.07028-0.77584 0.09371-0.98805 0.07028-0.49334-0.16399-0.72209-0.51125-0.68764-1.0404 0.12954-0.51814 0.44648-0.74138 0.95222-0.6711 0.19981 0.05926 0.50574 0.23013 0.91777 0.51263 0.41203 0.2701 0.7469 0.49885 1.006 0.68764l0.07028-0.01792c-0.57602-0.63528-0.98805-1.17-1.2347-1.6054-0.12954-0.51676 0.02893-0.88746 0.47542-1.1107 0.48231-0.11851 0.84198 0.07028 1.0762 0.56362 0.0937 0.49472 0.11851 1.1644 0.07028 2.0119l0.10611-0.03583c0.07028-0.32935 0.17088-0.71796 0.30041-1.1644 0.12954-0.43546 0.25218-0.73449 0.37069-0.89986 0.34038-0.3762 0.72898-0.40514 1.1631-0.08819 0.36518 0.38861 0.41203 0.80064 0.14194 1.2347-0.0937 0.09508-0.25356 0.21773-0.4768 0.37069l2.6996-0.98805c-1.553-1.881-3.463-2.4929-5.7326-1.8342-2.1649 0.9412-3.2398 2.6348-3.2287 5.0808l2.9986-1.0762m3.8626 43.003c0.23564 0.44648 0.15296 0.85301-0.24667 1.2168-0.44649 0.28249-0.8282 0.22462-1.1465-0.17639-0.10611-0.18741-0.20533-0.52228-0.29904-1.0046-0.10611-0.48232-0.18328-0.88195-0.23013-1.2003l-0.07028-0.0345c-0.02342 0.84612-0.10611 1.5103-0.24667 1.9926-0.25907 0.47129-0.62976 0.62976-1.1121 0.4768-0.42306-0.25907-0.5457-0.64079-0.36932-1.1465 0.28112-0.42306 0.72898-0.92329 1.3395-1.4993l-0.08819-0.0358c-0.72898 0.47129-1.3698 0.80615-1.9224 1.006-0.50574 0.0234-0.80477-0.23013-0.89986-0.7593 0.01242-0.52916 0.27147-0.85163 0.77721-0.97014 0.12816-0.0234 0.32935-5e-3 0.59945 0.0538l-2.6279-1.1824c-0.19981 2.435 0.74001 4.2099 2.8222 5.3275 2.198 0.82268 4.1507 0.35829 5.8553-1.3932l-2.9104-1.3229c0.3886 0.2701 0.64768 0.48783 0.77584 0.65182m10.619-44.891c0.12954 0.16536 0.38861 0.3762 0.77584 0.63528l-2.9104-1.3229c1.6936-1.7515 3.6463-2.2104 5.8567-1.3753 2.0808 1.1162 3.022 2.8925 2.8222 5.3261l-2.6279-1.1989c0.2701 0.05788 0.46991 0.08268 0.59945 0.07028 0.50574-0.11713 0.76343-0.44648 0.77584-0.98805-0.09371-0.51676-0.39412-0.76343-0.89986-0.74001-0.5526 0.19982-1.1934 0.53468-1.9224 1.0046l-0.08819-0.03445c0.61185-0.58842 1.0583-1.0886 1.3408-1.4993 0.17639-0.51814 0.05237-0.89986-0.37069-1.1465-0.48232-0.16536-0.85301-0.0124-1.1107 0.45751-0.14194 0.49472-0.22462 1.1644-0.24804 2.0119l-0.07028-0.03583c-0.04685-0.31695-0.12265-0.71796-0.22876-1.1989-0.0937-0.48231-0.1943-0.81718-0.30041-1.006-0.31695-0.39963-0.70004-0.45889-1.1465-0.17639-0.39963 0.35278-0.48231 0.75792-0.24667 1.2168" fill="#ee2e21"/>
<path d="m101.66 97.028-0.88194-1.7474-1.746 0.88194 0.88194 1.7474 1.746-0.88194m-39.105-14.728-1.746 0.88194 0.88194 1.746 1.746-0.88194-0.88194-1.746m39.14 1.0046-1.746-0.86403-0.86403 1.746 1.746 0.86403 0.86403-1.746m-40.922 13.582 1.746 0.86403 0.86403-1.746-1.746-0.86403-0.86403 1.746m12.648 11.888 0.88194 1.7474 1.746-0.88195-0.88194-1.7474-1.746 0.88195m15.627-37.359-0.88194-1.746-1.746 0.88194 0.88194 1.746 1.746-0.88194m-2.7685 38.276 1.746 0.86403 0.86403-1.746-1.746-0.86403-0.86403 1.746m-11.854-40.058 1.746 0.86403-0.86403 1.7474-1.746-0.86541 0.86403-1.746" fill="#e69799"/>
<path d="m81.216 93.407c1.9412 0 3.3697-1.4662 3.3697-3.3514 0-1.8852-1.4285-3.3514-3.3697-3.3514-1.9046 0-3.3331 1.4662-3.3331 3.3514 0 1.8852 1.4285 3.3514 3.3331 3.3514z" fill="#ee2e21" data-lyt_name="init_1" data-str-alllowercase="false" data-str-alluppercase="false" data-str-bold="false" data-str-color="rgb(93.333333%,18.823529%,13.725490%)" data-str-data="" data-str-default_text="Enter Text" data-str-font_family="Noto Sans JP Bold" data-str-fonticons="true" data-str-fontsize="99" data-str-hastextedit="true" data-str-id="1" data-str-italic="false" data-str-letter_spacing="0" data-str-text="." data-str-tmatrix="1,0,0,1,223,127.5" data-str-txt_dy="0" data-str-use_path="false"/>
</g>
</svg>