<?xml version="1.0" encoding="UTF-8"?>
<svg viewBox="0 0 129 129" xmlns="http://www.w3.org/2000/svg">
<path d="m126.45 61.45c-0.24-2.534-1.615-3.9052-4.117-4.1173-0.212 0-0.421 0.0141-0.633 0.046-0.06 0-0.106-0.0141-0.134-0.046-0.032-0.0282-0.046-0.0742-0.046-0.1343v-0.0459c-0.241-2.5341-1.615-3.9194-4.118-4.1633-2.23 0.152-3.587 1.3148-4.071 3.4847-0.24 1.1769-0.891 2.6541-1.944 4.432-1.057 1.7494-2.76 3.0181-5.114 3.8029 2.414 0.7811 4.149 2.1099 5.203 3.9796 1.056 1.9014 1.689 3.4846 1.901 4.75 0.028 0.0319 0.046 0.0601 0.046 0.0919 0.661 1.8378 1.99 2.8168 3.98 2.9404 2.502-0.2438 3.877-1.6151 4.117-4.1173v-0.0919c0-0.0601 0.015-0.106 0.046-0.1343 0.028-0.0318 0.074-0.046 0.134-0.046 0.212 0.0601 0.421 0.0919 0.633 0.0919 1.117-0.0318 2.081-0.4382 2.894-1.2228 0.785-0.8129 1.191-1.7954 1.223-2.9404-0.032-1.2653-0.526-2.322-1.491-3.1666-0.032-0.0319-0.046-0.0601-0.046-0.0919 0-0.0601 0.013-0.1025 0.046-0.1343 0.965-0.8447 1.459-1.9018 1.491-3.1671zm-3.347 3.4392c-2.173 0.212-4.478 0.3145-6.923 0.3145h-1.131c0.576 0.152 1.102 0.3181 1.583 0.4984 1.237 0.4841 2.294 1.0708 3.167 1.7635 0.904 0.7246 1.583 1.5409 2.035 2.4457 0.032 0.0884 0 0.1661-0.088 0.2262-0.06 0.0282-0.12 0.0141-0.18-0.046-0.637-0.7563-1.404-1.4172-2.308-1.9897-0.845-0.5443-1.856-1.0426-3.033-1.495-0.965-0.3923-2.064-0.7387-3.301-1.0391h-0.046c0.845 0.4807 1.538 1.0709 2.082 1.7636 0.664 0.8447 1.099 1.8095 1.311 2.8945 0.152 0.8765 0.152 1.8095 0 2.8063-0.032 0.06-0.092 0.106-0.18 0.1343-0.092-0.0283-0.138-0.0884-0.138-0.1803-0.06-0.9648-0.208-1.8236-0.452-2.58-0.301-0.9331-0.739-1.7636-1.311-2.4881-0.541-0.6928-1.237-1.3112-2.082-1.852-0.781-0.4841-1.583-0.8623-2.396-1.1309h-0.046c-0.089-0.0319-0.212-0.046-0.361-0.046-0.092 0-0.138-0.0459-0.138-0.1378 0-0.1202 0.046-0.1802 0.138-0.1802 0.12 0 0.241-0.0141 0.361-0.046h0.046c0.813-0.2686 1.615-0.6468 2.396-1.1309 0.845-0.5408 1.541-1.1593 2.082-1.852 0.604-0.7245 1.042-1.555 1.311-2.4881 0.244-0.7846 0.392-1.6611 0.452-2.626 0-0.06 0.046-0.106 0.138-0.1343 0.088 0 0.148 0.046 0.18 0.1343 0.152 0.9649 0.152 1.9015 0 2.8063-0.212 1.085-0.647 2.0499-1.311 2.8945-0.544 0.6927-1.237 1.2829-2.082 1.7636l0.046-0.046c1.205-0.3004 2.308-0.6326 3.301-0.9931 1.177-0.4524 2.188-0.9507 3.033-1.495 0.904-0.6008 1.671-1.2652 2.308-1.9897 0.06-0.0601 0.12-0.0742 0.18-0.046 0.088 0.0601 0.12 0.1378 0.088 0.2262-0.48 0.8765-1.159 1.6752-2.035 2.3997-0.873 0.7246-1.93 1.3254-3.167 1.8096-0.512 0.1802-1.053 0.3463-1.626 0.4983h1.174c2.474 0 4.781 0.1025 6.923 0.3145 0.06 0.0319 0.106 0.0919 0.135 0.1803-0.029 0.0601-0.074 0.1061-0.135 0.1379zm-100.43-0.1379c-2.4139-0.7811-4.1491-2.1241-5.2025-4.0255-1.0567-1.8696-1.7034-3.4529-1.9473-4.7501v-0.0459c-0.6928-1.8377-2.0181-2.8166-3.9796-2.9404-2.5023 0.2438-3.8771 1.6151-4.1174 4.1173v0.0919c0 0.0601-0.0141 0.106-0.04595 0.1343-0.02824 0.0319-0.0742 0.046-0.13432 0.046-0.24033-0.0319-0.45238-0.046-0.63262-0.046-1.1168 0-2.0817 0.3923-2.8945 1.1769-0.81639 0.8129-1.2228 1.7954-1.2228 2.9404 0.03185 1.2653 0.52661 2.322 1.4914 3.1666 0.03185 0.0319 0.04595 0.0742 0.04595 0.1343 0 0.0319-0.0141 0.0601-0.04595 0.0919-0.96486 0.8447-1.4596 1.9014-1.4914 3.1666 0.24031 2.5341 1.6151 3.9194 4.1173 4.1633 0.21204-0.0319 0.42055-0.0601 0.63262-0.0919h0.04597c0.02823 0 0.06009 0.0141 0.0884 0.046 0.03185 0.0282 0.04595 0.0741 0.04595 0.1343v0.0459c0.24031 2.5341 1.6151 3.9194 4.1173 4.1633 2.2301-0.152 3.5872-1.2971 4.0714-3.4388 0.2404-1.2087 0.873-2.6859 1.9014-4.4353 1.0533-1.7777 2.7745-3.0606 5.1566-3.8451zm-7.9626 3.1665c-0.5725 0.7563-0.9966 1.5833-1.2652 2.4881-0.2439 0.7846-0.3923 1.6611-0.4524 2.6259 0 0.0884-0.046 0.1344-0.1378 0.1344-0.0884 0-0.1485-0.046-0.1803-0.1344-0.152-0.9648-0.152-1.9014 0-2.8062 0.2121-1.085 0.6468-2.0499 1.3112-2.8945 0.5443-0.6927 1.2228-1.2653 2.0357-1.7177-1.2051 0.3004-2.322 0.6327-3.3469 0.9931-1.1451 0.4524-2.1559 0.9649-3.0325 1.5375-0.87297 0.576-1.6258 1.2228-2.2619 1.9473-0.06009 0.0884-0.12018 0.106-0.18024 0.046-0.08841-0.0601-0.12016-0.1237-0.0884-0.1838 0.45238-0.933 1.1309-1.7495 2.0357-2.4422 0.87299-0.7245 1.9297-1.3111 3.1666-1.7635 0.5125-0.2121 1.0532-0.3923 1.6258-0.5443-2.8627 0.0319-5.5628-0.0742-8.097-0.3146-0.08841 0-0.13431-0.0459-0.13431-0.1378 0-0.1201 0.04595-0.1802 0.13431-0.1802 2.5022-0.2404 5.174-0.3464 8.0085-0.3146-0.5443-0.152-1.0567-0.3181-1.5374-0.4983-1.237-0.4842-2.2937-1.0709-3.1666-1.7636-0.90476-0.7245-1.5833-1.5409-2.0357-2.4457-0.03185-0.0884 0-0.1661 0.0884-0.2261 0.06009-0.0283 0.12015-0.0142 0.18024 0.0459 0.63615 0.7563 1.389 1.4173 2.2619 1.9898 0.87649 0.5761 1.8873 1.0708 3.0325 1.495 1.0249 0.3923 2.1417 0.7386 3.3469 1.039h0.0459c-0.8447-0.4523-1.5374-1.039-2.0817-1.7636-0.6927-0.8446-1.1309-1.7953-1.3112-2.8485-0.1802-0.9366-0.1802-1.8873 0-2.8522 0.0319-0.0601 0.0919-0.106 0.1803-0.1343 0.0919 0.0282 0.1378 0.0884 0.1378 0.1802 0.0601 0.9649 0.2085 1.8237 0.4524 2.5801 0.2686 0.933 0.6927 1.7636 1.2652 2.4881 0.5726 0.6927 1.283 1.3112 2.1277 1.8519 0.781 0.4842 1.5833 0.8624 2.3962 1.131l0.3605 0.0459c0.1236 0.0319 0.1837 0.0919 0.1837 0.1803-0.0318 0.06-0.0919 0.106-0.1837 0.1378-0.0885 0.0282-0.1944 0.0459-0.3146 0.0459-0.0319 0-0.046 0.0141-0.046 0.0425-0.8128 0.2438-1.6151 0.6043-2.3962 1.0885-0.8446 0.5407-1.5548 1.1592-2.1274 1.8519zm61.478 49.762c-0.1485-2.23-1.2971-3.587-3.4388-4.071-1.2051-0.24-2.6824-0.887-4.432-1.944-1.7777-1.057-3.0607-2.76-3.8452-5.11-0.7846 2.41-2.1099 4.145-3.9796 5.202-1.9014 1.053-3.4847 1.686-4.7501 1.898-0.0318 0.032-0.06 0.046-0.0919 0.046-1.8413 0.664-2.8203 1.99-2.9404 3.98 0.2403 2.505 1.6152 3.877 4.1174 4.117h0.0884c0.06 0 0.106 0.015 0.1378 0.046 0.0282 0.032 0.046 0.074 0.046 0.134-0.0319 0.212-0.046 0.424-0.046 0.636 0.2121 2.503 1.5833 3.874 4.1173 4.114 1.2653-0.028 2.322-0.526 3.1666-1.491 0.0283-0.032 0.0743-0.046 0.1344-0.046 0.0318 0 0.0601 0.013 0.0919 0.046 0.8446 0.965 1.8978 1.463 3.1666 1.491 2.5305-0.24 3.9193-1.611 4.1599-4.114-0.0283-0.212-0.0601-0.424-0.0884-0.636 0-0.06 0.0141-0.102 0.0424-0.134 0.0601-0.06 0.1237-0.074 0.1838-0.046 2.5305-0.24 3.9193-1.612 4.1599-4.118zm-3.4387-1.13c-0.9649 0.152-1.8979 0.152-2.8027 0-1.085-0.209-2.0498-0.647-2.8945-1.312-0.6962-0.54-1.2688-1.237-1.7211-2.081v0.046c0.3039 1.208 0.6326 2.308 0.9966 3.304 0.4524 1.174 0.9649 2.184 1.5374 3.029 0.5726 0.905 1.2229 1.675 1.9438 2.308 0.0919 0.06 0.1061 0.12 0.046 0.18-0.0601 0.092-0.1202 0.121-0.1803 0.092-0.9365-0.452-1.7494-1.131-2.4421-2.036-0.7245-0.876-1.3112-1.929-1.7636-3.166-0.212-0.513-0.3923-1.057-0.5442-1.63v1.177c0 2.442-0.1061 4.75-0.3181 6.92 0 0.06-0.0425 0.106-0.1343 0.138-0.1202-0.032-0.1803-0.078-0.1803-0.138-0.212-2.17-0.318-4.478-0.318-6.92v-1.131c-0.1485 0.573-0.3146 1.099-0.4984 1.584-0.4806 1.237-1.0709 2.29-1.7635 3.166-0.7246 0.905-1.5374 1.584-2.4422 2.036-0.0919 0.028-0.1661 0-0.2262-0.092-0.0318-0.06-0.0141-0.12 0.046-0.18 0.7528-0.633 1.4172-1.403 1.9898-2.308 0.5725-0.845 1.0708-1.855 1.4914-3.029 0.3923-0.997 0.7387-2.096 1.0426-3.304v-0.046c-0.4524 0.844-1.0426 1.541-1.7636 2.081-0.8446 0.665-1.7953 1.103-2.8521 1.312-0.9331 0.152-1.8838 0.152-2.8486 0-0.0601-0.029-0.1061-0.089-0.1379-0.181 0.0319-0.088 0.0919-0.134 0.1838-0.134 0.9649-0.06 1.8237-0.212 2.5765-0.453 0.9366-0.303 1.7636-0.738 2.4881-1.311 0.6927-0.544 1.3112-1.237 1.8555-2.081 0.4842-0.785 0.8588-1.584 1.1309-2.4l0.046-0.407c0.0282-0.06 0.0884-0.105 0.1802-0.134 0.0601 0.028 0.106 0.074 0.1343 0.134 0.0319 0.121 0.046 0.241 0.046 0.364l0.046 0.043c0.2403 0.816 0.6043 1.615 1.085 2.399 0.5442 0.845 1.1627 1.538 1.8554 2.082 0.7528 0.601 1.5834 1.039 2.4881 1.311 0.7846 0.241 1.6576 0.393 2.6224 0.453 0.0919 0 0.1378 0.046 0.1378 0.134 0 0.092-0.0461 0.152-0.1379 0.181zm-20.039-104.77c0.152 2.2301 1.3112 3.5873 3.4846 4.0715 1.1734 0.2403 2.6542 0.8729 4.432 1.8979 1.7495 1.0567 3.0148 2.7744 3.7994 5.1565 0.7845-2.4103 2.1134-4.1455 3.9829-5.2024 1.8979-1.0533 3.4954-1.7035 4.7924-1.9439h0.0459c1.8414-0.6644 2.8204-1.9898 2.9404-3.9796-0.2403-2.5058-1.6116-3.877-4.1173-4.1173h-0.0884c-0.0601 0-0.106-0.0141-0.1378-0.04593-0.0283-0.0318-0.0425-0.07423-0.0425-0.13432 0.0601-0.24385 0.0884-0.45238 0.0884-0.63616-0.2403-2.5022-1.6293-3.8734-4.1599-4.1138-1.2688 0.02826-2.322 0.52662-3.1666 1.4914-0.0319 0.0318-0.0601 0.04593-0.0919 0.04593-0.0601 0-0.106-0.0141-0.1343-0.04593-0.8447-0.96483-1.9014-1.4632-3.1666-1.4914-2.534 0.24034-3.9053 1.6116-4.1174 4.1138 0 0.21204 0.0142 0.42408 0.046 0.63616 0 0.06009-0.0177 0.1025-0.046 0.13432-0.0318 0.03181-0.0776 0.04593-0.1378 0.04593h-0.0424c-2.5341 0.24033-3.9228 1.6116-4.1631 4.1173zm3.4386 1.131c0.9648-0.152 1.8978-0.152 2.8026 0 1.0886 0.1802 2.0534 0.6185 2.8981 1.3111 0.6927 0.5408 1.2794 1.237 1.7636 2.0817l-0.0459-0.0459c-0.3005-1.237-0.6327-2.3538-0.9967-3.3469-0.4524-1.1487-0.9472-2.1595-1.4914-3.0325-0.6044-0.87297-1.2653-1.6293-1.9898-2.2619-0.0601-0.06009-0.0777-0.12016-0.046-0.18025 0.0601-0.0919 0.1343-0.12015 0.2262-0.09189 0.9048 0.45239 1.7035 1.1309 2.3962 2.0357 0.7245 0.87643 1.3289 1.9297 1.8095 3.1666 0.1838 0.5125 0.3499 1.0567 0.4983 1.6293v-1.2229c0-2.4103 0.1061-4.7041 0.3181-6.8741 0.0283-0.09189 0.0884-0.13782 0.1803-0.13782 0.06 0 0.106 0.04593 0.1343 0.13782 0.2121 2.1417 0.3181 4.432 0.3181 6.8741v1.131c0.152-0.5408 0.3181-1.0532 0.4983-1.5374 0.4807-1.237 1.0709-2.2902 1.7636-3.1666 0.7245-0.90477 1.5374-1.5833 2.4421-2.0357 0.0919-0.02829 0.1661-1e-5 0.2262 0.09189 0.0319 0.06009 0.0141 0.12016-0.0459 0.18025-0.7528 0.63263-1.4173 1.3889-1.9898 2.2619-0.5408 0.87292-1.0391 1.8837-1.4915 3.0325-0.3923 1.0249-0.7386 2.1382-1.0426 3.3469v0.0459c0.4842-0.8447 1.0709-1.5409 1.7671-2.0817 0.8447-0.6927 1.8096-1.1309 2.8945-1.3111 0.9048-0.1838 1.8379-0.1838 2.8027 0 0.0919 0.0282 0.1379 0.0883 0.1379 0.1802-0.0319 0.0884-0.0919 0.1343-0.1803 0.1343-0.9648 0.0601-1.8272 0.2121-2.5801 0.4524-0.9365 0.2721-1.7635 0.6927-2.4881 1.2688-0.6927 0.5726-1.3112 1.2794-1.8554 2.1241-0.4807 0.7845-0.8588 1.5833-1.131 2.3997l-0.0459 0.3605c0 0.1202-0.0424 0.1802-0.1343 0.1802-0.1202-0.0282-0.1803-0.0883-0.1803-0.1802s-0.0141-0.1944-0.0459-0.3181v-0.0424c-0.2722-0.8164-0.6468-1.6151-1.131-2.3997-0.5443-0.8447-1.1627-1.5515-1.8554-2.1241-0.7246-0.5443-1.5516-0.9648-2.4881-1.2688-0.7846-0.2403-1.6576-0.3923-2.6224-0.4524-0.0601 0-0.106-0.0459-0.1378-0.1343 0-0.0919 0.046-0.152 0.1379-0.1802zm-39.45 20.898c0.212 0.2121 0.4665 0.4383 0.7704 0.6786 0.0601 0 0.0884 0.0318 0.0884 0.0919s-0.0141 0.106-0.0424 0.1343c-0.0319 0.0318-0.0601 0.0459-0.0919 0.0459 0 0.0318-0.0141 0.046-0.046 0.046-1.2652 1.3253-1.9155 2.9086-1.9438 4.75 0.0283 1.8096 0.6786 3.3787 1.9438 4.7042 1.3289 1.2652 2.9122 1.9155 4.7501 1.9438 1.4172 0 2.7142-0.4206 3.8911-1.2653 2.2301-1.6293 5.669-2.6824 10.313-3.1666 2.5941 0 4.9762 0.6786 7.1498 2.0357-1.9615-3.6508-2.4881-7.1639-1.5834-10.539 0.9331-3.3787 2.0216-5.927 3.2551-7.6481v-0.0884c1.3572-2.8945 0.9825-5.5346-1.1309-7.9167-1.3254-1.2688-2.9086-1.9155-4.7501-1.9473-1.8095 0.0318-3.3751 0.6785-4.7041 1.9473-0.0282 0.0283-0.046 0.046-0.046 0.046 0 0.0282-0.0141 0.0601-0.0424 0.0883-0.0319 0.0318-0.0777 0.046-0.1378 0.046-0.0283 0-0.0742-0.0318-0.1343-0.0919-0.2121-0.3004-0.4241-0.5549-0.6327-0.767-1.3288-1.2688-2.8981-1.9155-4.7074-1.9473-1.8378 0.0318-3.4211 0.6785-4.7501 1.9473-1.4172 1.4773-2.0498 3.2551-1.8979 5.3366 0 0.0318-0.0141 0.0778-0.0459 0.1378-0.0601 0.0283-0.1061 0.0425-0.1343 0.0425-0.2121-0.0283-0.41-0.0425-0.5902-0.0425-1.8378 0.0283-3.4211 0.6786-4.7501 1.9439-2.5942 3.1666-2.5941 6.319 1e-4 9.454zm3.1665-1.8978c1.5091-0.5124 3.1666-0.6785 4.9763-0.4983 1.7812 0.2121 3.619 0.7387 5.5204 1.5834 1.085 0.4806 2.1418 1.0532 3.1667 1.7176-0.6645-0.6644-1.3289-1.3112-1.9898-1.9438-2.746-2.7745-5.2025-5.4887-7.376-8.1429-0.0601-0.0601-0.0601-0.1378 0-0.2261 0.0918-0.0318 0.1661-0.0318 0.2261 0 2.6542 2.2018 5.3684 4.6723 8.1429 7.4183 0.6043 0.6043 1.2228 1.237 1.8554 1.9014-0.6644-1.0285-1.2228-2.0534-1.6752-3.0784-0.8447-1.8979-1.3571-3.7393-1.5374-5.5169-0.212-1.8095-0.0601-3.4705 0.4524-4.9762 0.0319-0.0919 0.0919-0.1379 0.1803-0.1379 0.0919 0.0318 0.1378 0.0919 0.1378 0.1803-0.1202 1.5409-0.0141 3.1525 0.3146 4.8419 0.364 1.5974 0.9507 3.301 1.7671 5.1103 0.6609 1.5692 1.5232 3.2126 2.5764 4.9337 0.152 0.2403 0.304 0.4665 0.4524 0.6786l-0.0459-0.046c-0.5726-1.661-0.767-3.3045-0.5867-4.9303 0.212-1.7212 0.8128-3.2905 1.8095-4.7075 0.8129-1.2051 1.8696-2.2442 3.1666-3.1207 0.0601-0.0601 0.1202-0.0459 0.1803 0.046 0.06 0.06 0.06 0.1201 0 0.1802-1.0249 1.1451-1.8377 2.3079-2.4421 3.4846-0.7245 1.3572-1.1769 2.7745-1.3572 4.2518-0.1519 1.4172-0.06 2.9086 0.2722 4.4779 0.3322 1.449 0.8129 2.7919 1.4455 4.0255v0.0459c0.152 0.152 0.2863 0.304 0.4099 0.4524 0.0601 0.0601 0.0601 0.1378 0 0.2262-0.0918 0.0601-0.1661 0.0601-0.2261 0-0.152-0.1202-0.304-0.2403-0.4524-0.3605-0.0319 0-0.0601-0.0141-0.0919-0.0459-1.2052-0.6044-2.534-1.0709-3.9796-1.4031-1.5692-0.3605-3.0784-0.4524-4.5239-0.2721-1.449 0.152-2.8662 0.5902-4.2553 1.3147-1.1451 0.6326-2.2902 1.4596-3.4354 2.4881-0.0318 0.0283-0.0777 0.0424-0.1378 0.0424-0.0282 0-0.0601-0.0141-0.0884-0.0424-0.0601-0.0601-0.0777-0.1378-0.046-0.2262 0.9048-1.2688 1.958-2.322 3.1667-3.1666 1.4172-0.9648 2.9688-1.5551 4.6582-1.7671 1.6611-0.1803 3.3046 0.0177 4.9303 0.5902h0.092c-0.2404-0.1202-0.4842-0.258-0.7245-0.4065-1.7177-1.0567-3.347-1.9332-4.8842-2.6259-1.8096-0.8129-3.5308-1.3854-5.1566-1.7177-1.6611-0.364-3.2728-0.4665-4.8418-0.3181-0.0601 0-0.1061-0.0459-0.1343-0.1343-0.0319-0.0919 1e-4 -0.1517 0.0885-0.18zm92.377 63.694c-0.212-0.2121-0.466-0.4205-0.77-0.6326-0.06-0.06-0.089-0.1059-0.089-0.1377 0-0.0601 0.014-0.1026 0.043-0.1344 0.031 0 0.06-0.0154 0.092-0.0459l0.046-0.0459c2.594-3.1348 2.594-6.2874 0-9.4542-1.329-1.2653-2.913-1.9156-4.75-1.9438-1.418 0-2.715 0.4205-3.892 1.2652-2.23 1.6611-5.6685 2.7142-10.312 3.1666-2.5942 0-4.9763-0.6785-7.1498-2.0357 1.9615 3.6508 2.4739 7.1639 1.5374 10.543-0.9048 3.3752-1.9756 5.9231-3.2092 7.6441v0.089c-1.3572 2.898-0.9825 5.535 1.1309 7.917 1.3254 1.268 2.8945 1.915 4.7042 1.947 1.8378-0.032 3.421-0.679 4.75-1.947 0-0.029 0.0141-0.043 0.046-0.043 0-0.032 0.0141-0.06 0.0424-0.092 0.0317-0.032 0.0777-0.046 0.1378-0.046 0.0283 0 0.0601 0.032 0.0884 0.092 0.2439 0.301 0.4701 0.559 0.6786 0.767 1.297 1.269 2.8663 1.916 4.7077 1.947 1.838-0.031 3.421-0.678 4.75-1.947 1.417-1.477 2.05-3.255 1.898-5.337 0-0.031 0.014-0.074 0.046-0.134 0.06 0 0.106-0.018 0.134-0.046 2.082 0.149 3.863-0.484 5.34-1.901 2.594-3.167 2.594-6.3195 0-9.4543zm-3.166 1.9015c-1.538 0.5125-3.199 0.6786-4.977 0.4948-1.781-0.2085-3.619-0.7386-5.5202-1.5833-1.085-0.4807-2.1559-1.0532-3.2125-1.7177 0.6962 0.6645 1.3571 1.3113 1.9933 1.9439 2.7424 2.7745 5.2164 5.4891 7.4184 8.1431 0.028 0.06 0.028 0.137 0 0.226-0.092 0.032-0.166 0.032-0.226 0-2.686-2.202-5.4005-4.658-8.1431-7.3725-0.6044-0.6326-1.2229-1.2829-1.8555-1.9438 0.6326 1.0249 1.1911 2.0499 1.6752 3.0748 0.8447 1.9015 1.3572 3.7395 1.5374 5.5205 0.1803 1.809 0.0283 3.481-0.4524 5.019-0.0318 0.06-0.0919 0.091-0.1802 0.091h-0.046c-0.06-0.031-0.0919-0.091-0.0919-0.18 0.1202-1.537 0.0141-3.152-0.3145-4.842-0.364-1.597-0.9507-3.301-1.7671-5.1102-0.6927-1.5692-1.5516-3.2125-2.5765-4.9303-0.152-0.2439-0.3039-0.4842-0.4524-0.7245 0 0.0282 0.0141 0.06 0.046 0.0885 0.5407 1.6611 0.721 3.3187 0.5407 4.9762-0.1802 1.6893-0.7669 3.2443-1.7636 4.6613-0.8128 1.205-1.8696 2.248-3.1666 3.121-0.06 0.06-0.1201 0.06-0.1802 0-0.0601-0.092-0.0601-0.166 0-0.226 1.0249-1.145 1.8378-2.308 2.4421-3.485 0.7245-1.357 1.1769-2.7746 1.3572-4.2518 0.1519-1.4172 0.06-2.9086-0.2722-4.478-0.3605-1.449-0.8447-2.7744-1.4455-3.9796v-0.0918c-0.152-0.152-0.2862-0.3004-0.4099-0.4524-0.0601-0.0601-0.0601-0.1343 0-0.2262 0.0919-0.0601 0.1661-0.0601 0.2261 0 0.152 0.1202 0.304 0.2403 0.4524 0.3605 0.0318 0 0.0601 0.0177 0.0919 0.0459 1.2052 0.6044 2.534 1.0709 3.9796 1.4031 1.5692 0.3605 3.0643 0.4524 4.4816 0.2722 1.4773-0.1521 2.9084-0.5902 4.2974-1.3112 1.145-0.6362 2.29-1.4632 3.436-2.4881 0.091-0.0319 0.166-0.0319 0.226 0 0.06 0.0884 0.06 0.1661 0 0.2261-0.873 1.2653-1.912 2.3221-3.121 3.1667-1.417 0.9648-2.969 1.5515-4.6582 1.7635-1.6611 0.1803-3.3046-0.0153-4.9303-0.5902h-0.092c0.2403 0.1237 0.4842 0.258 0.7245 0.41 1.7177 1.0532 3.3469 1.9297 4.8842 2.6224 1.8098 0.8129 3.5308 1.3889 5.1568 1.7176 1.661 0.364 3.258 0.4701 4.796 0.3181 0.092 0 0.152 0.0459 0.18 0.1344 0.032 0.0918 0 0.1522-0.088 0.184zm-74.735 14.112c0.0601 0 0.106 0.016 0.1378 0.046l0.0425 0.046c0 0.028 0.0176 0.06 0.0459 0.089 1.3289 1.268 2.8945 1.915 4.7042 1.947 1.8413-0.032 3.4246-0.679 4.75-1.947 2.3538-2.715 2.5801-5.595 0.6786-8.638-1.0851-1.601-2.0358-4.0115-2.8486-7.2381-0.7846-3.2269-0.2121-6.6374 1.7176-10.225-2.1382 1.2971-4.4779 1.9438-7.0118 1.9438-5.0045-0.5125-8.7297-1.7176-11.172-3.619h-0.0919c-0.9931-0.5407-2.0498-0.8129-3.1666-0.8129-1.8378 0.0283-3.421 0.6786-4.75 1.9438-2.5942 3.1666-2.5942 6.3191 0 9.4542l0.0459 0.0459c0.0319 0.0318 0.0601 0.0459 0.0919 0.0459 0.0283 0.0318 0.0425 0.0741 0.0425 0.1344 0 0.06-0.0283 0.1059-0.0884 0.1377-0.2722 0.2121-0.5302 0.4206-0.7705 0.6327-1.2652 1.3253-1.9155 2.8945-1.9438 4.7042 0.0282 1.841 0.6786 3.425 1.9438 4.75 1.4773 1.417 3.2587 2.05 5.3402 1.901 0.0601 0.029 0.1025 0.06 0.1343 0.089 0.0319 0.032 0.046 0.06 0.046 0.092-0.152 2.081 0.4806 3.859 1.8979 5.336 1.3288 1.269 2.9122 1.916 4.75 1.948 1.8095-0.032 3.3787-0.679 4.7075-1.948 0.2085-0.208 0.4347-0.466 0.6785-0.767 0-0.06 0.0281-0.092 0.0883-0.092zm-2.0356-7.192c-0.3605 1.658-0.4665 3.273-0.3145 4.842 0 0.06-0.046 0.103-0.1379 0.135h-0.0459c-0.0601 0-0.1025-0.032-0.1343-0.092-0.5125-1.506-0.6786-3.167-0.4983-4.976 0.212-1.778 0.7386-3.619 1.5833-5.5173 0.4842-1.085 1.0567-2.1418 1.7211-3.1666-0.6644 0.6644-1.3147 1.3253-1.9473 1.9897-2.7745 2.7462-5.4887 5.2022-8.1429 7.3722-0.0601 0.06-0.1343 0.06-0.2262 0-0.0282-0.088-0.0282-0.166 0-0.226 2.2019-2.654 4.6757-5.3509 7.4184-8.0969 0.6043-0.6326 1.2369-1.2652 1.9014-1.8979-1.0249 0.6609-2.0499 1.2193-3.0748 1.6717-1.9014 0.8447-3.7427 1.3572-5.5205 1.5374-1.8095 0.2121-3.4672 0.06-4.9762-0.4524-0.0919-0.0282-0.1344-0.0885-0.1344-0.1803 0.0283-0.0884 0.0885-0.1344 0.1803-0.1344 1.5374 0.1203 3.1525 0.0154 4.8383-0.318 1.601-0.3605 3.3046-0.9507 5.1139-1.7636 1.5692-0.6927 3.2125-1.5515 4.9304-2.5801 0.2403-0.1485 0.4665-0.3004 0.6785-0.4524l-0.0459 0.046c-1.6576 0.5725-3.301 0.7704-4.9304 0.5901-1.7176-0.212-3.2868-0.8022-4.7041-1.767-1.2087-0.8447-2.2478-1.8979-3.1207-3.1666-0.0601-0.0884-0.0601-0.1662 0-0.2262 0.0884-0.0601 0.1661-0.0601 0.2262 0 1.1733 1.0284 2.3361 1.8413 3.4813 2.4457 1.3571 0.721 2.7745 1.1734 4.2517 1.3571 0.4524 0.0601 0.9224 0.0885 1.4031 0.0885 0.9967 0 2.0216-0.1203 3.0784-0.3605 1.4773-0.3322 2.8168-0.8164 4.0255-1.449h0.046c0.1484-0.1485 0.3004-0.2863 0.4523-0.4065 0.0601-0.0601 0.1344-0.0601 0.2262 0 0.0601 0.0919 0.0601 0.1661 0 0.2262-0.1237 0.152-0.2438 0.3004-0.364 0.4524 0 0.0318-0.0141 0.06-0.046 0.0919-0.6008 1.2051-1.0708 2.5305-1.3995 3.9796-0.364 1.5692-0.4524 3.0748-0.2722 4.5238 0.1485 1.4491 0.5867 2.8664 1.3112 4.2514 0.6327 1.145 1.4632 2.294 2.4881 3.439 0.0319 0.092 0.0319 0.166 0 0.226-0.0601 0.06-0.1343 0.074-0.2261 0.046-1.2653-0.905-2.322-1.961-3.1667-3.166-0.9648-1.418-1.5515-2.973-1.7635-4.662-0.1803-1.6575 0.0141-3.301 0.5867-4.9303v-0.0885c-0.1202 0.2403-0.2545 0.4806-0.4065 0.721-1.0567 1.7211-1.9297 3.3505-2.6224 4.8877-0.8164 1.8091-1.3889 3.5271-1.7211 5.1561zm62.114-86.765-0.0459-0.0459c-1.2971-1.2688-2.8663-1.9156-4.7042-1.9474-1.8413 0.0318-3.4246 0.6786-4.75 1.9474-2.3538 2.7142-2.5801 5.5946-0.6785 8.6412 1.1132 1.5974 2.0639 4.0114 2.8485 7.238 0.8129 3.2551 0.258 6.662-1.6752 10.221 2.1135-1.2972 4.4354-1.944 6.9695-1.944 5.0045 0.5125 8.7297 1.7176 11.172 3.619h0.092c0.993 0.5443 2.064 0.8129 3.212 0.8129 1.81-0.0283 3.376-0.6786 4.705-1.9438 2.594-3.1666 2.594-6.3192 0-9.4542-0.032 0-0.046-0.0141-0.046-0.0459l-0.046-0.046c-0.06-0.0282-0.089-0.0742-0.089-0.1343l0.089-0.0919c0.304-0.2403 0.558-0.4665 0.77-0.6785 1.297-1.2971 1.944-2.8628 1.944-4.7042s-0.647-3.4246-1.944-4.75c-1.477-1.4172-3.244-2.0499-5.294-1.9014-0.06 0-0.106-0.0141-0.134-0.0424-0.032-0.0601-0.046-0.1061-0.046-0.1379 0.12-2.0816-0.527-3.8593-1.944-5.3366-1.297-1.2688-2.866-1.9155-4.708-1.9473-1.8375 0.0318-3.4207 0.6785-4.7497 1.9473-0.2085 0.2121-0.4206 0.4666-0.6327 0.767-0.0282 0.0601-0.0741 0.0919-0.1343 0.0919-0.0318 0-0.0777-0.0141-0.1378-0.046 0-0.0282-0.014-0.0597-0.0424-0.088zm0.4948 12.482c0.8164-1.8095 1.3889-3.5272 1.7211-5.1565 0.3605-1.6576 0.4807-3.2551 0.3605-4.796-0.0282-0.0884 0-0.1484 0.0919-0.1802 0.1202-0.0283 0.1803 0 0.1803 0.0919 0.5124 1.5373 0.6785 3.1948 0.4983 4.9762-0.1803 1.7777-0.7104 3.619-1.5833 5.5169-0.4524 1.0885-1.0108 2.1594-1.6753 3.2125 0.6327-0.6927 1.283-1.3572 1.9474-1.9898 2.7427-2.746 5.4432-5.2165 8.0972-7.4183 0.088-0.0318 0.166-0.0318 0.226 0 0.06 0.0883 0.06 0.1661 0 0.2262-2.174 2.6541-4.63 5.3683-7.3761 8.1428-0.6326 0.6008-1.2653 1.2193-1.8979 1.8555 0.9931-0.6362 2.0039-1.191 3.0289-1.6752 1.9331-0.8447 3.7851-1.3572 5.5661-1.5374 1.778-0.1803 3.439-0.0318 4.977 0.4523 0.06 0.0601 0.088 0.1202 0.088 0.1803-0.028 0.0919-0.088 0.1343-0.18 0.1343-1.538-0.1202-3.135-0.0141-4.796 0.318-1.626 0.3605-3.347 0.9508-5.1568 1.7636-1.5692 0.6928-3.2125 1.5551-4.9303 2.5801-0.2121 0.1484-0.4383 0.3004-0.6786 0.4524l0.046-0.046c1.6575-0.5442 3.3151-0.7245 4.9762-0.5442 1.6895 0.1837 3.2405 0.7704 4.6585 1.7671 1.208 0.8129 2.247 1.8696 3.12 3.1666 0.06 0.0601 0.06 0.1202 0 0.1802-0.028 0.0283-0.074 0.046-0.134 0.046-0.032 0-0.06-0.0177-0.092-0.046-1.145-1.0249-2.29-1.8413-3.435-2.4421-1.389-0.7245-2.8206-1.1769-4.2978-1.3572-1.4172-0.1519-2.9122-0.06-4.4815 0.2686-1.4455 0.3323-2.7745 0.8165-3.9796 1.4491h-0.046c-0.1802 0.152-0.3464 0.2863-0.4983 0.4064-0.0601 0.0601-0.1202 0.0601-0.1803 0-0.06-0.0883-0.0742-0.1661-0.0459-0.2262 0.1237-0.1484 0.2438-0.3004 0.364-0.4523 0-0.0283 0.0141-0.0601 0.046-0.0884 0.6008-1.2087 1.085-2.534 1.4455-3.9829 0.3322-1.5692 0.4241-3.0607 0.2721-4.478-0.1802-1.4773-0.6326-2.9086-1.3571-4.2976-0.6044-1.1451-1.4173-2.2937-2.4422-3.4387-0.0601-0.0884-0.0601-0.1661 0-0.2262s0.1202-0.0743 0.1803-0.046c1.297 0.9048 2.3538 1.9615 3.1666 3.1666 0.9966 1.4173 1.5833 2.9722 1.7635 4.6616 0.1803 1.6575-0.0141 3.301-0.5866 4.9303v0.0919c0.1484-0.2438 0.3004-0.4841 0.4523-0.7245 1.025-1.7211 1.8841-3.3468 2.5769-4.8877z" clip-rule="evenodd" fill="#9AB522" fill-rule="evenodd"/>
<path d="m101.98 46.883-0.226 0.7705c3.923 2.2018 6.139 4.7359 6.651 7.5986 0.541 2.8663 0.707 4.4353 0.499 4.7074l0.767 0.0884c0.756-5.4568-0.227-9.0476-2.941-10.765-2.714-1.7494-4.298-2.5481-4.75-2.3997zm7.691 22.124-0.767 0.1343c0.208 0.2721 0.042 1.8237-0.499 4.6582-0.512 2.8663-2.728 5.4002-6.651 7.6022l0.226 0.767c0.452 0.152 2.036-0.6326 4.75-2.3503 2.714-1.7494 3.697-5.3545 2.941-10.811zm-82.606 13.572 0.2262-0.7705c-3.9193-2.2018-6.1496-4.7359-6.6938-7.5986-0.5125-2.8381-0.6644-4.3895-0.4524-4.6616l-0.8129-0.1343c-0.7245 5.4569 0.2545 9.0618 2.9404 10.811 2.7142 1.7176 4.3119 2.5022 4.7925 2.3538zm0.2261-34.564-0.2262-0.767c-0.4806-0.1519-2.064 0.6468-4.7501 2.3962-2.7142 1.7212-3.7074 5.3084-2.9829 10.769l0.8129-0.092c-0.2121-0.2721-0.0601-1.8413 0.4523-4.7041 0.5443-2.8663 2.7746-5.4 6.694-7.602zm42.03 61.116-0.1378 0.77c5.4605 0.753 9.0618-0.226 10.811-2.94 1.7211-2.714 2.5057-4.298 2.3537-4.75l-0.7704-0.227c-2.2019 3.92-4.7324 6.136-7.5987 6.648-2.8344 0.545-4.3892 0.711-4.658 0.499zm-9.1397 0.77-0.0919-0.77c-0.2686 0.212-1.8378 0.046-4.7041-0.499-2.8627-0.512-5.3969-2.728-7.5986-6.648l-0.7705 0.227c-0.1484 0.452 0.6503 2.035 2.3998 4.75 1.7176 2.714 5.3049 3.693 10.765 2.94zm-0.4525-89.525 0.0919-0.8164c-5.4605-0.7246-9.0477 0.258-10.769 2.9404-1.7495 2.7142-2.5482 4.3117-2.3962 4.7959l0.7669 0.2262c2.2018-3.9193 4.7359-6.1532 7.6022-6.6938 2.8627-0.5125 4.4319-0.6644 4.704-0.4523zm9.0478-0.8165c5.4605-0.7245 9.0618 0.2721 10.811 2.9863 1.7211 2.6824 2.5022 4.2658 2.3538 4.75l-0.7705 0.2262c-2.2018-3.9193-4.7359-6.1531-7.5986-6.6938-2.8345-0.5124-4.3895-0.6644-4.6616-0.4524l-0.1343-0.8163z" clip-rule="evenodd" fill="#EAC199" fill-rule="evenodd"/>
<path d="m104.43 64.707c-0.029 0-0.043-0.0318-0.043-0.0919s0.014-0.106 0.043-0.1343c1.749-1.5091 2.64-3.4105 2.671-5.7008-0.424-4.5238-2.898-7.0118-7.4215-7.4642-0.3287 0.0283-0.7069 0.0742-1.131 0.1343-0.06 0-0.1024-0.0141-0.1343-0.0459-0.0318-0.0601-0.0459-0.1025-0.0459-0.1343v-0.1803c-0.4206-4.5238-2.8945-6.9977-7.4184-7.4183-1.2652 0.0883-2.3821 0.3746-3.3469 0.8588 1.7177 1.9579 3.1666 4.1173 4.3436 6.4676 1.1733 2.3821 2.0498 4.9019 2.6223 7.5561 1.4774-0.9967 2.7601-2.1276 3.8453-3.3929 0.06-0.06 0.1343-0.0777 0.2262-0.0459 0.06 0.0601 0.0741 0.1343 0.0459 0.2262-0.8164 1.5692-1.9898 2.9863-3.5308 4.2517-0.1202 0.0919-0.2403 0.1802-0.3605 0.2721 0.2121 1.3572 0.3323 2.746 0.3605 4.1633 2.0216 0.0884 3.983 0.2261 5.8815 0.4064 0.06 0.0282 0.106 0.0884 0.137 0.1802-0.031 0.0919-0.077 0.1343-0.137 0.1343-1.8983 0.1838-3.8597 0.3181-5.8815 0.41-0.0282 1.4172-0.1484 2.7886-0.3605 4.1138 0.1202 0.0919 0.2403 0.1838 0.3605 0.2721 1.5409 1.2688 2.7142 2.7001 3.5308 4.2976 0.0282 0.0919 0.0141 0.1661-0.0459 0.2262-0.0919 0.0319-0.1662 0.0141-0.2262-0.0459-1.0568-1.2653-2.3361-2.3963-3.8453-3.3929-0.5442 2.686-1.403 5.2202-2.58 7.6023-1.2052 2.3502-2.6683 4.5238-4.3859 6.5135 0.9649 0.4524 2.0817 0.7245 3.3469 0.8129 4.5239-0.4524 6.9978-2.9404 7.4184-7.4643v-0.1343c0-0.06 0.0141-0.106 0.0459-0.1343 0.0319-0.0318 0.0742-0.0459 0.1343-0.0459 0.4241 0.06 0.8023 0.0884 1.131 0.0884 4.5235-0.4206 6.9975-2.8945 7.4215-7.4183-0.031-2.322-0.922-4.2376-2.671-5.7431zm-73.874 9.3621c-0.0601 0.0601-0.1202 0.0601-0.1802 0-0.0919-0.0283-0.1061-0.0884-0.046-0.1803 0.7846-1.5974 1.9615-3.0325 3.5272-4.2976 0.1838-0.1202 0.364-0.2403 0.5443-0.3605-0.2121-1.3289-0.3323-2.6719-0.3605-4.0291-2.0817-0.0884-4.1032-0.2403-6.0647-0.4524-0.0884 0-0.1343-0.0424-0.1343-0.1343s0.0459-0.152 0.1343-0.1803c1.9615-0.1802 3.9829-0.318 6.0647-0.4064 0.0282-1.3572 0.1484-2.686 0.3605-3.9829-0.1803-0.1485-0.3605-0.2863-0.5443-0.4065-1.5657-1.2653-2.7427-2.7001-3.5272-4.2976-0.0601-0.0601-0.046-0.1202 0.046-0.1803 0.06-0.0601 0.1201-0.0459 0.1802 0.046 1.1168 1.3253 2.4739 2.5022 4.0714 3.5272 0.5125-2.6824 1.3713-5.2166 2.5801-7.5987 1.1734-2.3856 2.6224-4.5697 4.34-6.5594-0.9932-0.5124-2.1559-0.8164-3.4813-0.9047-4.5557 0.4205-7.0437 2.8945-7.4643 7.4183v0.1802c0.0283 0.0601 0.0141 0.106-0.0459 0.1343-0.0319 0.0318-0.0742 0.046-0.1344 0.046-0.3923-0.0884-0.7704-0.1343-1.1309-0.1343-4.5238 0.4524-6.9977 2.9404-7.4219 7.4642 0.0318 2.2902 0.9224 4.1917 2.6718 5.7008 0.0283 0.0282 0.0425 0.0742 0.0425 0.1343 0 0.0318-0.0141 0.0601-0.0425 0.0919-1.7494 1.5374-2.64 3.4528-2.6718 5.7431 0.4241 4.5238 2.8981 6.9977 7.4219 7.4183 0.3605 0 0.7386-0.0282 1.1309-0.0884h0.0425c0.0318 0 0.06 0.0141 0.0919 0.046 0.06 0.0282 0.0742 0.0742 0.0459 0.1343v0.1343c0.4524 4.5238 2.9404 7.0118 7.4643 7.4642 1.3253-0.0884 2.4739-0.3923 3.4387-0.9047-1.7212-1.9898-3.1666-4.1741-4.3435-6.5595-1.1769-2.382-2.0216-4.9159-2.5341-7.5986-1.5975 1.0567-2.9544 2.2477-4.0713 3.5731zm43.381 24.474c0.0601 0.06 0.0601 0.1203 0 0.1803-0.0282 0.0918-0.0884 0.12-0.1802 0.0918-1.5975-0.8164-3.0325-1.9898-4.2976-3.5308-0.0919-0.1485-0.1944-0.2862-0.3181-0.4064-1.3254 0.1803-2.6824 0.2863-4.0715 0.3181-0.1201 2.0216-0.2685 3.9937-0.4523 5.9271 0 0.12-0.0425 0.18-0.1344 0.18-0.0919-0.032-0.1519-0.092-0.1802-0.18-0.1802-1.9333-0.3181-3.9054-0.4065-5.9271-1.3889-0.0318-2.7459-0.1521-4.0714-0.3641-0.0919 0.1521-0.1979 0.304-0.318 0.4524-1.2653 1.5409-2.7001 2.7142-4.2977 3.5308-0.06 0.0282-0.1201 0-0.1802-0.0918-0.0601-0.06-0.046-0.1203 0.0459-0.1803 1.2971-1.085 2.4422-2.3962 3.4354-3.937-2.6824-0.5408-5.2024-1.4173-7.5527-2.6224-2.3821-1.2052-4.5556-2.6683-6.5135-4.3895-0.5125 0.9649-0.8164 2.1135-0.9048 3.4388 0.4206 4.5556 2.9086 7.0436 7.4643 7.4642h0.1343c0.06 0 0.106 0.0154 0.1343 0.0459 0.0318 0.0318 0.0459 0.0741 0.0459 0.1344-0.0884 0.4241-0.1343 0.8023-0.1343 1.131 0.4524 4.5237 2.9404 6.9977 7.4642 7.4217 2.2902-0.032 4.1918-0.922 5.7008-2.672 0.0282-0.028 0.0742-0.042 0.1343-0.042 0.0319 0 0.0601 0.015 0.0919 0.042 1.5374 1.75 3.4528 2.64 5.7431 2.672 4.5238-0.424 6.9977-2.898 7.4183-7.4217 0-0.3605-0.0282-0.7387-0.0884-1.131 0-0.06 0.0141-0.1026 0.046-0.1344 0.0282-0.0318 0.0742-0.0459 0.1343-0.0459h0.1343c4.5239-0.4206 7.0118-2.9086 7.4643-7.4642-0.0884-1.2653-0.3747-2.368-0.8589-3.3011-1.9579 1.7177-4.1314 3.1667-6.5135 4.3436-2.382 1.1734-4.9159 2.018-7.5986 2.5305 1.0532 1.5409 2.2159 2.8522 3.4812 3.9371zm-15.381-63.878c-2.6824 0.5443-5.2165 1.4172-7.5986 2.626-2.3538 1.1769-4.5239 2.6364-6.5135 4.3858-0.5125-0.9931-0.8164-2.17-0.9048-3.5272 0.4206-4.5238 2.9086-7.0118 7.4642-7.4642h0.0424c0.0319 0.0318 0.0601 0.0318 0.0919 0 0.0601 0 0.1061-0.0141 0.1344-0.046 0.0318-0.0283 0.0459-0.0742 0.0459-0.1343-0.06-0.3923-0.106-0.7705-0.1343-1.131 0.4524-4.5238 2.9404-6.9977 7.4643-7.4183 2.2901 0.0283 4.1917 0.9189 5.7007 2.6683 0.0884 0.0601 0.1803 0.0601 0.2686 0 1.4809-1.7495 3.3787-2.6401 5.7008-2.6683 4.5238 0.4206 6.9977 2.8945 7.4183 7.4183 0 0.3605-0.0282 0.7387-0.0884 1.131 0 0.0601 0.0141 0.106 0.046 0.1343 0.0282 0.0318 0.0742 0.046 0.1343 0.046 0.0318 0.0318 0.0459 0.0318 0.0459 0h0.0885c4.5238 0.4205 7.0118 2.9086 7.4642 7.4642-0.0884 1.2653-0.3746 2.3962-0.8588 3.3928-1.9898-1.7176-4.1774-3.1666-6.5594-4.3435-2.3821-1.177-4.9163-2.0357-7.5987-2.5765 1.0249-1.5409 2.1842-2.8663 3.4813-3.983 0.0601-0.06 0.0777-0.1201 0.046-0.1802-0.0601-0.0601-0.1343-0.0919-0.2262-0.0919-1.5975 0.8164-3.0289 2.0075-4.2976 3.5767-0.1202 0.1485-0.2404 0.3004-0.3605 0.4524-1.2971-0.1838-2.626-0.2863-3.983-0.3181-0.0884-2.0816-0.2403-4.0855-0.4523-6.0152 0-0.0919-0.0425-0.1519-0.1344-0.1838-0.0919 0.0319-0.1519 0.0919-0.1802 0.1838-0.1802 1.9297-0.3181 3.9337-0.4065 6.0152-1.3889 0.0318-2.746 0.152-4.0714 0.3605-0.1237-0.1484-0.2438-0.3145-0.364-0.4948-1.2653-1.5692-2.6824-2.7601-4.2517-3.5767-0.0919-0.0282-0.1662 0-0.2262 0.0919-0.0319 0.0601-0.0141 0.1202 0.0459 0.1803 1.3254 1.1168 2.5019 2.4598 3.5269 4.0255z" clip-rule="evenodd" fill="#CDD9C5" fill-rule="evenodd"/>
<path d="m116.96 40.686c-0.333-1.145-0.484-1.9897-0.453-2.534 0.272-1.2652 1.085-1.9297 2.442-1.9898 1.358 0.1803 2.022 0.9189 1.99 2.216-0.12 0.5443-0.466 1.3713-1.039 2.4881-0.604 1.1168-1.117 2.0216-1.537 2.7142l0.088 0.2262c1.449-1.6293 2.7-2.8204 3.757-3.5731 1.297-0.4842 2.276-0.1803 2.94 0.9047 0.453 1.2052 0.075 2.1701-1.131 2.8945-1.237 0.3605-2.94 0.6044-5.113 0.7246l0.137 0.2261c0.845 0.1202 1.856 0.2863 3.029 0.4983 1.149 0.2085 1.947 0.4348 2.4 0.6786 1.053 0.7811 1.237 1.7636 0.541 2.9404-0.905 1.0249-1.944 1.2511-3.121 0.6786-0.272-0.1838-0.633-0.5443-1.085-1.0886l3.212 6.6056c4.404-4.4638 5.475-9.5001 3.213-15.109-3.018-5.2483-7.631-7.5386-13.844-6.8777l3.574 7.3761zm-105 49.85c-0.4206 1.2688-1.3112 1.8555-2.6683 1.7671-1.3253-0.3322-1.9014-1.1486-1.7176-2.4457 0.14844-0.5124 0.58669-1.297 1.3112-2.3502 0.69272-1.0568 1.2794-1.9156 1.7635-2.5801l-0.0459-0.1803c-1.6293 1.4774-3.0007 2.5199-4.1173 3.1207-1.3254 0.3641-2.276-0.0282-2.8486-1.1769-0.3004-1.2334 0.18024-2.1559 1.449-2.7567 1.2653-0.2439 2.983-0.304 5.1566-0.1838l-0.0919-0.2686c-0.84469-0.2121-1.8378-0.4842-2.9863-0.8164-1.1133-0.3323-1.8837-0.6327-2.3043-0.9048-0.96483-0.9048-1.0426-1.8979-0.22617-2.9863 0.99312-0.9331 2.0498-1.0532 3.1666-0.3605 0.24033 0.2403 0.55487 0.6468 0.94718 1.2228l-2.5305-6.9236c-4.8278 3.983-6.3935 8.8815-4.7075 14.702 2.4139 5.5487 6.7574 8.3091 13.031 8.2806l-2.7601-7.6905c0.1802 1.1451 0.2399 1.9902 0.1798 2.5309zm111.78-17.912-3.393 7.4642c0.693-0.9966 1.251-1.6611 1.675-1.9933 1.145-0.6008 2.184-0.3923 3.121 0.6362 0.725 1.1451 0.573 2.1241-0.452 2.9404-0.484 0.2686-1.343 0.5266-2.58 0.7669-1.237 0.2722-2.262 0.4665-3.075 0.5902l-0.092 0.1803c2.174 0.0601 3.877 0.2721 5.114 0.6326 1.205 0.6645 1.612 1.6151 1.219 2.8486-0.664 1.0885-1.643 1.4031-2.94 0.9507-1.085-0.7245-2.368-1.8696-3.845-3.4387l-0.089 0.2262c1.205 1.8696 2.064 3.5164 2.577 4.9337 0.06 1.297-0.587 2.0498-1.944 2.2618-1.357 0-2.188-0.6503-2.488-1.9473-0.06-0.3322-0.013-0.8447 0.134-1.5374l-3.029 6.7397c6.242 0.5125 10.797-1.8979 13.66-7.238 2.113-5.669 0.919-10.677-3.573-15.017zm-118.62-16.286 3.3928-7.4642c-0.66089 0.9931-1.2052 1.6575-1.6258 1.9897-1.1769 0.6009-2.2195 0.3923-3.1243-0.6326-0.72098-1.1486-0.57254-2.1276 0.45239-2.9404 0.48418-0.2721 1.343-0.5301 2.5801-0.7705 1.237-0.2721 2.2619-0.4665 3.0748-0.5866l0.09191-0.1838c-2.17-0.0601-3.8911-0.2686-5.1565-0.6327-1.2087-0.6644-1.5975-1.6116-1.1769-2.8486 0.63263-1.085 1.6151-1.403 2.9404-0.9507 1.0567 0.7246 2.322 1.8697 3.7994 3.4388l0.1378-0.2262c-1.2087-1.8696-2.0676-3.5131-2.5801-4.9304-0.06009-1.297 0.57255-2.0675 1.9014-2.3078 1.3854 0.0283 2.2301 0.6927 2.5305 1.9898 0.0319 0.3322-0.0282 0.8447-0.1802 1.5374l3.0784-6.7397c-6.245-0.5125-10.797 1.9013-13.663 7.238-2.1417 5.6405-0.96476 10.645 3.5273 15.02zm83.057 60.619c1.145-0.332 1.9898-0.484 2.534-0.452 1.2971 0.268 1.9756 1.085 2.0357 2.442-0.212 1.357-0.9648 2.022-2.2619 1.99-0.5442-0.12-1.3712-0.467-2.4881-1.039-1.1168-0.605-2.0216-1.117-2.7142-1.541l-0.1802 0.092c1.5975 1.449 2.7745 2.7 3.5272 3.753 0.5124 1.297 0.212 2.28-0.9048 2.94-1.2051 0.453-2.1559 0.078-2.8486-1.131-0.3923-1.233-0.6503-2.94-0.7704-5.11l-0.2262 0.134c-0.1202 0.845-0.2863 1.856-0.4983 3.033-0.2085 1.145-0.4347 1.944-0.6786 2.396-0.781 1.057-1.7635 1.237-2.9404 0.544-1.0249-0.904-1.2511-1.943-0.6785-3.12 0.1837-0.272 0.5584-0.633 1.1309-1.085l-6.6479 3.209c4.4638 4.403 9.5001 5.474 15.109 3.212 5.2483-3.014 7.5386-7.63 6.8777-13.843l-7.3762 3.576zm-47.275-105.22c-1.1451 0.1803-1.9898 0.2403-2.534 0.1802-1.2653-0.4205-1.8519-1.3111-1.7636-2.6682 0.3322-1.3289 1.1451-1.9014 2.4422-1.7212 0.5124 0.15199 1.297 0.5902 2.3537 1.3147 1.0568 0.69272 1.9156 1.2794 2.5801 1.7636l0.1803-0.0459c-1.4773-1.6293-2.5341-3.0007-3.1667-4.1174-0.3322-1.3253 0.0743-2.2761 1.2194-2.8486 1.2369-0.30394 2.1594 0.18025 2.7601 1.4455 0.2403 1.2688 0.3039 2.9863 0.1802 5.1599l0.2721-0.0919c0.1803-0.84467 0.4383-1.8413 0.7705-2.9863 0.3322-1.1168 0.6467-1.8837 0.9507-2.3079 0.873-0.96483 1.8696-1.039 2.983-0.22617 0.9365 0.99666 1.0567 2.0534 0.364 3.1666-0.2403 0.24385-0.6503 0.5584-1.2228 0.9507l6.9236-2.534c-3.983-4.8242-8.8815-6.3935-14.702-4.7041-5.5523 2.4139-8.3091 6.7574-8.2806 13.031l7.6901-2.7601zm9.9067 110.29c0.6043 1.145 0.3923 2.187-0.6326 3.12-1.1451 0.725-2.1241 0.577-2.9404-0.452-0.2722-0.481-0.5266-1.339-0.767-2.576-0.2721-1.237-0.47-2.262-0.5902-3.079l-0.1802-0.088c-0.0601 2.17-0.2722 3.873-0.6327 5.11-0.6644 1.209-1.6151 1.615-2.8521 1.223-1.0851-0.664-1.3996-1.643-0.9472-2.94 0.7209-1.085 1.8696-2.368 3.4353-3.846l-0.2261-0.091c-1.8696 1.208-3.5131 2.067-4.9304 2.58-1.297 0.06-2.0639-0.591-2.3078-1.948 0.0318-1.357 0.6962-2.184 1.9933-2.488 0.3287-0.06 0.8446-0.013 1.5374 0.138l-6.7398-3.032c-0.5124 6.245 1.8979 10.797 7.2381 13.663 5.6372 2.11 10.645 0.919 15.017-3.573l-7.4642-3.393c0.9966 0.693 1.661 1.251 1.9897 1.672zm27.234-115.13c0.3323 0.4241 0.9967 0.96482 1.9898 1.6293l-7.4642-3.3928c4.3435-4.492 9.3515-5.669 15.02-3.5272 5.3366 2.8627 7.7505 7.4183 7.2381 13.66l-6.7398-3.0748c0.6928 0.1484 1.2052 0.2121 1.5374 0.1803 1.2971-0.3004 1.958-1.1451 1.9898-2.5341-0.2403-1.3253-1.0108-1.958-2.3078-1.8979-1.4173 0.51247-3.0607 1.3713-4.9304 2.5765l-0.2262-0.0883c1.5692-1.5092 2.7142-2.792 3.4388-3.8453 0.4523-1.3289 0.1343-2.3078-0.9507-2.9404-1.237-0.4241-2.1877-0.03182-2.8486 1.1734-0.3641 1.2688-0.5761 2.9863-0.6362 5.1599l-0.1802-0.09188c-0.1202-0.81288-0.3146-1.8413-0.5867-3.0748-0.2403-1.237-0.4983-2.0958-0.7705-2.5801-0.8129-1.0249-1.7954-1.1769-2.9404-0.45239-1.0249 0.90477-1.237 1.944-0.6327 3.1209z" clip-rule="evenodd" fill="#123B14" fill-rule="evenodd"/>
<path d="m116.86 82.352-2.262-4.4815-4.478 2.2619 2.262 4.4815 4.478-2.2619zm-100.29-37.773-4.4779 2.2619 2.2619 4.4779 4.4779-2.2619-2.2619-4.4779zm100.38 2.5765-4.478-2.216-2.216 4.478 4.478 2.2159 2.216-4.4779zm-104.95 34.834 4.478 2.2159 2.2159-4.4779-4.4779-2.216-2.216 4.478zm32.438 30.489 2.2619 4.481 4.4779-2.262-2.2619-4.481-4.4779 2.262zm40.078-95.814-2.2619-4.4779-4.478 2.2619 2.2619 4.4779 4.478-2.2619zm-7.1003 98.165 4.4779 2.216 2.2159-4.478-4.4779-2.216-2.2159 4.478zm-30.402-102.74 4.478 2.2159-2.216 4.4815-4.4779-2.2195 2.2159-4.4779z" clip-rule="evenodd" fill="#EAC199" fill-rule="evenodd"/>
</svg>
